<svg xmlns="http://www.w3.org/2000/svg" xmlns:xlink="http://www.w3.org/1999/xlink" width="40.148" height="41.371" viewBox="0 0 40.148 41.371">
  <defs>
    <style>
      .cls-1 {
        fill: none;
      }

      .cls-2 {
        fill: url(#linear-gradient);
      }

      .cls-3 {
        filter: url(#路径_1826);
      }
    </style>
    <linearGradient id="linear-gradient" x1="0.5" x2="0.5" y2="1" gradientUnits="objectBoundingBox">
      <stop offset="0" stop-color="#fff"/>
      <stop offset="1" stop-color="#fff" stop-opacity="0.502"/>
    </linearGradient>
    <filter id="路径_1826" x="0" y="1.168" width="40.148" height="40.202" filterUnits="userSpaceOnUse">
      <feOffset dy="3" input="SourceAlpha"/>
      <feGaussianBlur stdDeviation="3" result="blur"/>
      <feFlood flood-color="#c32020"/>
      <feComposite operator="in" in2="blur"/>
      <feComposite in="SourceGraphic"/>
    </filter>
  </defs>
  <g id="组_1182" data-name="组 1182" transform="translate(-218.173 -472)">
    <rect id="矩形_965" data-name="矩形 965" class="cls-1" width="36" height="36" transform="translate(220 472)"/>
    <g class="cls-3" transform="matrix(1, 0, 0, 1, 218.17, 472)">
      <path id="路径_1826-2" data-name="路径 1826" class="cls-2" d="M34.014,31.069a3.245,3.245,0,0,1,4.414.76l2.049,2.759a3.091,3.091,0,0,1-.182,3.909l-.342.38a.541.541,0,0,0-.06.642,8.014,8.014,0,0,0,1.254,1.594,16.905,16.905,0,0,0,2.229,1.756.541.541,0,0,0,.689-.065,5.825,5.825,0,0,1,1.452-1.068c1.255-.651,2.9.294,5.562,2.689l.33.3a3.247,3.247,0,0,1,.222,4.559l-.139.154A7.35,7.35,0,0,1,49.6,51.028a4.83,4.83,0,0,1-2.816.708h-.341c-2.227,0-6.644-2.349-10.086-5.927-3.74-3.886-5.055-6.308-5.433-9.6a4.8,4.8,0,0,1,1.948-4.375Zm2.676,2.05a1.082,1.082,0,0,0-1.471-.253l-1.147.768a2.659,2.659,0,0,0-1,2.336c.3,2.658,1.324,4.615,4.455,7.935l.386.4c3.07,3.191,6.969,5.263,8.529,5.264a3.083,3.083,0,0,0,1.862-.313l.3-.151a4.806,4.806,0,0,0,1.066-.887l.224-.239.13-.143a1.082,1.082,0,0,0-.076-1.518,19.8,19.8,0,0,0-2.821-2.254,3.081,3.081,0,0,0-.718-.345l-.009,0-.051.029a3.647,3.647,0,0,0-.61.449l-.233.223a2.7,2.7,0,0,1-3.347.236,18.969,18.969,0,0,1-2.521-1.994,10.174,10.174,0,0,1-1.594-2.021,2.7,2.7,0,0,1,.3-3.21l.342-.38a.927.927,0,0,0,.055-1.173Zm7.937,1.237a5.035,5.035,0,0,1,3.988,4.228,1.082,1.082,0,1,1-2.13.381,2.883,2.883,0,0,0-2.272-2.486,1.082,1.082,0,1,1,.414-2.124Zm.083-4.8a10.313,10.313,0,0,1,8.313,8.56,1.082,1.082,0,1,1-2.123.419,8.159,8.159,0,0,0-6.567-6.848,1.082,1.082,0,1,1,.377-2.131Z" transform="translate(-21.9 -22.37)"/>
    </g>
  </g>
</svg>
