<svg xmlns="http://www.w3.org/2000/svg" width="20.952" height="20.88" viewBox="0 0 20.952 20.88">
  <defs>
    <style>
      .cls-1 {
        fill: #ff1656;
      }
    </style>
  </defs>
  <g id="组_1249" data-name="组 1249" transform="translate(2.423 -4.023)">
    <path id="路径_2816" data-name="路径 2816" class="cls-1" d="M17.212,529.386H-1.153a1.336,1.336,0,0,1-1-.475,1.305,1.305,0,0,1-.237-1.091,10.818,10.818,0,0,1,9.633-8.827,13.179,13.179,0,0,1,5.03.9,8.633,8.633,0,0,1,.949.475,10.875,10.875,0,0,1,5.268,7.45,1.188,1.188,0,0,1-.285,1.091,1.335,1.335,0,0,1-1,.475Z" transform="translate(0 -504.483)"/>
    <path id="路径_2817" data-name="路径 2817" class="cls-1" d="M36.09,565.706a.476.476,0,0,1-.38-.166c-.012-.012-.012-.024-.024-.036a.516.516,0,0,1-.107-.439,10.037,10.037,0,0,1,8.981-8.21h.356a10.66,10.66,0,0,1,5.161,1.293,10.224,10.224,0,0,1,4.9,6.917.6.6,0,0,1-.13.474.476.476,0,0,1-.38.166Z" transform="translate(-37.219 -541.574)"/>
    <path id="路径_2818" data-name="路径 2818" class="cls-1" d="M30.88,15.567a10.373,10.373,0,0,1,5.007,1.246H35.9a9.813,9.813,0,0,1,4.746,6.715.271.271,0,0,1-.083.249.18.18,0,0,1-.142.047H22.054a.18.18,0,0,1-.142-.047.143.143,0,0,0-.059-.059.2.2,0,0,1-.024-.178,9.748,9.748,0,0,1,8.708-7.972,3.326,3.326,0,0,0,.344,0m0-.593c-.119,0-.249,0-.368.012a10.316,10.316,0,0,0-9.254,8.447.794.794,0,0,0,.19.712.765.765,0,0,0,.617.285H40.431a.765.765,0,0,0,.617-.285.908.908,0,0,0,.19-.712,10.444,10.444,0,0,0-5.03-7.118,10.957,10.957,0,0,0-5.327-1.341Zm.356-.036a5.457,5.457,0,1,1,5.457-5.457A5.489,5.489,0,0,1,31.236,14.938Z" transform="translate(-23.183)"/>
    <path id="路径_2819" data-name="路径 2819" class="cls-1" d="M286.582,51.261a4.686,4.686,0,1,1,4.686-4.686,4.689,4.689,0,0,1-4.686,4.686Z" transform="translate(-278.529 -37.094)"/>
    <path id="路径_2820" data-name="路径 2820" class="cls-1" d="M272.315,27.917a4.39,4.39,0,1,1-4.39,4.39,4.395,4.395,0,0,1,4.39-4.39m0-.593a4.983,4.983,0,1,0,4.983,4.983,4.982,4.982,0,0,0-4.983-4.983Z" transform="translate(-264.261 -22.826)"/>
  </g>
</svg>
