<svg xmlns="http://www.w3.org/2000/svg" width="17.852" height="16.544" viewBox="0 0 17.852 16.544"><defs><style>.a{fill:#15b973;}</style></defs><g transform="translate(-77.311 -114.347)"><path class="a" d="M317.678,349.913h-6.871a.535.535,0,1,1,0-1.07h6.871a.53.53,0,0,1,.535.535.537.537,0,0,1-.535.535Zm0,2.194h-6.871a.535.535,0,0,1,0-1.07h6.871a.53.53,0,0,1,.535.535.544.544,0,0,1-.535.535Zm0,2.183h-6.871a.535.535,0,0,1,0-1.07h6.871a.53.53,0,0,1,.535.535.537.537,0,0,1-.535.536Z" transform="translate(-228.09 -229.45)"/><path class="a" d="M93.633,130.889c-.953,0-2.483-.011-3.971-.022-1.381-.011-2.676-.011-3.425-.011-4.923,0-8.926-3.7-8.926-8.249s4-8.26,8.926-8.26,8.926,3.7,8.926,8.249a32.094,32.094,0,0,1-.91,5.074.72.72,0,0,0,.032.426v.011L95,129.961a.7.7,0,0,1-.054.6.668.668,0,0,1-.557.306A7,7,0,0,1,93.633,130.889Zm-7.4-15.451c-4.334,0-7.856,3.219-7.856,7.169s3.521,7.158,7.856,7.158c.749,0,2.055.011,3.425.011,1.584.011,3.2.022,4.12.022l-.492-1.277a1.846,1.846,0,0,1-.086-1.1,30.425,30.425,0,0,0,.878-4.823c.016-3.941-3.506-7.16-7.84-7.16Z"/></g></svg>