<svg xmlns="http://www.w3.org/2000/svg" xmlns:xlink="http://www.w3.org/1999/xlink" width="375" height="100.472" viewBox="0 0 375 100.472">
  <defs>
    <style>
      .cls-1 {
        fill: none;
      }

      .cls-2 {
        fill: #c52f2f;
      }

      .cls-3 {
        fill: #ff8686;
      }

      .cls-4 {
        fill: #f59325;
      }

      .cls-5 {
        fill: #ff5c5c;
      }

      .cls-6 {
        fill: #ff3b3b;
      }

      .cls-7 {
        fill: #a6703a;
      }

      .cls-8 {
        fill: #dbb59a;
      }

      .cls-9 {
        stroke: rgba(0,0,0,0);
        fill: url(#linear-gradient);
      }

      .cls-10 {
        fill: #fff;
      }

      .cls-11 {
        fill: #f6cbad;
      }

      .cls-12 {
        fill: #4d4d4d;
      }

      .cls-13 {
        fill: #fd9494;
      }

      .cls-14 {
        fill: #cf4141;
      }

      .cls-15 {
        fill: #dd4141;
      }

      .cls-16 {
        fill: #ff5757;
      }
    </style>
    <linearGradient id="linear-gradient" x1="0.315" y1="-0.386" x2="0.62" y2="1.102" gradientUnits="objectBoundingBox">
      <stop offset="0" stop-color="#fbc23e"/>
      <stop offset="1" stop-color="#ff871d"/>
    </linearGradient>
  </defs>
  <g id="组_1268" data-name="组 1268" transform="translate(-3196 597)">
    <rect id="矩形_986" data-name="矩形 986" class="cls-1" width="375" height="100" transform="translate(3196 -597)"/>
    <g id="组_1265" data-name="组 1265" transform="translate(3216 -576)">
      <path id="减去_6" data-name="减去 6" class="cls-2" d="M112.506,78.5H2.742A62.836,62.836,0,0,1,4.528,36.72a60.13,60.13,0,0,1,12.35-19.11A57.366,57.366,0,0,1,35.194,4.725a55.6,55.6,0,0,1,44.859,0A57.366,57.366,0,0,1,98.37,17.61a60.13,60.13,0,0,1,12.35,19.11,62.837,62.837,0,0,1,1.787,41.78Z" transform="translate(11)"/>
      <g id="组_755" data-name="组 755" transform="translate(8.942 1.713)">
        <path id="路径_2075" data-name="路径 2075" class="cls-3" d="M311.4,228.845l-.924,7.472c1.134,2.22,2.335,4.743,3.481,7.465l2.176-11.267.11.1a22.392,22.392,0,0,0-4.955-3.86Z" transform="translate(-296.322 -227.095)"/>
        <path id="路径_2076" data-name="路径 2076" class="cls-3" d="M276.872,225.387l.9-7.238a11.8,11.8,0,0,0-5.67-1.595c-.1,0-.191,0-.286.007C272.183,217.129,274.338,220.472,276.872,225.387Z" transform="translate(-262.918 -216.554)"/>
        <path id="路径_2077" data-name="路径 2077" class="cls-3" d="M375.456,349.255l.1.134q-.5-1.508-1.093-2.955l-5.612,12.571-.048-.06q.213.928.393,1.838Z" transform="translate(-346.714 -328.765)"/>
        <path id="路径_2078" data-name="路径 2078" class="cls-3" d="M344.5,264.464l.106.12a35.2,35.2,0,0,0-5.018-6.624l-2.218,11.482q1.593,3.834,2.746,7.485Z" transform="translate(-319.562 -252.327)"/>
        <path id="路径_2079" data-name="路径 2079" class="cls-3" d="M206.525,301.443a29.393,29.393,0,0,0,.156,5.922l19.571,5.5c-.709-2.1-1.472-4.083-2.231-5.9l-17.472-5.349Z" transform="translate(-206.443 -289.895)"/>
        <path id="路径_2080" data-name="路径 2080" class="cls-3" d="M208.672,348.294l-.027-.166L228.5,353.4q-.242-.778-.5-1.538l-19.643-5.516-.026-.166Q208.471,347.221,208.672,348.294Z" transform="translate(-208.08 -328.548)"/>
        <path id="路径_2081" data-name="路径 2081" class="cls-3" d="M365.454,312.743l.1.128a42.042,42.042,0,0,0-2.53-5.071l-4.443,12.631q.755,2.439,1.305,4.778Z" transform="translate(-337.886 -295.387)"/>
        <path id="路径_2082" data-name="路径 2082" class="cls-3" d="M373.362,433.367a34.285,34.285,0,0,1-.788,9.958c1.543-2.208,7.55-11.422,7.549-20.977Z" transform="translate(-349.973 -394.351)"/>
        <path id="路径_2083" data-name="路径 2083" class="cls-3" d="M229.085,417.935a40.67,40.67,0,0,0,2.774,4.684l-.019-.182,17.3,6.788a50.559,50.559,0,0,0-.758-6.012Z" transform="translate(-226.005 -390.538)"/>
        <path id="路径_2084" data-name="路径 2084" class="cls-3" d="M234.453,225.561c-2.743-5.317-5.035-8.774-5.068-8.823l.063-.091a7.976,7.976,0,0,0-6.532,4.129Z" transform="translate(-220.675 -216.634)"/>
        <path id="路径_2085" data-name="路径 2085" class="cls-3" d="M372.348,381.279c.036.188.072.377.106.564a50.222,50.222,0,0,1,.679,5.424l6.7-10.914.094.134a19.915,19.915,0,0,0-.677-4.98q-.261-.957-.565-1.893Z" transform="translate(-349.777 -348.791)"/>
        <path id="路径_2086" data-name="路径 2086" class="cls-3" d="M224.473,260.347c-1.135-2.69-2.323-5.183-3.444-7.377l-11.8-4.9-.015-.162a16.952,16.952,0,0,0-2.07,7.129Z" transform="translate(-207.048 -243.647)"/>
        <path id="路径_2087" data-name="路径 2087" class="cls-3" d="M267.586,460.486l-17.175-6.738c6.163,8.982,15.624,16.689,16.228,17.177A33.187,33.187,0,0,0,267.586,460.486Z" transform="translate(-244.429 -421.479)"/>
        <path id="路径_2088" data-name="路径 2088" class="cls-3" d="M232.706,375.359l.006-.011a68.231,68.231,0,0,0-1.784-7.125l-19.906-5.287q.279,1.452.688,2.957a24.45,24.45,0,0,0,1.588,4.158Z" transform="translate(-210.398 -343.021)"/>
      </g>
      <g id="组_756" data-name="组 756" transform="translate(0 34.884)">
        <path id="路径_2103" data-name="路径 2103" class="cls-4" d="M226.668,462.511,228.1,469.9c1.765,1.76,3.687,3.789,5.618,6.023L232.3,464.538l.136.061a22.392,22.392,0,0,0-5.905-2.14Z" transform="translate(-214.859 -462.177)"/>
        <path id="路径_2104" data-name="路径 2104" class="cls-4" d="M187.873,467.795l-1.386-7.16a11.8,11.8,0,0,0-5.885.236c-.091.03-.18.063-.27.1C180.86,461.391,183.944,463.9,187.873,467.795Z" transform="translate(-174.942 -460.377)"/>
        <path id="路径_2105" data-name="路径 2105" class="cls-4" d="M344.46,547.71l.136.1q-.938-1.281-1.953-2.473l-1.451,13.69-.064-.042q.489.816.941,1.626Z" transform="translate(-313.862 -533.777)"/>
        <path id="路径_2106" data-name="路径 2106" class="cls-4" d="M277.648,483.4l.138.081a35.2,35.2,0,0,0-6.819-4.748l1.44,11.6q2.7,3.154,4.925,6.27Z" transform="translate(-253.246 -476.232)"/>
        <path id="路径_2107" data-name="路径 2107" class="cls-4" d="M144.958,564.366a29.393,29.393,0,0,0,1.979,5.584l20.311-.823c-1.323-1.776-2.662-3.428-3.947-4.924l-18.27.313Z" transform="translate(-144.381 -550.078)"/>
        <path id="路径_2108" data-name="路径 2108" class="cls-4" d="M160.988,605.163l-.077-.149,20.515-1.122q-.471-.665-.947-1.31l-20.386.826-.076-.15Q160.465,604.205,160.988,605.163Z" transform="translate(-157.392 -583.236)"/>
        <path id="路径_2109" data-name="路径 2109" class="cls-4" d="M323.9,518.466l.137.09a42.05,42.05,0,0,0-3.973-4.04l-.321,13.386q1.472,2.086,2.718,4.14Z" transform="translate(-295.384 -507.151)"/>
        <path id="路径_2110" data-name="路径 2110" class="cls-4" d="M370.294,624.643a34.286,34.286,0,0,1,2.329,9.714c.785-2.577,3.65-13.2.7-22.283Z" transform="translate(-339.061 -591.436)"/>
        <path id="路径_2111" data-name="路径 2111" class="cls-4" d="M201.927,663.375a40.662,40.662,0,0,0,4.086,3.6l-.074-.167,18.553,1.107a50.559,50.559,0,0,0-2.579-5.483Z" transform="translate(-193.599 -634.941)"/>
        <path id="路径_2112" data-name="路径 2112" class="cls-4" d="M155.675,471.944c-4.252-4.209-7.5-6.788-7.547-6.825l.032-.106a7.976,7.976,0,0,0-4.936,5.946Z" transform="translate(-142.883 -464.382)"/>
        <path id="路径_2113" data-name="路径 2113" class="cls-4" d="M349.742,577.8c.092.168.186.336.275.5a50.234,50.234,0,0,1,2.322,4.948l3-12.45.131.1a19.912,19.912,0,0,0-2.183-4.527q-.544-.829-1.122-1.626Z" transform="translate(-321.304 -550.548)"/>
        <path id="路径_2114" data-name="路径 2114" class="cls-4" d="M159.377,516.87c-1.91-2.208-3.811-4.212-5.555-5.951l-12.737-1.008-.064-.15a16.952,16.952,0,0,0,.235,7.419Z" transform="translate(-140.713 -503.043)"/>
        <path id="路径_2115" data-name="路径 2115" class="cls-4" d="M251.694,697.945l-18.417-1.1c8.637,6.638,20.017,11.042,20.743,11.32A33.177,33.177,0,0,0,251.694,697.945Z" transform="translate(-220.684 -664.676)"/>
        <path id="路径_2116" data-name="路径 2116" class="cls-4" d="M192.21,620.628l0-.012a68.24,68.24,0,0,0-3.9-6.224l-20.566,1.124q.715,1.295,1.568,2.6a24.452,24.452,0,0,0,2.8,3.464Z" transform="translate(-164.069 -593.438)"/>
      </g>
      <g id="组_754" data-name="组 754" transform="translate(30.867 28.071)">
        <path id="路径_2089" data-name="路径 2089" class="cls-5" d="M515.926,460.051l-5.477,5.165c-.542,2.433-1.226,5.143-2.08,7.97l8.862-7.29.021.147a22.393,22.393,0,0,0-1.354-6.133Z" transform="translate(-489.217 -453.161)"/>
        <path id="路径_2090" data-name="路径 2090" class="cls-5" d="M524.351,432.113l5.306-5a11.8,11.8,0,0,0-3.35-4.845c-.074-.061-.15-.119-.225-.177C526.006,422.762,525.534,426.711,524.351,432.113Z" transform="translate(-503.025 -420.484)"/>
        <path id="路径_2091" data-name="路径 2091" class="cls-5" d="M476.1,613.28l-.009.167q.58-1.478,1.043-2.973l-12.34,6.1V616.5q-.428.85-.87,1.666Z" transform="translate(-450.821 -583.24)"/>
        <path id="路径_2092" data-name="路径 2092" class="cls-5" d="M499.149,514.29l.005.16a35.2,35.2,0,0,0,.36-8.3l-9.031,7.429q-1.218,3.969-2.659,7.516Z" transform="translate(-471.468 -493.108)"/>
        <path id="路径_2093" data-name="路径 2093" class="cls-5" d="M409.863,446.116a29.4,29.4,0,0,0-3.657,4.661l11.568,16.716c.792-2.068,1.47-4.084,2.047-5.97l-10.045-15.264Z" transform="translate(-400.954 -441.243)"/>
        <path id="路径_2094" data-name="路径 2094" class="cls-5" d="M397.539,483.239l.085-.145,11.93,16.728q.31-.754.6-1.5l-11.611-16.777.086-.144Q398.068,482.284,397.539,483.239Z" transform="translate(-393.466 -471.727)"/>
        <path id="路径_2095" data-name="路径 2095" class="cls-5" d="M483.754,573.85l0,.164a42.031,42.031,0,0,0,1.285-5.519l-11.478,6.895q-.974,2.36-2.042,4.512Z" transform="translate(-457.38 -546.973)"/>
        <path id="路径_2096" data-name="路径 2096" class="cls-5" d="M392.076,684.379a34.286,34.286,0,0,1-6.958,7.167c2.6-.717,13.1-3.982,19.193-11.341Z" transform="translate(-382.734 -643.485)"/>
        <path id="路径_2097" data-name="路径 2097" class="cls-5" d="M370.355,549.9a40.667,40.667,0,0,0-.851,5.377l.1-.152,9,16.263a50.573,50.573,0,0,0,3.25-5.114Z" transform="translate(-369.245 -530.904)"/>
        <path id="路径_2098" data-name="路径 2098" class="cls-5" d="M485.87,421.886c1.279-5.845,1.718-9.969,1.724-10.028l.107-.03a7.977,7.977,0,0,0-7.665-.986Z" transform="translate(-464.74 -410.297)"/>
        <path id="路径_2099" data-name="路径 2099" class="cls-5" d="M441.818,638.7c-.093.168-.185.337-.278.5a50.223,50.223,0,0,1-2.936,4.61l12.119-4.134-.013.164a19.914,19.914,0,0,0,2.656-4.267q.409-.9.772-1.818Z" transform="translate(-428.943 -603.355)"/>
        <path id="路径_2100" data-name="路径 2100" class="cls-5" d="M443.848,433.966c.842-2.8,1.517-5.474,2.053-7.878l-5.967-11.3.092-.134a16.951,16.951,0,0,0-6.141,4.17Z" transform="translate(-424.867 -414.063)"/>
        <path id="路径_2101" data-name="路径 2101" class="cls-5" d="M376.766,607.223l-8.93-16.144c-.983,10.849,1.389,22.819,1.543,23.58A33.181,33.181,0,0,0,376.766,607.223Z" transform="translate(-367.598 -566.484)"/>
        <path id="路径_2102" data-name="路径 2102" class="cls-5" d="M388.018,519.413l.012,0a68.237,68.237,0,0,0,3.17-6.626L379.24,496.014q-.711,1.3-1.356,2.716a24.454,24.454,0,0,0-1.429,4.215Z" transform="translate(-375.25 -484.353)"/>
      </g>
      <path id="路径_2117" data-name="路径 2117" class="cls-6" d="M242.287,759.746s28.842-11.428,63.67,0" transform="translate(-227.287 -680.746)"/>
    </g>
    <g id="组_1266" data-name="组 1266" transform="translate(3266.311 -592.056)">
      <path id="路径_2024" data-name="路径 2024" class="cls-7" d="M342.77,127.027c-16.119,0-23.256,8.721-23.256,23.256v40.7h46.514v-40.7c0-14.535-9.511-23.256-23.258-23.256Z" transform="translate(-302.07 -127.027)"/>
      <path id="路径_2025" data-name="路径 2025" class="cls-8" d="M454.356,487.949h-11.63l-2.906,11.628V537.37h17.441V499.577Z" transform="translate(-407.841 -442.343)"/>
      <path id="路径_2026" data-name="路径 2026" class="cls-9" d="M180.945,619.884c-5.465,5.465-5.815,23.256-5.815,23.256h40.7L204.2,608.256S183.676,617.151,180.945,619.884Zm69.771,0c-2.734-2.734-23.256-11.628-23.256-11.628l-11.63,34.886h40.7s-.348-17.792-5.813-23.258Z" transform="translate(-175.13 -548.114)"/>
      <path id="路径_2027" data-name="路径 2027" class="cls-10" d="M330.333,584.192l-8.721,37.793h2.907l8.721-20.35,14.535-2.907Zm-34.884,14.535,14.535,2.907,8.721,20.35h2.908l-8.721-37.793-17.443,14.535Z" transform="translate(-280.912 -526.958)"/>
      <path id="路径_2028" data-name="路径 2028" class="cls-11" d="M393.375,270.976c-2.275,5.031-10.123,8.772-19.628,8.772h-5.773c.127,5.7.657,10.116,2.867,14.535,2.907,5.815,8.84,11.628,14.535,11.628S397,300.1,399.912,294.283c2.589-5.176,2.872-10.354,2.9-17.582-.172-3.268-6.341-5.725-9.44-5.725Z" transform="translate(-344.674 -252.985)"/>
      <path id="路径_2029" data-name="路径 2029" class="cls-12" d="M326.032,167.136c-2.539-9.171-13.025-16.045-25.576-16.045s-23.036,6.874-25.576,16.045c-1.939,1.064-3.5,2.6-3.5,4.3v5.815c0,3.211,5.51,5.815,8.721,5.815V171.441c0-8.028,9.11-14.535,20.35-14.535s20.35,6.508,20.35,14.535v5.815a14.541,14.541,0,0,1-9.427,13.612,4.357,4.357,0,0,0-3.654-1.984H301.91a4.361,4.361,0,0,0,0,8.722h5.815a4.371,4.371,0,0,0,1.223-.175,20.366,20.366,0,0,0,17.234-15.955c1.87-1.059,3.347-2.558,3.347-4.219v-5.815c0-1.709-1.557-3.243-3.5-4.307Z" transform="translate(-259.756 -148.184)"/>
    </g>
    <g id="组_1267" data-name="组 1267" transform="translate(3384 -592.531)">
      <path id="路径_2034" data-name="路径 2034" class="cls-13" d="M704.6,205.764H635.871a2.051,2.051,0,0,1-2.048-2.048V167.008a2.051,2.051,0,0,1,2.048-2.048H704.6a2.051,2.051,0,0,1,2.048,2.048v36.707a2.051,2.051,0,0,1-2.048,2.048Z" transform="translate(-552.959 -164.96)"/>
      <circle id="椭圆_170" data-name="椭圆 170" class="cls-5" cx="7.557" cy="7.557" r="7.557" transform="translate(87.093 10.572)"/>
      <path id="路径_2035" data-name="路径 2035" class="cls-5" d="M762.575,196.038H731.719a1.156,1.156,0,1,1,0-2.311h30.856a1.156,1.156,0,1,1,0,2.311Z" transform="translate(-619.261 -184.676)"/>
      <path id="路径_2036" data-name="路径 2036" class="cls-5" d="M746.422,212.826h-14.7a1.156,1.156,0,1,1,0-2.311h14.7a1.156,1.156,0,1,1,0,2.311Z" transform="translate(-619.261 -196.181)"/>
      <path id="路径_2037" data-name="路径 2037" class="cls-5" d="M756.777,229.607H731.719a1.156,1.156,0,1,1,0-2.311h25.058a1.156,1.156,0,1,1,0,2.311Z" transform="translate(-619.261 -207.202)"/>
      <path id="路径_2038" data-name="路径 2038" class="cls-5" d="M762.575,246.388H731.719a1.156,1.156,0,1,1,0-2.311h30.856a1.156,1.156,0,1,1,0,2.311Z" transform="translate(-619.261 -218.573)"/>
      <path id="路径_2039" data-name="路径 2039" class="cls-5" d="M813.48,272.539h-5.109a2.122,2.122,0,0,1,0-4.244h5.109a2.122,2.122,0,1,1,0,4.244Z" transform="translate(-671.133 -234.965)"/>
      <path id="路径_2040" data-name="路径 2040" class="cls-14" d="M426.24,243.45H378.252a1.432,1.432,0,0,1-1.43-1.43V216.391a1.432,1.432,0,0,1,1.43-1.43H426.24a1.432,1.432,0,0,1,1.43,1.43V242.02A1.432,1.432,0,0,1,426.24,243.45Z" transform="translate(-376.821 -198.66)"/>
      <g id="组_757" data-name="组 757" transform="translate(4.35 22.735)">
        <circle id="椭圆_171" data-name="椭圆 171" class="cls-3" cx="5.277" cy="5.277" r="5.277" transform="translate(0 1.062)"/>
        <path id="路径_2041" data-name="路径 2041" class="cls-3" d="M466.719,236.659H445.175a.807.807,0,1,1,0-1.614h21.544a.807.807,0,0,1,0,1.614Z" transform="translate(-427.464 -235.046)"/>
        <path id="路径_2042" data-name="路径 2042" class="cls-3" d="M455.44,248.381H445.175a.807.807,0,0,1,0-1.614H455.44a.807.807,0,1,1,0,1.614Z" transform="translate(-427.464 -243.079)"/>
        <path id="路径_2043" data-name="路径 2043" class="cls-3" d="M462.671,260.1h-17.5a.807.807,0,1,1,0-1.614h17.5a.807.807,0,1,1,0,1.614Z" transform="translate(-427.465 -251.11)"/>
        <path id="路径_2044" data-name="路径 2044" class="cls-3" d="M466.719,271.815H445.175a.807.807,0,1,1,0-1.614h21.544a.807.807,0,0,1,0,1.614Z" transform="translate(-427.464 -259.14)"/>
        <path id="路径_2045" data-name="路径 2045" class="cls-3" d="M502.263,290.074H498.7a1.481,1.481,0,1,1,0-2.963h3.567a1.481,1.481,0,0,1,0,2.963Z" transform="translate(-463.683 -270.729)"/>
      </g>
      <path id="路径_2046" data-name="路径 2046" class="cls-15" d="M593.488,315.6H503.751a2.678,2.678,0,0,1-2.674-2.674V265a2.678,2.678,0,0,1,2.674-2.674h89.737A2.678,2.678,0,0,1,596.163,265v47.927A2.678,2.678,0,0,1,593.488,315.6Z" transform="translate(-461.981 -229.688)"/>
      <circle id="椭圆_172" data-name="椭圆 172" class="cls-16" cx="9.867" cy="9.867" r="9.867" transform="translate(47.23 45.823)"/>
      <path id="路径_2047" data-name="路径 2047" class="cls-16" d="M669.183,302.9H628.9a1.509,1.509,0,0,1,0-3.017h40.287a1.509,1.509,0,1,1,0,3.017Z" transform="translate(-548.548 -256.38)"/>
      <path id="路径_2048" data-name="路径 2048" class="cls-16" d="M648.093,324.82H628.9a1.509,1.509,0,0,1,0-3.017h19.2a1.509,1.509,0,0,1,0,3.017Z" transform="translate(-548.548 -271.233)"/>
      <path id="路径_2049" data-name="路径 2049" class="cls-16" d="M661.612,346.73H628.9a1.509,1.509,0,0,1,0-3.017h32.717a1.509,1.509,0,0,1,0,3.017Z" transform="translate(-548.548 -286.078)"/>
      <path id="路径_2050" data-name="路径 2050" class="cls-16" d="M669.183,368.64H628.9a1.509,1.509,0,0,1,0-3.017h40.287a1.509,1.509,0,1,1,0,3.017Z" transform="translate(-548.548 -300.924)"/>
      <path id="路径_2051" data-name="路径 2051" class="cls-16" d="M735.649,402.783h-6.67a2.77,2.77,0,1,1,0-5.541h6.67a2.77,2.77,0,1,1,0,5.541Z" transform="translate(-616.276 -322.156)"/>
    </g>
  </g>
</svg>
