<svg xmlns="http://www.w3.org/2000/svg" xmlns:xlink="http://www.w3.org/1999/xlink" width="22.794" height="20.758" viewBox="0 0 22.794 20.758">
  <defs>
    <style>
      .cls-1 {
        fill: url(#linear-gradient);
      }
    </style>
    <linearGradient id="linear-gradient" x1="-0.494" y1="-0.515" x2="0.637" y2="0.644" gradientUnits="objectBoundingBox">
      <stop offset="0" stop-color="#fff"/>
      <stop offset="1" stop-color="#fff" stop-opacity="0.502"/>
    </linearGradient>
  </defs>
  <path id="路径_2770" data-name="路径 2770" class="cls-1" d="M95.988,85.375a2.828,2.828,0,0,0,1.9-2.683c0-.166-.9-7.171-.9-7.171a.486.486,0,0,0-.475-.427H76.47a.486.486,0,0,0-.475.427s-.9,7.028-.9,7.171a2.828,2.828,0,0,0,1.9,2.683v10a.476.476,0,0,0,.475.475H95.513a.476.476,0,0,0,.475-.475v-10Zm-3.3-8.382.641,5.7h-.95l-.641-5.7Zm-3.823,0,.214,5.7h-.95l-.214-5.7h.95Zm-4.749,0h.95l-.214,5.7H83.9Zm-3.823,0h.95l-.641,5.7h-.95ZM89.34,93.953h-5.7V91.24h5.7v2.713Zm4.749-6.512h-15.2V85.375a2.941,2.941,0,0,0,1.187-.807,2.832,2.832,0,0,0,4.274,0,2.832,2.832,0,0,0,4.274,0,2.832,2.832,0,0,0,4.274,0,2.941,2.941,0,0,0,1.187.807v2.066Z" transform="translate(-75.093 -75.094)"/>
</svg>
