<svg xmlns="http://www.w3.org/2000/svg" width="18" height="18" viewBox="0 0 18 18">
  <defs>
    <style>
      .cls-1 {
        fill: none;
      }

      .cls-2 {
        fill: #9167ea;
      }

      .cls-3 {
        fill: #b191f6;
      }
    </style>
  </defs>
  <g id="组_712" data-name="组 712" transform="translate(971 -6438)">
    <rect id="矩形_868" data-name="矩形 868" class="cls-1" width="18" height="18" transform="translate(-971 6438)"/>
    <g id="组_705" data-name="组 705" transform="translate(-997.831 6014.611)">
      <path id="路径_1809" data-name="路径 1809" class="cls-2" d="M66.979,87.276a3.962,3.962,0,0,0,1.5.266,3.632,3.632,0,0,0,2.434-.872,3.794,3.794,0,0,0,4.832,0,3.625,3.625,0,0,0,2.439.868,3.973,3.973,0,0,0,1.525-.277,2.44,2.44,0,0,0,1.661-2.151,1.89,1.89,0,0,0-.155-.752l0-.018a.3.3,0,0,0-.03-.075l-1.359-2.52a1.955,1.955,0,0,0-1.7-1.1H68.581a1.859,1.859,0,0,0-1.65,1.074L65.47,84.289a.508.508,0,0,0-.021.062,1.955,1.955,0,0,0-.159.765,2.448,2.448,0,0,0,1.69,2.159ZM69.1,83.54h8.5c.323,0,.55.18.55.426a.567.567,0,0,1-.55.54H69.1c-.323,0-.641-.242-.641-.488s.318-.478.641-.478Z" transform="translate(-37.459 343.746)"/>
      <path id="路径_1818" data-name="路径 1818" class="cls-3" d="M68.106,101.9a.325.325,0,0,1-.325-.325V98.342a.553.553,0,1,0-1.1,0v3.335a1.488,1.488,0,0,0,1.486,1.486h3.6a12.2,12.2,0,0,0,.07-1.261ZM67.2,97.762h0Zm0,0" transform="translate(-38.057 336.361)"/>
      <path id="路径_1810" data-name="路径 1810" class="cls-2" d="M67.833,78.806A2.4,2.4,0,0,1,71.1,76.562l-1.35,1.35a.358.358,0,0,0,0,.506l.749.761a.358.358,0,0,0,.506,0l1.4-1.4a2.4,2.4,0,1,1-4.577,1.029ZM64.21,82.861a.715.715,0,0,0,0,1.012l.721.721a.716.716,0,0,0,1.013,0l2.884-2.906a.511.511,0,0,0,.16-.325A2.87,2.87,0,0,1,67.481,79.8a.5.5,0,0,0-.387.158Zm.83.83a.511.511,0,1,1,.722,0A.509.509,0,0,1,65.04,83.691Z" transform="translate(-27.965 355.083)"/>
    </g>
  </g>
</svg>
