<svg xmlns="http://www.w3.org/2000/svg" width="18" height="18" viewBox="0 0 18 18">
  <defs>
    <style>
      .cls-1 {
        fill: none;
      }

      .cls-2 {
        fill: #fff;
      }
    </style>
  </defs>
  <g id="组_579" data-name="组 579" transform="translate(-107 -222)">
    <rect id="矩形_641" data-name="矩形 641" class="cls-1" width="18" height="18" transform="translate(107 222)"/>
    <path id="路径_1186" data-name="路径 1186" class="cls-2" d="M87.681,161.465,84.8,163.274a2.334,2.334,0,0,1-1.246.356H82.135A2.12,2.12,0,0,0,80,165.735v4.182a2.316,2.316,0,0,0,2.313,2.313h1.661a2.335,2.335,0,0,1,1.246.356l2.491,1.513a1.1,1.1,0,0,0,.623.178,1.19,1.19,0,0,0,1.186-1.186V162.473a1.167,1.167,0,0,0-.178-.623A1.211,1.211,0,0,0,87.681,161.465ZM88.3,173.09l-2.491-1.512a3.677,3.677,0,0,0-1.839-.534H82.313a1.126,1.126,0,0,1-1.127-1.127v-4.182a.924.924,0,0,1,.919-.919h1.453a3.6,3.6,0,0,0,1.9-.534l2.877-1.809V173.09Zm7.118-5.9H91.863a.593.593,0,1,0,0,1.186h3.559a.593.593,0,1,0,0-1.186Zm-.237,5.042L92.1,170.451a.585.585,0,0,0-.593,1.008l3.084,1.779a.575.575,0,0,0,.8-.208A.564.564,0,0,0,95.184,172.23Zm-3.114-7.118,3.084-1.779a.585.585,0,1,0-.593-1.008L91.477,164.1a.564.564,0,0,0-.208.8A.588.588,0,0,0,92.07,165.113Z" transform="translate(28 63.719)"/>
  </g>
</svg>
