<svg xmlns="http://www.w3.org/2000/svg" xmlns:xlink="http://www.w3.org/1999/xlink" width="36" height="36" viewBox="0 0 36 36">
  <defs>
    <style>
      .cls-1 {
        fill: none;
      }

      .cls-2 {
        fill: url(#linear-gradient);
      }

      .cls-3 {
        filter: url(#矩形_741);
      }
    </style>
    <filter id="矩形_741" x="0" y="0" width="36" height="36" filterUnits="userSpaceOnUse">
      <feOffset dy="3" input="SourceAlpha"/>
      <feGaussianBlur stdDeviation="3" result="blur"/>
      <feFlood flood-color="#ff3b3b" flood-opacity="0.361"/>
      <feComposite operator="in" in2="blur"/>
      <feComposite in="SourceGraphic"/>
    </filter>
    <linearGradient id="linear-gradient" x1="0.049" y1="-0.078" x2="0.922" y2="1.089" gradientUnits="objectBoundingBox">
      <stop offset="0" stop-color="#ff1656"/>
      <stop offset="1" stop-color="#fe6959"/>
    </linearGradient>
  </defs>
  <g id="组_660" data-name="组 660" transform="translate(-279 -392)">
    <g class="cls-3" transform="matrix(1, 0, 0, 1, 279, 392)">
      <rect id="矩形_741-2" data-name="矩形 741" class="cls-1" width="18" height="18" transform="translate(9 6)"/>
    </g>
    <path id="路径_1545" data-name="路径 1545" class="cls-2" d="M121.978,154.435l-.1.047a.673.673,0,0,0,.091,1.2l6.046,2.462,2.465,6.047a.673.673,0,0,0,1.249-.009l5.708-14.589a.673.673,0,0,0-.872-.872l-14.587,5.71Zm13.646-3.9-4.535,11.587-1.933-4.748-.048-.1a.673.673,0,0,0-.321-.272l-4.749-1.935Z" transform="translate(167.451 250.43)"/>
  </g>
</svg>
