<svg id="组_1248" data-name="组 1248" xmlns="http://www.w3.org/2000/svg" width="24" height="24" viewBox="0 0 24 24">
  <defs>
    <style>
      .cls-1 {
        fill: none;
      }

      .cls-2 {
        fill: #d3d3d3;
      }
    </style>
  </defs>
  <rect id="矩形_982" data-name="矩形 982" class="cls-1" width="24" height="24"/>
  <path id="路径_2809" data-name="路径 2809" class="cls-2" d="M201.429,236.691l-9.67-9.67-9.67,9.67a1.034,1.034,0,0,1-1.462-1.462l10.4-10.4a1.032,1.032,0,0,1,1.462,0l10.4,10.4a1.035,1.035,0,0,1-1.465,1.462Zm-10.4-4.509a1.032,1.032,0,0,1,1.462,0l10.4,10.4a1.034,1.034,0,0,1-1.462,1.462l-9.673-9.67-9.67,9.67a1.034,1.034,0,0,1-1.462-1.462Z" transform="translate(-179.325 -222.347)"/>
</svg>
