<svg xmlns="http://www.w3.org/2000/svg" width="18" height="18" viewBox="0 0 18 18">
  <defs>
    <style>
      .cls-1 {
        fill: none;
      }

      .cls-2 {
        fill: #3f8df7;
      }

      .cls-3 {
        fill: #7baef4;
      }
    </style>
  </defs>
  <g id="组_714" data-name="组 714" transform="translate(971 -6514)">
    <rect id="矩形_868" data-name="矩形 868" class="cls-1" width="18" height="18" transform="translate(-971 6514)"/>
    <g id="组_707" data-name="组 707" transform="translate(-0.856 -1.276)">
      <path id="路径_1817" data-name="路径 1817" class="cls-2" d="M138,114.031v-.192a3.868,3.868,0,0,0,1.227-1.4,14.516,14.516,0,0,1-1.687.058h-.345q-.211,0-.345.01a2.108,2.108,0,0,1-.288,0q-.153-.01-.269-.01a1.085,1.085,0,0,1-.211-.019,1.182,1.182,0,0,1-.825-.479,1.259,1.259,0,0,1-.269-.939,1.171,1.171,0,0,1,.46-.815,1.19,1.19,0,0,1,.9-.259,11.415,11.415,0,0,0,2.032.01,5.177,5.177,0,0,0,1.438-.278q.019-.4.019-1.61a5.043,5.043,0,0,0-.288-1.745,3.675,3.675,0,0,0-.824-1.332,3.627,3.627,0,0,0-1.313-.844,5.07,5.07,0,0,0-1.716-.317h-.383a5.373,5.373,0,0,0-1.409.211,3.725,3.725,0,0,0-1.14.556,3.525,3.525,0,0,0-.843.872,3.745,3.745,0,0,0-.518,1.169,5.724,5.724,0,0,0-.172,1.447q0,.671.01,1.1a10.7,10.7,0,0,0,.115,1.179,7.141,7.141,0,0,0,.288,1.285,5.637,5.637,0,0,0,.556,1.14,3.781,3.781,0,0,0,.891,1.007v.192a8.484,8.484,0,0,0-3.125,1.016,2.051,2.051,0,0,0-1.208,1.706.6.6,0,0,0,.4.594.511.511,0,0,0,.23.058H141.43a.73.73,0,0,0,.336-.1.868.868,0,0,0,.3-.249.514.514,0,0,0,.115-.307,2.054,2.054,0,0,0-1.15-1.706A7.885,7.885,0,0,0,138,114.032Z" transform="translate(-1097.328 6414.602)"/>
      <path id="路径_1815" data-name="路径 1815" class="cls-3" d="M142.723,110.321a.622.622,0,0,1-.613-.613V107.6l-.824-.307a.551.551,0,0,1-.4-.575,5.521,5.521,0,0,0-11.042,0,.637.637,0,0,1-.067.288.532.532,0,0,1-.182.211l-.364.269v2.224a.613.613,0,0,1-1.227,0v-2.55a.666.666,0,0,1,.029-.192.538.538,0,0,1,.087-.172.7.7,0,0,1,.134-.134l.364-.249a6.576,6.576,0,0,1,2.089-4.563,6.491,6.491,0,0,1,4.659-1.879,6.574,6.574,0,0,1,3.269.844,6.76,6.76,0,0,1,3.461,5.483l.844.288a.57.57,0,0,1,.4.575v2.55a.622.622,0,0,1-.613.613Z" transform="translate(-1097.144 6416.308)"/>
      <path id="路径_1816" data-name="路径 1816" class="cls-3" d="M139.589,113.668a10.689,10.689,0,0,1-1.323-.077.537.537,0,0,1-.4-.22.6.6,0,0,1-.125-.45.617.617,0,0,1,.22-.412.526.526,0,0,1,.441-.125q.844.058,1.706.039a6.009,6.009,0,0,0,1.62-.249,1.478,1.478,0,0,0,.949-.613.62.62,0,0,1,.355-.317.6.6,0,0,1,.47.019.6.6,0,0,1,.288.815q-.767,1.591-4.2,1.591Z" transform="translate(-1099.512 6412.818)"/>
    </g>
  </g>
</svg>
