<svg xmlns="http://www.w3.org/2000/svg" width="18" height="18" viewBox="0 0 18 18">
  <defs>
    <style>
      .cls-1 {
        fill: #ff3b3b;
      }
    </style>
  </defs>
  <path id="路径_1561" data-name="路径 1561" class="cls-1" d="M94.344,101.1h-5.1c-.894,0-1.639-1.162-1.639-2.056V94.368a1.654,1.654,0,0,1,1.639-1.639h5.1a1.654,1.654,0,0,1,1.639,1.639v5.066a1.66,1.66,0,0,1-1.639,1.669Zm.387-6.348a.738.738,0,0,0-.745-.745H89.575a.732.732,0,0,0-.715.745v4.411a.738.738,0,0,0,.745.745h4.411a.738.738,0,0,0,.745-.745V94.755Zm9.238,6.348h-5.1c-.894,0-1.639-1.162-1.639-2.056V94.368a1.654,1.654,0,0,1,1.639-1.639h5.1a1.654,1.654,0,0,1,1.639,1.639v5.066a1.641,1.641,0,0,1-1.639,1.669Zm.387-6.348a.738.738,0,0,0-.745-.745H99.231a.738.738,0,0,0-.745.745v4.411a.738.738,0,0,0,.745.745h4.411a.738.738,0,0,0,.745-.745V94.755Zm-.387,15.973h-5.1c-.894,0-1.639-1.162-1.639-2.056v-4.649a1.654,1.654,0,0,1,1.639-1.639h5.1a1.654,1.654,0,0,1,1.639,1.639v5.066a1.634,1.634,0,0,1-1.639,1.639Zm.387-6.348a.738.738,0,0,0-.745-.745H99.231a.738.738,0,0,0-.745.745v4.411a.738.738,0,0,0,.745.745h4.411a.738.738,0,0,0,.745-.745v-4.411Zm-10.013,6.348h-5.1c-.894,0-1.639-1.162-1.639-2.056v-4.649a1.654,1.654,0,0,1,1.639-1.639h5.1a1.654,1.654,0,0,1,1.639,1.639v5.066a1.654,1.654,0,0,1-1.639,1.639Zm.387-6.348a.738.738,0,0,0-.745-.745H89.575a.738.738,0,0,0-.745.745v4.411a.738.738,0,0,0,.745.745h4.411a.738.738,0,0,0,.745-.745Z" transform="translate(-87.609 -92.729)"/>
</svg>
