<svg xmlns="http://www.w3.org/2000/svg" width="18" height="18" viewBox="0 0 18 18">
  <defs>
    <style>
      .cls-1 {
        fill: none;
      }

      .cls-2 {
        fill: #1ea4a4;
      }

      .cls-3 {
        fill: #55d2d2;
      }
    </style>
  </defs>
  <g id="组_715" data-name="组 715" transform="translate(971 -6552)">
    <rect id="矩形_868" data-name="矩形 868" class="cls-1" width="18" height="18" transform="translate(-971 6552)"/>
    <g id="组_704" data-name="组 704" transform="translate(-998.612 6553)">
      <path id="路径_1805" data-name="路径 1805" class="cls-2" d="M621.012,4.21a1.172,1.172,0,0,0,.211.29.434.434,0,0,0,.309.118h2.454V4.354a1.021,1.021,0,0,0-.033-.243.871.871,0,0,0-.178-.316,4.321,4.321,0,0,0-.408-.454c-.178-.178-.414-.4-.717-.658s-.507-.447-.671-.579-.342-.257-.467-.342a1.158,1.158,0,0,0-.329-.151,1.316,1.316,0,0,0-.283,0h-.033V3.552a1.037,1.037,0,0,0,.046.283,1.236,1.236,0,0,0,.118.329Z" transform="translate(-582.84 -1.578)"/>
      <path id="路径_1806" data-name="路径 1806" class="cls-3" d="M38.7,4.06a1.461,1.461,0,0,1-.8-.2,1.737,1.737,0,0,1-.546-.5,2.23,2.23,0,0,1-.309-.658,2.579,2.579,0,0,1-.1-.658V0H30.586a1.415,1.415,0,0,0-.757.2A2.678,2.678,0,0,0,29.2.7a2.441,2.441,0,0,0-.434.658,1.836,1.836,0,0,0-.158.73V13.159a1.546,1.546,0,0,0,.217.783,2.849,2.849,0,0,0,.54.658,3.046,3.046,0,0,0,.7.467,1.632,1.632,0,0,0,.658.178h4.606l3.237-3.29a.947.947,0,0,1-.612.2H31.73a.994.994,0,0,1-.73-.3.941.941,0,0,1-.3-.671,1.033,1.033,0,0,1,1.033-1.026h6.257a1.013,1.013,0,0,1,.743.3.974.974,0,0,1,.309.724.954.954,0,0,1-.184.566l2.29-2.309V4.06Zm0,3.77a1.053,1.053,0,0,1-.743.29H31.73A1.013,1.013,0,0,1,31,7.83a.954.954,0,0,1-.3-.717.98.98,0,0,1,.3-.724.994.994,0,0,1,.73-.3h6.257a1.033,1.033,0,0,1,.743.3.974.974,0,0,1,.309.724.961.961,0,0,1-.309.717Z" transform="translate(0 0)"/>
      <path id="路径_1807" data-name="路径 1807" class="cls-2" d="M583.517,620.548a1.057,1.057,0,0,0-.362-.757,1.171,1.171,0,0,0-.355-.283.9.9,0,0,0-.388-.105.527.527,0,0,0-.428.151l-.211.178a2.631,2.631,0,0,1-.224.2l1.415,1.369a.783.783,0,0,0,.118-.1l.118-.125.151-.151A.48.48,0,0,0,583.517,620.548Zm-4.152,1.507-.6.592-.553.546-.414.408-.217.21a1.239,1.239,0,0,0-.27.369,2.557,2.557,0,0,0-.092.25l-.125.382-.118.395c-.033.132-.053.23-.066.29a.348.348,0,0,0,.033.276c.046.053.132.072.27.053a3.03,3.03,0,0,0,.3-.072,3.638,3.638,0,0,0,.421-.112c.145-.039.283-.092.428-.138l.349-.158.2-.118.184-.138.178-.178.388-.388.553-.539.6-.586,1.619-1.573-1.4-1.369Z" transform="translate(-539.568 -609.554)"/>
    </g>
  </g>
</svg>
