<svg xmlns="http://www.w3.org/2000/svg" width="16" height="16" viewBox="0 0 16 16">
  <defs>
    <style>
      .cls-1 {
        fill: none;
      }

      .cls-2 {
        fill: #fff;
      }
    </style>
  </defs>
  <g id="组_578" data-name="组 578" transform="translate(-149 -234)">
    <rect id="矩形_639" data-name="矩形 639" class="cls-1" width="16" height="16" transform="translate(149 234)"/>
    <g id="组_577" data-name="组 577" transform="translate(16.088 117.437)">
      <path id="路径_1184" data-name="路径 1184" class="cls-2" d="M141.49,128.895l2.87,1.509a.4.4,0,0,0,.575-.418l-.549-3.195a1.189,1.189,0,0,1,.342-1.053l2.321-2.263a.4.4,0,0,0-.22-.676l-3.208-.466a1.189,1.189,0,0,1-.9-.65l-1.434-2.907a.4.4,0,0,0-.71,0l-1.435,2.907a1.189,1.189,0,0,1-.9.65l-3.208.466a.4.4,0,0,0-.22.676l2.321,2.263a1.189,1.189,0,0,1,.342,1.053l-.549,3.195a.4.4,0,0,0,.576.418l2.869-1.509A1.189,1.189,0,0,1,141.49,128.895Zm-3.607,2.21a1.189,1.189,0,0,1-1.725-1.253l.548-3.195a.4.4,0,0,0-.114-.351l-2.321-2.263a1.189,1.189,0,0,1,.66-2.028l3.208-.466a.4.4,0,0,0,.3-.217l1.435-2.906a1.189,1.189,0,0,1,2.133,0l1.435,2.906a.4.4,0,0,0,.3.217l3.208.466a1.189,1.189,0,0,1,.66,2.028l-2.321,2.263a.4.4,0,0,0-.114.351l.548,3.195a1.189,1.189,0,0,1-1.725,1.253l-2.87-1.508a.4.4,0,0,0-.369,0Z" transform="translate(0 0)"/>
      <path id="路径_1185" data-name="路径 1185" class="cls-2" d="M426.667,576h3.171v.793h-3.171Z" transform="translate(-287.316 -449.723)"/>
    </g>
  </g>
</svg>
