<svg xmlns="http://www.w3.org/2000/svg" width="17.852" height="16.542" viewBox="0 0 17.852 16.542">
  <defs>
    <style>
      .cls-1 {
        fill: #15b973;
      }
    </style>
  </defs>
  <g id="组_1308" data-name="组 1308" transform="translate(-77.312 -114.347)">
    <path id="路径_1829" data-name="路径 1829" class="cls-1" d="M317.678,349.913h-6.871a.535.535,0,1,1,0-1.07h6.871a.53.53,0,0,1,.535.535A.537.537,0,0,1,317.678,349.913Zm0,2.194h-6.871a.535.535,0,0,1,0-1.07h6.871a.53.53,0,0,1,.535.535A.544.544,0,0,1,317.678,352.107Zm0,2.183h-6.871a.535.535,0,1,1,0-1.07h6.871a.53.53,0,0,1,.535.535A.537.537,0,0,1,317.678,354.291Z" transform="translate(-228.09 -229.45)"/>
    <path id="路径_1830" data-name="路径 1830" class="cls-1" d="M93.633,130.889c-.953,0-2.483-.011-3.971-.022-1.381-.011-2.676-.011-3.425-.011-4.923,0-8.926-3.7-8.926-8.249s4-8.26,8.926-8.26,8.926,3.7,8.926,8.249a32.093,32.093,0,0,1-.91,5.074.72.72,0,0,0,.032.426v.011L95,129.961a.7.7,0,0,1-.054.6.668.668,0,0,1-.557.306A7,7,0,0,1,93.633,130.889Zm-7.4-15.451c-4.334,0-7.856,3.219-7.856,7.169s3.521,7.158,7.856,7.158c.749,0,2.055.011,3.425.011,1.584.011,3.2.022,4.12.022l-.492-1.277a1.846,1.846,0,0,1-.086-1.1,30.426,30.426,0,0,0,.878-4.823C94.094,118.657,90.572,115.438,86.238,115.438Z" transform="translate(0 0)"/>
  </g>
</svg>
