<svg xmlns="http://www.w3.org/2000/svg" width="18" height="18" viewBox="0 0 18 18">
  <defs>
    <style>
      .cls-1 {
        fill: none;
      }

      .cls-2 {
        fill: #ffa61d;
      }

      .cls-3 {
        fill: #ff701d;
      }
    </style>
  </defs>
  <g id="组_709" data-name="组 709" transform="translate(971 -6362)">
    <rect id="矩形_868" data-name="矩形 868" class="cls-1" width="18" height="18" transform="translate(-971 6362)"/>
    <g id="组_708" data-name="组 708" transform="translate(0 0.009)">
      <path id="路径_1808" data-name="路径 1808" class="cls-2" d="M76.113,7.258v7.907a1.515,1.515,0,0,1-1.489,1.546H63.633a1.518,1.518,0,0,1-1.489-1.544V2.376A1.519,1.519,0,0,1,63.628.832h6.308V6.247a.994.994,0,0,0,.971,1.011ZM70.907,6.247ZM64.6,7.258h3.233a.5.5,0,0,0,0-1.009H64.6a.505.505,0,0,0,0,1.009Zm0,3.364h9.054a.5.5,0,0,0,0-1.009H64.6a.505.505,0,0,0,0,1.009Z" transform="translate(-1031.144 6362.159)"/>
      <path id="路径_1820" data-name="路径 1820" class="cls-3" d="M80.1,6.386,75.161,1.251V6.384s0,0,0,0Z" transform="translate(-1035.399 6362.022)"/>
    </g>
  </g>
</svg>
