<svg xmlns="http://www.w3.org/2000/svg" xmlns:xlink="http://www.w3.org/1999/xlink" width="50.803" height="47.011" viewBox="0 0 50.803 47.011">
  <defs>
    <style>
      .cls-1 {
        fill: url(#linear-gradient);
      }

      .cls-2 {
        filter: url(#联合_20);
      }
    </style>
    <linearGradient id="linear-gradient" x1="0.188" x2="0.733" y2="1" gradientUnits="objectBoundingBox">
      <stop offset="0" stop-color="#fff"/>
      <stop offset="1" stop-color="#fff" stop-opacity="0.502"/>
    </linearGradient>
    <filter id="联合_20" x="0" y="0" width="50.803" height="47.011" filterUnits="userSpaceOnUse">
      <feOffset dy="3" input="SourceAlpha"/>
      <feGaussianBlur stdDeviation="3" result="blur"/>
      <feFlood flood-color="#d6451e" flood-opacity="0.812"/>
      <feComposite operator="in" in2="blur"/>
      <feComposite in="SourceGraphic"/>
    </filter>
  </defs>
  <g id="组_1301" data-name="组 1301" transform="translate(9 6)">
    <g class="cls-2" transform="matrix(1, 0, 0, 1, -9, -6)">
      <path id="联合_20-2" data-name="联合 20" class="cls-1" d="M15.98,28.991A4.159,4.159,0,0,1,13.612,27.8l-8.1-8.123A16.172,16.172,0,0,1,2.94,16.31a15.648,15.648,0,0,0-1.1-1.652c-.119-.159-.258-.319-.4-.478C.611,13.164.094,12.507.054,11.83a.241.241,0,0,0-.021-.119A3.669,3.669,0,0,1,1.268,8.426l6.47-6.47C9.192.5,10.9,1.338,12.038,1.915l.179.08c.179.079.379.179.558.278a20.7,20.7,0,0,1,3.057,1.721L18.887.94c1.393-1.393,3.245-1.234,4.937.458L31.29,8.863c1.812,1.812,2.011,3.883.517,5.376l-3.53,3.53a3.813,3.813,0,0,1-.074.591,4.388,4.388,0,0,1-1.015,2.05c-.219.22-1.473,1.314-3.663,3.245-2.13,1.872-4.778,4.2-5.156,4.579a2.671,2.671,0,0,1-1.951.777A3.108,3.108,0,0,1,15.98,28.991ZM9.132,3.388,2.7,9.859a1.688,1.688,0,0,0-.657,1.633.18.18,0,0,0,.02.1,8.367,8.367,0,0,0,.956,1.274c.139.179.3.358.418.517a16.213,16.213,0,0,1,1.255,1.871A13.22,13.22,0,0,0,6.942,18.24l8.1,8.1a2.168,2.168,0,0,0,1.194.617.918.918,0,0,0,.7-.14c.161-.161.589-.55,1.229-1.121l-2.98-2.98a1.013,1.013,0,0,1,1.433-1.433l3.066,3.066L21.1,23.1l-3.15-3.15a1.014,1.014,0,1,1,1.434-1.434l3.242,3.242,1.2-1.052L20.5,17.384a1.013,1.013,0,1,1,1.433-1.434l3.412,3.412c.219-.2.366-.335.411-.385.021-.02,1.056-1.354.1-2.309L18.973,9.785c-.5.5-1.041,1.025-1.519,1.448-1.792,1.572-4.619,1.194-6.59-.877a1,1,0,0,1,.02-1.413l3.487-3.487a20.108,20.108,0,0,0-2.492-1.35c-.2-.1-.4-.2-.6-.279l-.179-.1a4.067,4.067,0,0,0-1.492-.558A.636.636,0,0,0,9.132,3.388ZM27.289,15.234a3.58,3.58,0,0,1,.307.35l2.779-2.779c.816-.816.179-1.812-.518-2.508L22.391,2.831a2.46,2.46,0,0,0-1.254-.8.892.892,0,0,0-.8.338L13.114,9.6a2.513,2.513,0,0,0,3.006.1c1.294-1.134,3.146-3.145,3.165-3.165a1.015,1.015,0,0,1,1.493,1.374c-.021.021-.167.178-.4.42Z" transform="translate(9 6)"/>
    </g>
  </g>
</svg>
