<svg xmlns="http://www.w3.org/2000/svg" xmlns:xlink="http://www.w3.org/1999/xlink" width="31.105" height="21.514" viewBox="0 0 31.105 21.514">
  <defs>
    <style>
      .cls-1 {
        fill: url(#linear-gradient);
      }
    </style>
    <linearGradient id="linear-gradient" x1="0.168" y1="0.399" x2="0.86" y2="1.079" gradientUnits="objectBoundingBox">
      <stop offset="0" stop-color="#ffcc03"/>
      <stop offset="1" stop-color="#ffa61d"/>
    </linearGradient>
  </defs>
  <path id="路径_1198" data-name="路径 1198" class="cls-1" d="M63.882,205.957a6.64,6.64,0,0,0-2.152-1.438,6.5,6.5,0,0,0-2.529-.507l-4.12-5.424a3.24,3.24,0,0,0,.66.067,2.212,2.212,0,0,0,.249-.01.7.7,0,0,0,.65-.7v-3.539a.7.7,0,0,0-.65-.7c-.092-.006-.172-.01-.249-.01a3.129,3.129,0,0,0-1.967.67H50.853a.7.7,0,0,0-.7.7v.526l-.826-.826a.713.713,0,0,0-.5-.2H46.855a.7.7,0,1,0,0,1.4h1.684l1.652,1.652,1.626,5.268-1.094,5.427a.012.012,0,0,0,0,.01.666.666,0,0,1-.654.542H47.4a.653.653,0,0,1-.51-.239.646.646,0,0,1-.143-.542l.957-4.722a1.445,1.445,0,0,0,.727-1.253v-.883a1.445,1.445,0,0,0-1.444-1.444h-6.32a2.33,2.33,0,0,0-2.328,2.328,1.458,1.458,0,0,0,.073.459,6.652,6.652,0,0,0-3.456,2.05A10.3,10.3,0,0,0,33,209.845a.7.7,0,0,0,.692.819h1.371a4.653,4.653,0,0,0,8.587,2.372h9.805a.706.706,0,0,0,.7-.7V212.1a.638.638,0,0,0-.022-.172,5.319,5.319,0,0,1-.159-1.288,5.225,5.225,0,0,1,8.923-3.689.7.7,0,0,0,.992-.992Zm-4.687-.051a4.652,4.652,0,1,0,4.652,4.652,4.652,4.652,0,0,0-4.652-4.652Z" transform="translate(-32.988 -193.696)"/>
</svg>
