<svg xmlns="http://www.w3.org/2000/svg" xmlns:xlink="http://www.w3.org/1999/xlink" width="21.891" height="22.263" viewBox="0 0 21.891 22.263">
  <defs>
    <style>
      .cls-1 {
        fill: url(#linear-gradient);
      }
    </style>
    <linearGradient id="linear-gradient" x1="0.375" x2="0.89" y2="0.895" gradientUnits="objectBoundingBox">
      <stop offset="0" stop-color="#9ec7ff"/>
      <stop offset="1" stop-color="#428ff6"/>
    </linearGradient>
  </defs>
  <path id="路径_2774" data-name="路径 2774" class="cls-1" d="M29.372,1.218A1.826,1.826,0,0,1,31.739,3.4q-1.751,8.836-3.5,17.674a6.477,6.477,0,0,1-.181.79,1.824,1.824,0,0,1-2.352,1.09,4.141,4.141,0,0,1-.709-.4l-3.316-2.1q-1.632,1.378-3.265,2.756a.68.68,0,0,1-.63.148.673.673,0,0,1-.437-.492,2.019,2.019,0,0,1-.026-.494c0-1.924,0-3.847,0-5.771q4.663-4.9,9.325-9.808a4.854,4.854,0,0,0,.49-.6.539.539,0,0,0,.1-.226c0-.065-.084-.045-.124-.031a2.367,2.367,0,0,0-.515.314c-.3.228-.589.465-.884.7L14.446,15.875q-1.8-1.136-3.6-2.273a1.829,1.829,0,0,1,.267-3.323L28.976,1.4a3.266,3.266,0,0,1,.4-.181Z" transform="translate(-9.904 -1.117)"/>
</svg>
