<svg xmlns="http://www.w3.org/2000/svg" width="18" height="18" viewBox="0 0 18 18">
  <defs>
    <style>
      .cls-1 {
        fill: none;
      }

      .cls-2 {
        fill: #15b973;
      }

      .cls-3 {
        fill: #2ed28c;
      }
    </style>
  </defs>
  <g id="组_711" data-name="组 711" transform="translate(971 -6400)">
    <rect id="矩形_868" data-name="矩形 868" class="cls-1" width="18" height="18" transform="translate(-971 6400)"/>
    <g id="组_710" data-name="组 710" transform="translate(0 -0.701)">
      <path id="路径_1821" data-name="路径 1821" class="cls-2" d="M2.347,9.122h0a.48.48,0,0,0,.227-.038h.038a.139.139,0,0,0,.114-.038c.151-.038.265-.076.416-.114h0v3.861H13.55V8.932h0c.151.038.265.076.416.114a.139.139,0,0,1,.114.038h.038c.076,0,.151.038.227.038h.265a2.5,2.5,0,0,0,.53-.038v5.261a.8.8,0,0,1-.795.795h-12a.8.8,0,0,1-.795-.795V9.084a2.328,2.328,0,0,0,.53.038Zm0,0" transform="translate(-970 6401.701)"/>
      <path id="路径_1822" data-name="路径 1822" class="cls-3" d="M16.654,6.283a2.082,2.082,0,1,1-4.163,0h0a2.082,2.082,0,1,1-4.163,0h0a2.082,2.082,0,1,1-4.163,0h0A2.1,2.1,0,0,1,2.082,8.365,2.1,2.1,0,0,1,0,6.283H0L1.476,2.347H15.215l1.438,3.936Z" transform="translate(-970 6401.701)"/>
      <path id="路径_1823" data-name="路径 1823" class="cls-2" d="M14.042,1.552H2.612A.8.8,0,0,1,1.817.757.768.768,0,0,1,2.612,0h11.43a.8.8,0,0,1,.795.795.768.768,0,0,1-.795.757Z" transform="translate(-970 6401.701)"/>
    </g>
  </g>
</svg>
