<svg xmlns="http://www.w3.org/2000/svg" xmlns:xlink="http://www.w3.org/1999/xlink" width="46.211" height="46.256" viewBox="0 0 46.211 46.256">
  <defs>
    <style>
      .cls-1 {
        fill: url(#linear-gradient);
      }

      .cls-2 {
        filter: url(#路径_2933);
      }
    </style>
    <linearGradient id="linear-gradient" x1="0.188" x2="0.733" y2="1" gradientUnits="objectBoundingBox">
      <stop offset="0" stop-color="#fff"/>
      <stop offset="1" stop-color="#fff" stop-opacity="0.502"/>
    </linearGradient>
    <filter id="路径_2933" x="0" y="0" width="46.211" height="46.256" filterUnits="userSpaceOnUse">
      <feOffset dy="3" input="SourceAlpha"/>
      <feGaussianBlur stdDeviation="3" result="blur"/>
      <feFlood flood-color="#d6451e" flood-opacity="0.812"/>
      <feComposite operator="in" in2="blur"/>
      <feComposite in="SourceGraphic"/>
    </filter>
  </defs>
  <g class="cls-2" transform="matrix(1, 0, 0, 1, 0, 0)">
    <path id="路径_2933-2" data-name="路径 2933" class="cls-1" d="M85.506,79.936A7.934,7.934,0,0,0,92.574,69.83a.88.88,0,0,0-1.472-.384L89.58,70.973a2.6,2.6,0,0,1-3.594,0,2.552,2.552,0,0,1,0-3.6l1.522-1.524a.88.88,0,0,0-.38-1.474,7.924,7.924,0,0,0-10.115,7.639,7.862,7.862,0,0,0,.109,1.272l-1.044.957-5.039-5.047a2.653,2.653,0,0,0-.513-3.012l-1.857-1.859a.88.88,0,0,0-1.246,0l-2.493,2.5a.882.882,0,0,0,0,1.25l1.857,1.857a2.625,2.625,0,0,0,3.008.517l4.981,4.991-8.556,7.841a5.293,5.293,0,1,0,7.506,7.464l6.016-6.586,7.121,7.131a3.528,3.528,0,0,0,4.987-4.993ZM69.281,68.679a.9.9,0,0,1-1.246,0L66.8,67.444,68.047,66.2l1.234,1.234A.887.887,0,0,1,69.281,68.679Zm3.176,20.839a3.6,3.6,0,0,1-4.987,0,3.534,3.534,0,0,1-.028-4.966l11.237-10.3.02-.026a.868.868,0,0,0,.155-.206l.04-.079.028-.081a.909.909,0,0,0,.04-.25l0-.083a.829.829,0,0,0-.012-.091l0-.034a6.163,6.163,0,0,1,6.091-7.573l-.293.293a4.322,4.322,0,0,0,0,6.1,4.3,4.3,0,0,0,6.087,0l.293-.293v.083a6.158,6.158,0,0,1-7.559,6.022l-.034-.006a.911.911,0,0,0-.264-.008.889.889,0,0,0-.168.036l-.069.022a.845.845,0,0,0-.087.044l-.065.036a.918.918,0,0,0-.137.115l-.026.02L72.456,89.52Zm18.148.519a1.8,1.8,0,0,1-2.493,0l-6.848-6.86,2.493-2.5,6.848,6.86a1.767,1.767,0,0,1,0,2.5ZM69.963,85.256a1.767,1.767,0,1,0,1.767,1.767A1.767,1.767,0,0,0,69.963,85.256Z" transform="translate(-55.67 -58.06)"/>
  </g>
</svg>
