<svg xmlns="http://www.w3.org/2000/svg" xmlns:xlink="http://www.w3.org/1999/xlink" width="18" height="18" viewBox="0 0 18 18">
  <defs>
    <style>
      .cls-1 {
        fill: none;
      }

      .cls-2 {
        fill: url(#linear-gradient);
      }
    </style>
    <linearGradient id="linear-gradient" y1="0.5" x2="1" y2="0.5" gradientUnits="objectBoundingBox">
      <stop offset="0" stop-color="#ff1656"/>
      <stop offset="1" stop-color="#fe6959"/>
    </linearGradient>
  </defs>
  <g id="组_644" data-name="组 644" transform="translate(-58 -129)">
    <rect id="矩形_731" data-name="矩形 731" class="cls-1" width="18" height="18" transform="translate(58 129)"/>
    <path id="路径_1536" data-name="路径 1536" class="cls-2" d="M213.7,71.1a5.784,5.784,0,0,0-5.8,5.77c0,3.187,5.8,10.1,5.8,10.1s5.8-6.912,5.8-10.1A5.784,5.784,0,0,0,213.7,71.1Zm0,8.291a2.523,2.523,0,1,1,2.535-2.523A2.529,2.529,0,0,1,213.7,79.391Zm0,0,2.564,5.262c-.157.217-.313.426-.462.623,1.547.178,2.61.545,2.61.97,0,.6-2.109,1.081-4.709,1.081s-4.711-.485-4.711-1.081c0-.426,1.062-.792,2.61-.97-.155-.207-.311-.414-.464-.623-1.71.3-2.872.9-2.872,1.591,0,.993,2.433,1.8,5.436,1.8s5.434-.809,5.434-1.8C219.133,85.554,217.971,84.958,216.262,84.653Zm0,0" transform="translate(-146.9 58.9)"/>
  </g>
</svg>
