<svg xmlns="http://www.w3.org/2000/svg" width="16" height="16" viewBox="0 0 16 16">
  <defs>
    <style>
      .cls-1 {
        fill: none;
      }

      .cls-2 {
        fill: #8f90a6;
      }
    </style>
  </defs>
  <g id="组_662" data-name="组 662" transform="translate(-437 -1101)">
    <rect id="矩形_746" data-name="矩形 746" class="cls-1" width="16" height="16" transform="translate(437 1101)"/>
    <path id="路径_1549" data-name="路径 1549" class="cls-2" d="M198.726,10.99c-.2-.609-.978-2.595-2.668-2.595a2.216,2.216,0,0,0-.883.19l-.432.238a.707.707,0,0,1-.091-.142l-.067-.111A7.572,7.572,0,0,1,193.494,5.5l.013,0,.516-.169a1.947,1.947,0,0,0,1.562-2.2l-.027-.1c0-.008-.316-.973-.545-1.758A1.748,1.748,0,0,0,193.224.007a3.6,3.6,0,0,0-.555.049l-.048.007a3.572,3.572,0,0,0-.976.291,3.348,3.348,0,0,0-1.624,2.552,12.626,12.626,0,0,0,.991,6.322,12.477,12.477,0,0,0,2.84,3.923A3.12,3.12,0,0,0,196,14.172a2.578,2.578,0,0,0,1.254-.343l.449-.266a2.084,2.084,0,0,0,1.021-2.573Zm-1.546,1.559-.476.28a1.458,1.458,0,0,1-.7.2h0a2.051,2.051,0,0,1-1.351-.695,11.393,11.393,0,0,1-2.589-3.557,11.558,11.558,0,0,1-.916-5.674,2.266,2.266,0,0,1,1.014-1.731l.016-.008a2.577,2.577,0,0,1,.587-.17l.061-.009.018,0a2.508,2.508,0,0,1,.383-.036c.508,0,.639.249.694.437.213.728.5,1.612.551,1.778.013.084.066.633-.766.866l-.541.177c-.388.12-.921.477-.829.975l0,.015a8.646,8.646,0,0,0,1.3,3.81l.007.011a1.217,1.217,0,0,0,1.085.764,1.125,1.125,0,0,0,.409-.077l.513-.282a1.072,1.072,0,0,1,.406-.086c.946,0,1.485,1.506,1.583,1.807a.948.948,0,0,1-.461,1.205Z" transform="translate(251.063 1101.993)"/>
  </g>
</svg>
