<svg xmlns="http://www.w3.org/2000/svg" width="18" height="18" viewBox="0 0 18 18">
  <defs>
    <style>
      .cls-1 {
        fill: none;
      }

      .cls-2 {
        fill: #ff6e6e;
      }

      .cls-3 {
        fill: #ffa2a2;
      }
    </style>
  </defs>
  <g id="组_713" data-name="组 713" transform="translate(971 -6476)">
    <rect id="矩形_868" data-name="矩形 868" class="cls-1" width="18" height="18" transform="translate(-971 6476)"/>
    <g id="组_706" data-name="组 706" transform="translate(-2.808 -2.144)">
      <path id="路径_1813" data-name="路径 1813" class="cls-2" d="M235.763,262.457a12.5,12.5,0,0,0-4.054,3.636.432.432,0,0,1-.581.133.42.42,0,0,1-.127-.59,11.925,11.925,0,0,1,2.268-2.548.329.329,0,0,0-.037-.533l-.152-.1c-2.449-1.554-7.391,0-6.669,5.208.607,4.367,3.91,6.717,6.08,7.809a4.6,4.6,0,0,0,1.935.508,4.362,4.362,0,0,0,1.9-.5,13.968,13.968,0,0,0,1.684-.993l-.705.378a.281.281,0,0,1-.451-.271v-.44a.256.256,0,0,0-.257-.257h-.254a.51.51,0,0,1-.511-.508v-4.085a.508.508,0,0,1,.511-.508h5.1a.51.51,0,0,1,.511.508v.277a9.477,9.477,0,0,0,.474-1.921C243.152,262.462,238.39,260.894,235.763,262.457Z" transform="translate(-1193.532 6218.265)"/>
      <path id="路径_1814" data-name="路径 1814" class="cls-3" d="M581.47,523.193h-4.277a.426.426,0,0,0-.429.426v3.425a.428.428,0,0,0,.429.426h.212a.215.215,0,0,1,.217.214v.37c0,.24.169.339.378.226l1.323-.708a1.038,1.038,0,0,1,.4-.1h1.749a.427.427,0,0,0,.426-.426v-3.425a.428.428,0,0,0-.429-.426Zm-1.622,2.9h-1.6a.214.214,0,1,1,0-.429h1.6a.214.214,0,0,1,0,.429Zm.536-1.284h-2.138a.214.214,0,1,1,0-.429h2.138a.214.214,0,1,1,0,.429Z" transform="translate(-1534.064 5964.327)"/>
    </g>
  </g>
</svg>
