<svg xmlns="http://www.w3.org/2000/svg" width="16" height="16" viewBox="0 0 16 16">
  <defs>
    <style>
      .cls-1 {
        fill: none;
      }

      .cls-2 {
        fill: #fff;
      }
    </style>
  </defs>
  <g id="组_576" data-name="组 576" transform="translate(-110 -174)">
    <rect id="矩形_638" data-name="矩形 638" class="cls-1" width="16" height="16" transform="translate(110 174)"/>
    <path id="路径_1183" data-name="路径 1183" class="cls-2" d="M137.8,66.094a11.991,11.991,0,0,1-1.486-.112A6.3,6.3,0,0,1,132.97,64.3a6.291,6.291,0,0,1-3.343,1.68,11.992,11.992,0,0,1-1.486.112,1.861,1.861,0,0,1-.842-.106l.018,6.816a6.022,6.022,0,0,0,2.643,3.458,8.293,8.293,0,0,0,3.011,1.237,8.293,8.293,0,0,0,3.011-1.237,6.018,6.018,0,0,0,2.643-3.458l.018-6.816A1.879,1.879,0,0,1,137.8,66.094Zm.088,6.606a5.485,5.485,0,0,1-.448,1.029,5.318,5.318,0,0,1-.713,1,4.463,4.463,0,0,1-1.108.893,12.555,12.555,0,0,1-2.052.968,4.08,4.08,0,0,1-.6.165,4.079,4.079,0,0,1-.6-.165,12.553,12.553,0,0,1-2.052-.968,4.517,4.517,0,0,1-1.091-.874,5.347,5.347,0,0,1-.709-.979,5.46,5.46,0,0,1-.47-1.069l-.015-5.869h.1a12.86,12.86,0,0,0,1.578-.118,6.793,6.793,0,0,0,3.25-1.434,6.793,6.793,0,0,0,3.25,1.434,12.859,12.859,0,0,0,1.578.118h.1ZM135.9,68.45l.522.522-3.855,3.855-.522.522-.522-.522-1.979-1.979.522-.522,1.979,1.981Z" transform="translate(-15.3 110.7)"/>
  </g>
</svg>
