<svg xmlns="http://www.w3.org/2000/svg" xmlns:xlink="http://www.w3.org/1999/xlink" width="24.639" height="22.116" viewBox="0 0 24.639 22.116">
  <defs>
    <style>
      .cls-1 {
        fill: url(#linear-gradient);
      }
    </style>
    <linearGradient id="linear-gradient" x1="0.898" y1="0.928" x2="0.081" gradientUnits="objectBoundingBox">
      <stop offset="0" stop-color="#ff4b7d"/>
      <stop offset="1" stop-color="#ffba50"/>
    </linearGradient>
  </defs>
  <path id="减去_15" data-name="减去 15" class="cls-1" d="M916.81-6003.884a2.272,2.272,0,0,1-2.277-2.263l0-4.74a.887.887,0,0,1,.888-.884,1.3,1.3,0,0,1,.189.022h.006l.052.019.054.02.023.008h.005a.24.24,0,0,1,.037.014,5.269,5.269,0,0,0,2.107.446,5.684,5.684,0,0,0,3.734-1.292,5.634,5.634,0,0,0,3.715,1.222,5.784,5.784,0,0,0,3.682-1.364,5.393,5.393,0,0,0,3.5,1.222c.061,0,.125,0,.191,0a5.663,5.663,0,0,0,1.944-.37.769.769,0,0,1,.258-.053.887.887,0,0,1,.888.884l0,4.826a2.278,2.278,0,0,1-2.272,2.267Zm1.08-8.706h0a4.816,4.816,0,0,1-2.3-.526A4.855,4.855,0,0,1,913-6017.41a4.914,4.914,0,0,1,.243-1.521c.008-.034.017-.065.026-.094l.009-.029,2.239-5.268a2.534,2.534,0,0,1,2.526-1.678H932.66a2.617,2.617,0,0,1,2.606,1.731l2.088,5.162a.788.788,0,0,1,.042.147.091.091,0,0,0,0,.018.117.117,0,0,1,0,.021,4.862,4.862,0,0,1,.239,1.5,4.868,4.868,0,0,1-2.545,4.274,4.889,4.889,0,0,1-2.334.55,4.873,4.873,0,0,1-3.739-1.725,4.864,4.864,0,0,1-3.692,1.729,4.894,4.894,0,0,1-3.71-1.725A4.893,4.893,0,0,1,917.89-6012.59Zm5.489-10.358a2.586,2.586,0,0,0-2.456,2.693,3.515,3.515,0,0,0,.689,1.963l.01.017a16.217,16.217,0,0,0,3.163,3.173l.02.016.011.009a.584.584,0,0,0,.379.134.584.584,0,0,0,.373-.134,16.891,16.891,0,0,0,3.194-3.2l.009-.016a3.483,3.483,0,0,0,.69-1.964,2.586,2.586,0,0,0-2.456-2.693,2.356,2.356,0,0,0-1.81.869A2.4,2.4,0,0,0,923.379-6022.948Z" transform="translate(-913 6026)"/>
</svg>
