<svg xmlns="http://www.w3.org/2000/svg" width="16" height="16" viewBox="0 0 16 16">
  <defs>
    <style>
      .cls-1 {
        fill: none;
      }

      .cls-2 {
        fill: #8f90a6;
      }
    </style>
  </defs>
  <g id="组_663" data-name="组 663" transform="translate(-445 -1080)">
    <rect id="矩形_745" data-name="矩形 745" class="cls-1" width="16" height="16" transform="translate(445 1080)"/>
    <path id="路径_1548" data-name="路径 1548" class="cls-2" d="M70.41,74.64a7.124,7.124,0,1,1,5.037-2.087A7.077,7.077,0,0,1,70.41,74.64Zm0-12.969a5.846,5.846,0,1,0,4.134,1.712A5.807,5.807,0,0,0,70.41,61.671Zm.008,6.764a.639.639,0,0,1-.639-.639V64.237a.639.639,0,1,1,1.278,0V67.8A.639.639,0,0,1,70.418,68.434Zm-1.895,2.034a.639.639,0,0,1-.452-1.091l1.895-1.9a.639.639,0,1,1,.9.9l-1.895,1.9A.637.637,0,0,1,68.523,70.468Z" transform="translate(382.714 1020.607)"/>
  </g>
</svg>
