<svg xmlns="http://www.w3.org/2000/svg" width="16" height="16" viewBox="0 0 16 16">
  <defs>
    <style>
      .cls-1, .cls-2 {
        fill: none;
      }

      .cls-3, .cls-4 {
        stroke: none;
      }

      .cls-4 {
        fill: #ff5c5c;
      }
    </style>
  </defs>
  <g id="组_657" data-name="组 657" transform="translate(-197 -234)">
    <rect id="矩形_738" data-name="矩形 738" class="cls-1" width="16" height="16" transform="translate(197 234)"/>
    <g id="路径_1541" data-name="路径 1541" class="cls-2" transform="translate(87.207 98.936)">
      <path class="cls-3" d="M118.8,138.412l1.207,2.445a.616.616,0,0,0,.465.339l2.7.391a.616.616,0,0,1,.342,1.053l-1.952,1.906a.616.616,0,0,0-.179.545l.459,2.682a.616.616,0,0,1-.9.65l-2.414-1.265a.616.616,0,0,0-.573,0l-2.414,1.269a.616.616,0,0,1-.9-.653l.462-2.688a.616.616,0,0,0-.179-.545l-1.952-1.9a.616.616,0,0,1,.339-1.053l2.7-.391a.616.616,0,0,0,.465-.339l1.21-2.445a.616.616,0,0,1,1.109,0Z"/>
      <path class="cls-4" d="M 118.2464218139648 138.8701324462891 L 117.1108474731445 141.1642608642578 C 116.9195175170898 141.5551147460938 116.5481338500977 141.8256530761719 116.1176223754883 141.8879241943359 L 113.5894165039063 142.2544403076172 L 115.4204635620117 144.0363464355469 C 115.7317962646484 144.3380584716797 115.8744583129883 144.7734069824219 115.8017959594727 145.2025451660156 L 115.367919921875 147.7276306152344 L 117.6346664428711 146.5364685058594 C 117.822624206543 146.437744140625 118.0341949462891 146.3855743408203 118.2465133666992 146.3855743408203 C 118.4587936401367 146.3855743408203 118.6703567504883 146.437744140625 118.8578872680664 146.5362091064453 L 121.1246795654297 147.7245330810547 L 120.6940078735352 145.2070159912109 C 120.6216278076172 144.7795257568359 120.7642974853516 144.3441772460938 121.0737762451172 144.0442962646484 L 122.906608581543 142.2549133300781 L 120.37255859375 141.8879547119141 C 119.9418182373047 141.8256530761719 119.5704345703125 141.5551147460938 119.380126953125 141.1663665771484 L 118.2464218139648 138.8701324462891 M 118.2465057373047 138.0643310546875 C 118.4825744628906 138.0643310546875 118.697868347168 138.1992645263672 118.8007659912109 138.4117279052734 L 120.0077972412109 140.8564758300781 C 120.097282409668 141.0392761230469 120.2713165283203 141.1660308837891 120.4727630615234 141.1951751708984 L 123.1731719970703 141.5862121582031 C 123.4063720703125 141.6190032958984 123.6004638671875 141.7819213867188 123.6731719970703 142.0059204101563 C 123.7458648681641 142.2299041748047 123.6844635009766 142.4757537841797 123.5149536132813 142.6392517089844 L 121.5627746582031 144.545166015625 C 121.4171142578125 144.6863250732422 121.3503265380859 144.8901672363281 121.3841857910156 145.0901489257813 L 121.8429718017578 147.7720031738281 C 121.8835220336914 148.0038299560547 121.7883987426758 148.2384948730469 121.5978546142578 148.3766632080078 C 121.4906463623047 148.4543914794922 121.3637466430664 148.4939270019531 121.2362899780273 148.4939270019531 C 121.1371994018555 148.4939270019531 121.0377883911133 148.4700622558594 120.9469223022461 148.4216766357422 L 118.5328826904297 147.1561889648438 C 118.443229675293 147.1091156005859 118.3448715209961 147.0855712890625 118.2465133666992 147.0855712890625 C 118.1481552124023 147.0855712890625 118.0497970581055 147.1091156005859 117.9601516723633 147.1561889648438 L 115.5460968017578 148.4247589111328 C 115.4550628662109 148.4733428955078 115.3554000854492 148.4973297119141 115.256103515625 148.4973297119141 C 115.1281890869141 148.4973297119141 115.0008850097656 148.45751953125 114.8934326171875 148.3792572021484 C 114.7026062011719 148.240234375 114.6080474853516 148.0043487548828 114.650032043457 147.7720031738281 L 115.1119079589844 145.0840148925781 C 115.1457672119141 144.8840179443359 115.078971862793 144.6801910400391 114.9333190917969 144.5390319824219 L 112.9811325073242 142.6392517089844 C 112.8117828369141 142.4761810302734 112.7500457763672 142.2309112548828 112.8220291137695 142.0070953369141 C 112.8940124511719 141.7832794189453 113.087158203125 141.6199798583984 113.3198318481445 141.5862121582031 L 116.0171966552734 141.1951751708984 C 116.2186279296875 141.1660308837891 116.3926544189453 141.0392761230469 116.4821472167969 140.8564758300781 L 117.692268371582 138.4117279052734 C 117.795166015625 138.1992645263672 118.0104522705078 138.0643310546875 118.2465057373047 138.0643310546875 Z"/>
    </g>
  </g>
</svg>
