<svg xmlns="http://www.w3.org/2000/svg" xmlns:xlink="http://www.w3.org/1999/xlink" width="21.47" height="21.469" viewBox="0 0 21.47 21.469">
  <defs>
    <style>
      .cls-1 {
        fill: url(#linear-gradient);
      }
    </style>
    <linearGradient id="linear-gradient" x1="-0.137" y1="-0.285" x2="0.6" y2="0.565" gradientUnits="objectBoundingBox">
      <stop offset="0" stop-color="#fff"/>
      <stop offset="1" stop-color="#fff" stop-opacity="0.502"/>
    </linearGradient>
  </defs>
  <path id="路径_2771" data-name="路径 2771" class="cls-1" d="M43.656,63.427c0,.562.163.716.673.716h8.082V53.4H43.656Zm10.735.716h8.082c.511,0,.673-.153.673-.716V53.4H54.39V64.144Zm8.769-16.59H58.281c1.178-.268,2.422-1.137,2.575-2.157a2.7,2.7,0,0,0-2.874-2.7c-2,.277-3.465,2.042-4.5,3.41-1.027-1.342-2.365-2.909-4.281-3.365-1.856-.439-3.128,1.485-3.094,2.676.033,1.012,1.2,1.872,2.414,2.139H43.643a.889.889,0,0,0-.976.976v3.9l9.759,0V47.554h1.952v4.879l9.759,0v-3.9A.889.889,0,0,0,63.16,47.554Zm-15.714-1.78c-.338-.376-.109-.886.1-1.272a1.331,1.331,0,0,1,1.856-.708,7.869,7.869,0,0,1,3.01,2.694C50.778,46.669,48.337,46.74,47.447,45.774Zm7.12.7a9.023,9.023,0,0,1,3-2.694c1.34-.663,2.585,1.128,1.949,1.988-.49.653-2.042.714-2.88.751A14.5,14.5,0,0,1,54.567,46.471Z" transform="translate(-42.667 -42.674)"/>
</svg>
