<svg xmlns="http://www.w3.org/2000/svg" xmlns:xlink="http://www.w3.org/1999/xlink" width="165.446" height="16.725" viewBox="0 0 165.446 16.725">
  <defs>
    <style>
      .cls-1 {
        fill: url(#linear-gradient);
      }

      .cls-2 {
        filter: url(#交叉_3);
      }
    </style>
    <linearGradient id="linear-gradient" x1="0.421" y1="0.251" x2="0.419" y2="1.78" gradientUnits="objectBoundingBox">
      <stop offset="0" stop-color="#fef6ea"/>
      <stop offset="1" stop-color="#fb0"/>
    </linearGradient>
    <filter id="交叉_3" x="0" y="0" width="165.446" height="16.725" filterUnits="userSpaceOnUse">
      <feOffset dy="1" input="SourceAlpha"/>
      <feGaussianBlur result="blur"/>
      <feFlood flood-opacity="0.129"/>
      <feComposite operator="in" in2="blur"/>
      <feComposite in="SourceGraphic"/>
    </filter>
  </defs>
  <g id="口号" transform="translate(-19.935 -50.618)">
    <g class="cls-2" transform="matrix(1, 0, 0, 1, 19.93, 50.62)">
      <path id="交叉_3-2" data-name="交叉 3" class="cls-1" d="M129.831,16.088a.817.817,0,0,1-.256-.6V14.031a.3.3,0,0,0-.339-.34h-3.792a.87.87,0,0,1-.85-.85.833.833,0,0,1,.255-.612.807.807,0,0,1,.595-.238h.51a.55.55,0,0,0,.459-.22l1.122-1.377a.1.1,0,0,0,.017-.119.092.092,0,0,0-.1-.068h-.136a1.88,1.88,0,0,1-1.377-.578,1.846,1.846,0,0,1-.578-1.377V4.239a1.88,1.88,0,0,1,.578-1.377,1.88,1.88,0,0,1,1.377-.578h.392a.3.3,0,0,0,.339-.34V1.672a.827.827,0,0,1,.273-.629.884.884,0,0,1,1.513.629v.272a.3.3,0,0,0,.339.34h1.394a1.88,1.88,0,0,1,1.377.578,1.881,1.881,0,0,1,.579,1.377V8.251a1.847,1.847,0,0,1-.579,1.377,1.88,1.88,0,0,1-1.377.578h-1.377a1.066,1.066,0,0,0-.306.068.622.622,0,0,0-.22.186l-1.105,1.36c-.045.091-.017.148.085.17h.6a.3.3,0,0,0,.339-.339v-.2a.815.815,0,0,1,.256-.595.779.779,0,0,1,.595-.256.872.872,0,0,1,.85.851v.2a.3.3,0,0,0,.34.339H133.5a.842.842,0,0,1,.595.238.833.833,0,0,1,.255.612.779.779,0,0,1-.255.595.815.815,0,0,1-.595.255h-1.887a.3.3,0,0,0-.34.34v1.462a.87.87,0,0,1-.85.85A.781.781,0,0,1,129.831,16.088Zm.459-8.671v.748a.3.3,0,0,0,.339.34h.935a.226.226,0,0,0,.256-.255V7.435a.3.3,0,0,0-.34-.34h-.9Q130.29,7.095,130.29,7.418Zm-3.23.017v.816a.225.225,0,0,0,.255.255h.935a.3.3,0,0,0,.34-.34V7.435a.3.3,0,0,0-.34-.34h-.85A.3.3,0,0,0,127.06,7.435Zm3.23-3.111v.732a.3.3,0,0,0,.339.339h.85a.3.3,0,0,0,.34-.339V4.239a.226.226,0,0,0-.256-.255h-.935A.3.3,0,0,0,130.29,4.324Zm-3.23-.085v.816a.3.3,0,0,0,.34.339h.85a.3.3,0,0,0,.34-.339V4.324a.3.3,0,0,0-.34-.339h-.935A.225.225,0,0,0,127.06,4.239Zm-71.451,12-8.432-2.635a.838.838,0,0,1-.51-.409.847.847,0,0,1-.05-.645.834.834,0,0,1,.408-.51.854.854,0,0,1,.646-.051l4.59,1.428a.326.326,0,0,0,.391-.136L54.47,10.7c.057-.079.04-.119-.05-.119H48.2a1.328,1.328,0,0,1-1.274-1.667l.255-.951q.067-.255-.187-.256H44.457a.872.872,0,0,1-.851-.85.815.815,0,0,1,.256-.595.779.779,0,0,1,.595-.256h2.974a.289.289,0,0,0,.323-.238l.238-.918q.068-.238-.187-.238H45.494a.779.779,0,0,1-.595-.256.815.815,0,0,1-.256-.595.836.836,0,0,1,.256-.612.807.807,0,0,1,.595-.238h2.754a.294.294,0,0,0,.323-.256L48.894,1.4a.835.835,0,0,1,.391-.527.857.857,0,0,1,.646-.085.831.831,0,0,1,.526.391.858.858,0,0,1,.086.646l-.221.832q-.067.255.187.256h6.562a.815.815,0,0,1,.851.85.843.843,0,0,1-.851.85h-7a.321.321,0,0,0-.323.238l-.238.918c-.023.158.045.238.2.238h8.449a.874.874,0,0,1,.851.85.78.78,0,0,1-.256.595.815.815,0,0,1-.595.255H49.251a.284.284,0,0,0-.306.256l-.221.815c-.012.068.017.1.085.1h6.562a1.175,1.175,0,0,1,1.105.662,1.26,1.26,0,0,1-.051,1.36L54.351,13.81c-.1.148-.068.244.1.29l1.65.509a.839.839,0,0,1,.509.409.9.9,0,0,1,.051.662.754.754,0,0,1-.8.595A1.429,1.429,0,0,1,55.609,16.241ZM145,15.986a.779.779,0,0,1-.256-.595V11.685a.348.348,0,0,0-.34-.339h-5.644a.872.872,0,0,1-.85-.85.835.835,0,0,1,.255-.612.845.845,0,0,1,.595-.238H144.4a.349.349,0,0,0,.34-.34V3.593a.349.349,0,0,0-.34-.34h-4.811A.815.815,0,0,1,138.994,3a.78.78,0,0,1-.256-.595.815.815,0,0,1,.256-.595.815.815,0,0,1,.595-.255h12a.816.816,0,0,1,.6.255.818.818,0,0,1,.255.595.783.783,0,0,1-.255.595.816.816,0,0,1-.6.255H146.78a.349.349,0,0,0-.34.34V9.305a.349.349,0,0,0,.34.34h5.644a.845.845,0,0,1,.595.238.835.835,0,0,1,.255.612.872.872,0,0,1-.85.85H146.78a.348.348,0,0,0-.34.339v3.706a.807.807,0,0,1-.238.595.836.836,0,0,1-.612.256A.779.779,0,0,1,145,15.986Zm-114.8.085a.874.874,0,0,1-.851-.851.836.836,0,0,1,.256-.612.845.845,0,0,1,.595-.238h1.717a.523.523,0,0,0,.509-.51V13.3a.166.166,0,0,0-.085-.153.162.162,0,0,0-.17-.034L26.131,15.17a.89.89,0,0,1-.272.05.8.8,0,0,1-.815-.578.9.9,0,0,1,.05-.663.91.91,0,0,1,.493-.425l6.562-2.227a.426.426,0,0,0,.187-.136.389.389,0,0,0,.085-.221V10.8a.244.244,0,0,0-.085-.17.176.176,0,0,0-.17-.017L26.42,12.552a.9.9,0,0,1-.273.05.777.777,0,0,1-.815-.578.759.759,0,0,1,.05-.646.771.771,0,0,1,.493-.425L31.622,9a.205.205,0,0,0,.153-.136.258.258,0,0,0,0-.221l-.068-.136a.257.257,0,0,0-.136-.119.207.207,0,0,0-.187-.017L26.726,10a.685.685,0,0,1-.273.051.767.767,0,0,1-.8-.578.8.8,0,0,1,.033-.646.772.772,0,0,1,.476-.425L30.67,6.84a.111.111,0,0,0,.085-.136c0-.068-.045-.1-.136-.1h-2.38a.779.779,0,0,1-.595-.256.815.815,0,0,1-.256-.595.836.836,0,0,1,.256-.612.807.807,0,0,1,.595-.238h8.415a.814.814,0,0,1,.85.85.845.845,0,0,1-.238.595.836.836,0,0,1-.612.256H34.869a1.523,1.523,0,0,0-.476.067,1.4,1.4,0,0,0-.459.2l-.645.408a.3.3,0,0,0-.085.459,4.6,4.6,0,0,1,.493.969l.153.408c.057.2.2.255.425.153l3.316-1.632a.8.8,0,0,1,.645-.034.769.769,0,0,1,.493.425.806.806,0,0,1,.034.646.771.771,0,0,1-.425.493L36.824,9.9a.362.362,0,0,0-.12.17.178.178,0,0,0,.034.2l2.687,3.944a.814.814,0,0,1,.136.646.852.852,0,0,1-.357.544.835.835,0,0,1-.476.136.783.783,0,0,1-.7-.357l-2.84-4.147A.3.3,0,0,0,35,10.9a.257.257,0,0,0-.238.017l-.357.17a.777.777,0,0,0-.221.2.533.533,0,0,0-.068.272v2.3a2.206,2.206,0,0,1-2.209,2.21Zm130.594-.34a2.031,2.031,0,0,1-2.022-2.023v-2.89a2.031,2.031,0,0,1,2.022-2.023H168.1a2.031,2.031,0,0,1,2.022,2.023v2.89a2.031,2.031,0,0,1-2.022,2.023Zm-.323-4.913v2.89a.286.286,0,0,0,.323.323H168.1a.285.285,0,0,0,.322-.323v-2.89a.285.285,0,0,0-.322-.323h-7.311A.286.286,0,0,0,160.465,10.818ZM90.833,15.646a.87.87,0,0,1-.851-.85.838.838,0,0,1,.255-.612.81.81,0,0,1,.6-.238h2.957a.5.5,0,0,0,.392-.17.538.538,0,0,0,.17-.392V5.31a.34.34,0,0,0-.12-.272.375.375,0,0,0-.272-.119h-3.4a1.3,1.3,0,0,1-1.138-.6,1.325,1.325,0,0,1-.187-1.274l.68-1.7a.831.831,0,0,1,.442-.476.8.8,0,0,1,.645,0,.826.826,0,0,1,.476.442.756.756,0,0,1,.017.646l-.425,1.071c-.045.124-.005.187.119.187h2.771A2.089,2.089,0,0,1,96.052,5.31v8.075a2.262,2.262,0,0,1-2.261,2.261Zm-27.574-.255a.778.778,0,0,1-.595-.255.815.815,0,0,1-.256-.595.834.834,0,0,1,.256-.612.8.8,0,0,1,.595-.238h3.6a.508.508,0,0,0,.374-.153.562.562,0,0,0,.136-.356V1.655a.815.815,0,0,1,.255-.595A.815.815,0,0,1,68.223.8a.843.843,0,0,1,.851.85V13.181a.523.523,0,0,0,.509.509h1a.523.523,0,0,0,.51-.509V1.655a.814.814,0,0,1,.255-.595A.78.78,0,0,1,71.946.8a.836.836,0,0,1,.612.256.845.845,0,0,1,.238.595V13.181a.523.523,0,0,0,.51.509h3.655a.843.843,0,0,1,.851.851.872.872,0,0,1-.851.85Zm58.633-.357a1.8,1.8,0,0,1-1.786-1.785V9.866c0-.091-.05-.136-.153-.136a.772.772,0,0,1-.356-.017.834.834,0,0,1-.51-.408.806.806,0,0,1-.068-.646l1.463-5.134a.257.257,0,0,0-.051-.238.23.23,0,0,0-.2-.1h-.391a.783.783,0,0,1-.595-.255.781.781,0,0,1-.255-.6.835.835,0,0,1,.255-.612.808.808,0,0,1,.595-.238h3.91a.864.864,0,0,1,.612.238.864.864,0,0,1,.238.612.807.807,0,0,1-.238.6.835.835,0,0,1-.612.255h-1.054a.536.536,0,0,0-.289.085.482.482,0,0,0-.153.256l-.408,1.444c-.034.113,0,.17.1.17h.442a1.8,1.8,0,0,1,1.8,1.8v6.307a1.718,1.718,0,0,1-.527,1.258,1.738,1.738,0,0,1-1.275.527Zm-.1-7.871v5.848a.3.3,0,0,0,.34.339h.034a.3.3,0,0,0,.34-.339V7.163a.3.3,0,0,0-.34-.34h-.034A.3.3,0,0,0,121.79,7.163ZM84.067,15.034a2.031,2.031,0,0,1-2.023-2.022V5.174a1.924,1.924,0,0,1,.493-1.309,2.014,2.014,0,0,1,1.19-.7q.34-.051.391-.272l.34-1.327a.776.776,0,0,1,.392-.509.92.92,0,0,1,.645-.1.829.829,0,0,1,.51.391.813.813,0,0,1,.1.646l-.238.918q-.085.238.17.238H86.4a1.91,1.91,0,0,1,1.427.595,1.911,1.911,0,0,1,.595,1.428v7.837a1.944,1.944,0,0,1-.595,1.427,1.91,1.91,0,0,1-1.427.595Zm-.221-5a.329.329,0,0,0-.1.239v2.737a.286.286,0,0,0,.323.323H86.4a.285.285,0,0,0,.322-.323V10.274a.348.348,0,0,0-.339-.34H84.084A.329.329,0,0,0,83.846,10.036Zm-.1-4.862v2.72a.3.3,0,0,0,.1.239.329.329,0,0,0,.239.1h2.295a.327.327,0,0,0,.238-.1.293.293,0,0,0,.1-.239V5.174a.285.285,0,0,0-.322-.323H84.067A.286.286,0,0,0,83.744,5.174Zm20.621,9.656a2.527,2.527,0,0,1-1.853-.765,2.553,2.553,0,0,1-.782-1.87V4.885a2.5,2.5,0,0,1,.782-1.853,2.5,2.5,0,0,1,1.853-.782h6.97a2.5,2.5,0,0,1,1.852.782,2.5,2.5,0,0,1,.782,1.853V12.2a2.641,2.641,0,0,1-2.634,2.635ZM103.77,4.273a.833.833,0,0,0-.255.612V12.2a.779.779,0,0,0,.255.595.814.814,0,0,0,.595.255h6.97a.816.816,0,0,0,.595-.255.779.779,0,0,0,.255-.595V4.885a.833.833,0,0,0-.255-.612.844.844,0,0,0-.595-.239h-6.97A.842.842,0,0,0,103.77,4.273Zm-12.665,7.14-1.87-4.42a.8.8,0,0,1,0-.646.828.828,0,0,1,.459-.476.807.807,0,0,1,.646,0,.833.833,0,0,1,.459.459l1.87,4.437a.807.807,0,0,1,0,.646.833.833,0,0,1-.459.459.722.722,0,0,1-.323.068A.77.77,0,0,1,91.105,11.413Zm-16.3-.034a.845.845,0,0,1-.544-.356.781.781,0,0,1-.136-.629l1.19-6.613a.847.847,0,0,1,.357-.544A.782.782,0,0,1,76.3,3.1a.852.852,0,0,1,.544.357.785.785,0,0,1,.136.629l-1.19,6.6a.764.764,0,0,1-.833.714Zm-10.4-.7-1.19-6.6a.785.785,0,0,1,.136-.629.852.852,0,0,1,.544-.357.783.783,0,0,1,.629.137.845.845,0,0,1,.356.544l1.19,6.613a.781.781,0,0,1-.136.629.845.845,0,0,1-.544.356l-.153.017A.764.764,0,0,1,64.4,10.682Zm84.456-1.734a.768.768,0,0,1-.442-.476.849.849,0,0,1,.017-.645l1.547-3.383a.845.845,0,0,1,1.564.05.851.851,0,0,1-.017.646l-1.547,3.383a.776.776,0,0,1-.765.51A.954.954,0,0,1,148.854,8.948Zm-7.633-.425-1.53-3.383a.763.763,0,0,1-.017-.646.768.768,0,0,1,.442-.476A.76.76,0,0,1,140.762,4a.826.826,0,0,1,.476.442l1.53,3.383a.8.8,0,0,1,.034.645.828.828,0,0,1-.459.476.756.756,0,0,1-.34.085A.808.808,0,0,1,141.221,8.523ZM6.87,8.625a.935.935,0,1,1,0-1.869H20.13a.935.935,0,1,1,0,1.869Zm163-.544-.374-.459a.6.6,0,0,0-.527-.239l-9.843.493a1.205,1.205,0,0,1-1.19-.748,1.121,1.121,0,0,1,.272-1.36L163.219.856a.867.867,0,0,1,.612-.238.816.816,0,0,1,.6.255.808.808,0,0,1,.238.595.778.778,0,0,1-.255.595l-4,3.91q-.17.17.05.136l7.208-.357a.124.124,0,0,0,.12-.068.16.16,0,0,0-.034-.137l-1.174-1.393a.9.9,0,0,1-.2-.629.861.861,0,0,1,.306-.579.872.872,0,0,1,.612-.2.857.857,0,0,1,.578.306l3.3,3.944a.869.869,0,0,1,.2.612.871.871,0,0,1-.85.782A.821.821,0,0,1,169.866,8.081ZM38.388,6.279a.781.781,0,0,1-.255-.595V4.154a.3.3,0,0,0-.34-.34H26.93a.3.3,0,0,0-.34.34v1.53a.809.809,0,0,1-.238.595.835.835,0,0,1-.612.255.815.815,0,0,1-.595-.255.781.781,0,0,1-.255-.595V4.069a1.944,1.944,0,0,1,1.955-1.955h4.233a.3.3,0,0,0,.34-.34V1.689a.962.962,0,0,1,.272-.68.962.962,0,0,1,.68-.272.9.9,0,0,1,.662.272.959.959,0,0,1,.273.68v.085a.3.3,0,0,0,.339.34h4.234a1.916,1.916,0,0,1,1.955,1.955V5.684a.807.807,0,0,1-.238.595.832.832,0,0,1-.612.255A.816.816,0,0,1,38.388,6.279Z" transform="translate(-5.93 -0.62)"/>
    </g>
  </g>
</svg>
