<svg xmlns="http://www.w3.org/2000/svg" width="364.525" height="63" viewBox="0 0 364.525 63">
  <defs>
    <style>
      .cls-1 {
        fill: #f8efa1;
        opacity: 0.34;
      }

      .cls-2 {
        fill: #982020;
        opacity: 0.6;
      }

      .cls-20, .cls-3 {
        opacity: 0.2;
      }

      .cls-4 {
        fill: #ac2121;
        opacity: 0.46;
      }

      .cls-5 {
        fill: #fff0d7;
      }

      .cls-6 {
        fill: #3f3d56;
      }

      .cls-7 {
        fill: #fa9c5b;
      }

      .cls-8 {
        fill: #d9403f;
      }

      .cls-9 {
        fill: #fabc59;
      }

      .cls-10, .cls-16 {
        fill: #fff;
      }

      .cls-10 {
        opacity: 0.47;
      }

      .cls-11 {
        fill: #171a1e;
      }

      .cls-12 {
        fill: #6d6e70;
      }

      .cls-13 {
        fill: #dddddc;
      }

      .cls-14, .cls-18 {
        fill: #f79529;
      }

      .cls-15, .cls-26 {
        opacity: 0.5;
      }

      .cls-17 {
        fill: #dc5726;
      }

      .cls-18, .cls-21 {
        opacity: 0.3;
      }

      .cls-18, .cls-20, .cls-21, .cls-26 {
        mix-blend-mode: multiply;
        isolation: isolate;
      }

      .cls-19, .cls-20 {
        fill: #fbae17;
      }

      .cls-22 {
        fill: #875631;
      }

      .cls-23 {
        fill: #774b2c;
      }

      .cls-24 {
        fill: #212221;
      }

      .cls-25, .cls-26 {
        fill: #ffcda4;
      }

      .cls-27 {
        fill: #fed594;
      }
    </style>
  </defs>
  <g id="背景图形" transform="translate(-29.578 -61)">
    <ellipse id="椭圆_229" data-name="椭圆 229" class="cls-1" cx="15.568" cy="15.568" rx="15.568" ry="15.568" transform="translate(249.624 61)"/>
    <path id="路径_2899" data-name="路径 2899" class="cls-2" d="M358.782,305.839H298.674a1.225,1.225,0,0,1-.225-.018L326.878,256.6a1.991,1.991,0,0,1,3.465,0l19.079,33.029.914,1.58Z" transform="translate(-63.435 -183.85)"/>
    <path id="路径_2900" data-name="路径 2900" class="cls-3" d="M326.771,208.713H306.558l9.922-14.631.714-1.054.357-.527.9,1.581Z" transform="translate(-16.211 -86.724)"/>
    <path id="路径_2901" data-name="路径 2901" class="cls-4" d="M522.879,351.336h-51.2l9.922-14.575.714-1.05,12.93-18.995a2.6,2.6,0,0,1,3.884-.235,2.369,2.369,0,0,1,.186.235Z" transform="translate(-170.869 -229.346)"/>
    <ellipse id="椭圆_224" data-name="椭圆 224" class="cls-5" cx="3.636" cy="3.636" rx="3.636" ry="3.636" transform="translate(369.037 107.27)"/>
    <path id="路径_2902" data-name="路径 2902" class="cls-6" d="M592.55,220.017h-.745l.339-11.5Z" transform="translate(-219.066 -98.099)"/>
    <path id="路径_2909" data-name="路径 2909" class="cls-6" d="M593.193,214.137l.8-1.106-.811,1.38-.088-.153Z" transform="translate(-219.856 -101.584)"/>
    <path id="路径_2907" data-name="路径 2907" class="cls-6" d="M590.577,218.837l-.8-1.106.811,1.38.087-.153Z" transform="translate(-217.7 -105.155)"/>
    <g id="组_1344" data-name="组 1344" transform="translate(-149 -1)">
      <ellipse id="椭圆_225" data-name="椭圆 225" class="cls-7" cx="3.636" cy="3.636" rx="3.636" ry="3.636" transform="translate(178.578 108.318)"/>
      <path id="路径_2903" data-name="路径 2903" class="cls-6" d="M732.866,220.017h-.745l.34-11.5Z" transform="translate(-550.301 -97.001)"/>
      <path id="路径_2910" data-name="路径 2910" class="cls-6" d="M733.51,214.137l.8-1.106-.811,1.38-.088-.153Z" transform="translate(-551.284 -100.53)"/>
      <path id="路径_2908" data-name="路径 2908" class="cls-6" d="M730.894,218.837l-.8-1.106.811,1.38.087-.153Z" transform="translate(-548.756 -104.096)"/>
      <ellipse id="椭圆_227" data-name="椭圆 227" class="cls-8" cx="5.371" cy="5.371" rx="5.371" ry="5.371" transform="translate(195.958 101.251)"/>
      <path id="路径_2905" data-name="路径 2905" class="cls-6" d="M691.519,202.43h-1.1l.5-16.986Z" transform="translate(-490.032 -79.446)"/>
      <path id="路径_2915" data-name="路径 2915" class="cls-6" d="M692.469,193.747l1.181-1.634-1.2,2.038-.129-.227Z" transform="translate(-491.186 -84.656)"/>
      <path id="路径_2912" data-name="路径 2912" class="cls-6" d="M688.605,200.688l-1.181-1.634,1.2,2.038.129-.226Z" transform="translate(-488.003 -89.922)"/>
    </g>
    <ellipse id="椭圆_228" data-name="椭圆 228" class="cls-9" cx="5.371" cy="5.371" rx="5.371" ry="5.371" transform="translate(353.128 100.25)"/>
    <path id="路径_2906" data-name="路径 2906" class="cls-6" d="M548.619,202.43h-1.1l.5-16.986Z" transform="translate(-190.178 -80.544)"/>
    <path id="路径_2916" data-name="路径 2916" class="cls-6" d="M549.57,193.747l1.181-1.634-1.2,2.038-.129-.227Z" transform="translate(-191.35 -85.688)"/>
    <path id="路径_2913" data-name="路径 2913" class="cls-6" d="M545.706,200.688l-1.181-1.634,1.2,2.038.129-.226Z" transform="translate(-188.167 -90.961)"/>
    <path id="路径_2918" data-name="路径 2918" class="cls-10" d="M514.16,210.935a7.16,7.16,0,0,0-14.049-1.51c-.087,0-.173-.007-.261-.007a7.162,7.162,0,0,0-6.87,5.142,5.061,5.061,0,0,0-6.005,1.495h22.336a4.843,4.843,0,0,0,4.854-5.015Q514.163,210.988,514.16,210.935Z" transform="translate(-200.084 -122.465)"/>
    <g id="组_1070" data-name="组 1070" transform="translate(-5442.424 -6101.044)">
      <g id="组_775" data-name="组 775" transform="translate(5739.303 6196.95)">
        <circle id="椭圆_210" data-name="椭圆 210" class="cls-11" cx="5.199" cy="5.199" r="5.199" transform="translate(33.766 20.741) rotate(-45)"/>
        <ellipse id="椭圆_211" data-name="椭圆 211" class="cls-12" cx="2.849" cy="2.849" rx="2.849" ry="2.849" transform="translate(38.27 17.892)"/>
        <circle id="椭圆_212" data-name="椭圆 212" class="cls-13" cx="1.985" cy="1.985" r="1.985" transform="translate(38.312 20.741) rotate(-45)"/>
        <path id="路径_2493" data-name="路径 2493" class="cls-14" d="M4858.408,3970.529a5.883,5.883,0,0,1,4.051-7.859c4.78-.891,6.968,2.674,6.968,3-3.088.978-4.934,1.564-5.869,1.861a1.807,1.807,0,0,0-1.1.989h0a1.808,1.808,0,0,1-1.058.973Z" transform="translate(-4823.109 -3948.005)"/>
        <g id="组_771" data-name="组 771" class="cls-15" transform="translate(40.511 15.018)">
          <path id="路径_2494" data-name="路径 2494" class="cls-16" d="M5482.238,4018.08l.143,0a5.77,5.77,0,0,1,2.768.677,5.571,5.571,0,0,1,1.607,1.3.165.165,0,0,0,.252-.213,5.89,5.89,0,0,0-1.7-1.377,6.093,6.093,0,0,0-2.924-.716h-.15a.165.165,0,1,0,.007.33Z" transform="translate(-5482.069 -4017.749)"/>
        </g>
        <path id="路径_2495" data-name="路径 2495" class="cls-17" d="M1659.426,3491.049h-6.4v3.241Z" transform="translate(-1646.888 -3480.759)"/>
        <rect id="矩形_924" data-name="矩形 924" class="cls-16" width="14.933" height="0.943" rx="0.471" transform="translate(0 9.347)"/>
        <path id="路径_2496" data-name="路径 2496" class="cls-16" d="M1211.137,3456.722l-6.621-6.4h-1.356l7.323,7.078a.471.471,0,1,0,.655-.678Z" transform="translate(-1201.06 -3440.398)"/>
        <circle id="椭圆_213" data-name="椭圆 213" class="cls-11" cx="5.199" cy="5.199" r="5.199" transform="translate(3.868 20.741) rotate(-45)"/>
        <ellipse id="椭圆_214" data-name="椭圆 214" class="cls-12" cx="2.849" cy="2.849" rx="2.849" ry="2.849" transform="translate(8.372 17.892)"/>
        <circle id="椭圆_215" data-name="椭圆 215" class="cls-13" cx="1.985" cy="1.985" r="1.985" transform="translate(8.414 20.741) rotate(-45)"/>
        <path id="路径_2497" data-name="路径 2497" class="cls-18" d="M4862.459,3972.027a5.883,5.883,0,0,0-4.051,7.859l2.191-.762a6.938,6.938,0,0,1,2.22-7.155C4862.7,3971.986,4862.581,3972,4862.459,3972.027Z" transform="translate(-4823.109 -3957.362)"/>
        <path id="路径_2498" data-name="路径 2498" class="cls-19" d="M4648.84,2678.78l1.054.729,2.1,4.132a2.754,2.754,0,0,0,2.081,1.5.6.6,0,0,1,.49.442l1,3.834a.43.43,0,0,1-.278.4c-.548.206-1.735.731-2.043,1.509C4651.154,2689.158,4648.84,2678.78,4648.84,2678.78Z" transform="translate(-4615.808 -2675.782)"/>
        <path id="路径_2499" data-name="路径 2499" class="cls-20" d="M4655.3,2688.4a.427.427,0,0,1-.187.139c-.548.206-1.735.731-2.042,1.509-1.618-1.675-3.368-8.266-4.079-11.163l-.154-.107s2.314,10.378,4.4,12.544c.308-.777,1.5-1.3,2.043-1.509a.43.43,0,0,0,.278-.4Z" transform="translate(-4615.808 -2675.78)"/>
        <path id="路径_2500" data-name="路径 2500" class="cls-14" d="M1114.737,2688.179c-.762-1.484-4.294-9.4-4.294-9.4a10.051,10.051,0,0,0-1.179,1.407l.621,1.348a.779.779,0,0,0,.641.449l.209.017,1.885,5.045a6.2,6.2,0,0,1-5.805,8.367h-5.98a2.107,2.107,0,0,1-2.107-2.106v-1.634a3.712,3.712,0,0,1,2.207-3.394l.754-.335a2.186,2.186,0,0,0,1.277-1.681l.028-.192h-13.612c-7.7,0-10.992,10.452-10.992,10.452h16.744c.486,1.216,2.593,1.053,2.593,1.053h11.581C1112.226,2697.577,1116.277,2691.176,1114.737,2688.179Z" transform="translate(-1077.412 -2675.782)"/>
        <path id="路径_2501" data-name="路径 2501" class="cls-19" d="M4689.568,3699.121l-1.219,1.06a2.525,2.525,0,0,0-.869,1.907v3.065A6.193,6.193,0,0,0,4689.568,3699.121Z" transform="translate(-4654.103 -3686.964)"/>
        <path id="路径_2502" data-name="路径 2502" class="cls-20" d="M4689.568,3699.121l-.471.41a6.206,6.206,0,0,1-1.617,4.392v1.229A6.193,6.193,0,0,0,4689.568,3699.121Z" transform="translate(-4654.103 -3686.964)"/>
        <g id="组_772" data-name="组 772" class="cls-21" transform="translate(19.399 10.29)">
          <path id="路径_2503" data-name="路径 2503" class="cls-14" d="M3130.264,3496.649v1.634a2.107,2.107,0,0,0,2.106,2.107h1.917a2.107,2.107,0,0,1-2.107-2.107v-1.634a3.713,3.713,0,0,1,2.207-3.393l.754-.334a2.187,2.187,0,0,0,1.277-1.681l.028-.193h-1.917l-.028.193C3134.393,3491.983,3130.264,3492.448,3130.264,3496.649Z" transform="translate(-3130.264 -3491.048)"/>
          <path id="路径_2504" data-name="路径 2504" class="cls-14" d="M3175.969,4772.631h-.511A4.486,4.486,0,0,0,3175.969,4772.631Z" transform="translate(-3175.052 -4761.126)"/>
        </g>
        <path id="路径_2505" data-name="路径 2505" class="cls-18" d="M1091.29,3743.6c-4.94-1.292-8.455,1.2-10.781,6.691h-1.683c-.293.712-.435,1.162-.435,1.162h15.756S1096.232,3744.891,1091.29,3743.6Z" transform="translate(-1077.412 -3730.709)"/>
        <path id="路径_2506" data-name="路径 2506" class="cls-19" d="M1387.339,3751.448s2.084-6.56-2.858-7.853c-5.276-1.38-8.927,1.558-11.24,7.853Z" transform="translate(-1369.616 -3730.707)"/>
        <path id="路径_2507" data-name="路径 2507" class="cls-20" d="M1376.165,3780.03a12.84,12.84,0,0,1,3.818-5.232c-2.938.849-5.154,3.586-6.741,7.9h14.1a9.87,9.87,0,0,0,.27-1.162h-10.465A1.074,1.074,0,0,1,1376.165,3780.03Z" transform="translate(-1369.616 -3761.961)"/>
        <g id="组_773" data-name="组 773" class="cls-15" transform="translate(10.727 13.132)">
          <path id="路径_2508" data-name="路径 2508" class="cls-16" d="M2170.953,3811.926a4.891,4.891,0,0,0-.669-2.345,3.652,3.652,0,0,0-2.272-1.594,8.488,8.488,0,0,0-2.144-.293,6.527,6.527,0,0,0-1.514.173.165.165,0,1,0,.076.321,6.244,6.244,0,0,1,1.438-.163,8.167,8.167,0,0,1,2.061.282,3.32,3.32,0,0,1,2.075,1.45,4.569,4.569,0,0,1,.62,2.187.165.165,0,1,0,.33-.017Z" transform="translate(-2164.227 -3807.694)"/>
        </g>
        <path id="矩形_925" data-name="矩形 925" class="cls-22" d="M1.4,0H6.857A2.055,2.055,0,0,1,8.912,2.055v0a.882.882,0,0,1-.882.882H.627A.627.627,0,0,1,0,2.31V1.4A1.4,1.4,0,0,1,1.4,0Z" transform="translate(16.751 6.881)"/>
        <path id="路径_2509" data-name="路径 2509" class="cls-23" d="M2836.3,3113.171a1.068,1.068,0,0,1,1.068-1.067h6.276a1.591,1.591,0,0,1,.411.056,1.568,1.568,0,0,0-1.383-.829H2836.4a1.068,1.068,0,0,0-1.068,1.068v1.391a.479.479,0,0,0,.478.479h.493Z" transform="translate(-2818.577 -3104.45)"/>
        <rect id="矩形_926" data-name="矩形 926" class="cls-16" width="6.887" height="0.461" transform="translate(17.562 9.835)"/>
        <rect id="矩形_927" data-name="矩形 927" class="cls-17" width="4.494" height="0.59" rx="0.295" transform="translate(10.336 14.952)"/>
        <rect id="矩形_928" data-name="矩形 928" class="cls-17" width="4.494" height="0.59" rx="0.295" transform="translate(9.905 16.461)"/>
        <g id="组_774" data-name="组 774" transform="translate(35.92 0)">
          <path id="矩形_929" data-name="矩形 929" class="cls-16" d="M0,0H0A1.961,1.961,0,0,1,1.961,1.961v.615A1.961,1.961,0,0,1,0,4.537H0a0,0,0,0,1,0,0V0A0,0,0,0,1,0,0Z"/>
          <path id="路径_2510" data-name="路径 2510" class="cls-13" d="M4998.21,2608.212v.5h.232a.15.15,0,0,0,.149-.149v-.352Z" transform="translate(-4997.962 -2604.424)"/>
        </g>
        <path id="路径_2511" data-name="路径 2511" class="cls-14" d="M4465.146,2344.846a2.207,2.207,0,0,0-2.206,2.148,1.872,1.872,0,0,1-1.682.849v1.378l2.1.143a.59.59,0,0,0,.137.019h2.339v-4.537Z" transform="translate(-4429.91 -2344.846)"/>
        <path id="路径_2512" data-name="路径 2512" class="cls-24" d="M4387.6,2679.454a.674.674,0,1,1-.674-.673A.674.674,0,0,1,4387.6,2679.454Z" transform="translate(-4355.581 -2675.782)"/>
      </g>
      <circle id="椭圆_209" data-name="椭圆 209" class="cls-16" cx="1.436" cy="1.436" r="1.436" transform="translate(5776.651 6208.537) rotate(-45)"/>
      <path id="路径_2492" data-name="路径 2492" class="cls-13" d="M5262.694,3450.323l.339.026.509,2.007-.326.3Z" transform="translate(515.583 2757.078)"/>
      <path id="路径_2513" data-name="路径 2513" class="cls-18" d="M2963.23,2851.972c-.549-1.07-2.537-5.48-3.6-7.859h-.141a.566.566,0,0,1-.136-.019l-.539-.037c1.061,2.365,3.076,6.836,3.629,7.915.968,1.884-.273,5.112-2.052,7.251a3.068,3.068,0,0,1-2.36,1.094h-14.4c.486,1.216,2.593,1.053,2.593,1.053H2957.8a1.992,1.992,0,0,0,.268-.018c.039,0,.08-.015.12-.022s.1-.017.15-.029.109-.031.163-.047c.036-.011.072-.021.107-.033.065-.022.13-.05.2-.077l.075-.031c.073-.033.148-.07.222-.109l.048-.026c.082-.043.162-.091.244-.142l.025-.016c.086-.055.173-.113.26-.174l.008-.007C2962.149,2858.876,2964.453,2854.353,2963.23,2851.972Z" transform="translate(2813.398 3357.375)"/>
      <g id="组_776" data-name="组 776" transform="translate(5771.166 6193.145)">
        <path id="路径_2514" data-name="路径 2514" class="cls-16" d="M4519.549,1927.793l.66-5.128a.967.967,0,0,0-.333-.868l-.852-.733a.165.165,0,1,0-.215.25l.852.733a.65.65,0,0,1,.226.492.791.791,0,0,1,0,.083l-.66,5.128a.165.165,0,1,0,.327.042Z" transform="translate(-4518.752 -1921.024)"/>
      </g>
      <path id="路径_2515" data-name="路径 2515" class="cls-25" d="M4189.549,2661.043a1.23,1.23,0,1,1-1.739.024A1.229,1.229,0,0,1,4189.549,2661.043Z" transform="translate(1580.73 3539.09)"/>
      <path id="路径_2516" data-name="路径 2516" class="cls-26" d="M4224.875,2839.022c-.149.221-.575.732-1.095.292l-.729-.04a1.37,1.37,0,0,0-.26.2c.019.02.036.04.056.059a1.228,1.228,0,0,0,2.028-.51Z" transform="translate(1545.718 3362.364)"/>
      <path id="路径_2517" data-name="路径 2517" class="cls-24" d="M4233.836,2760.748a.557.557,0,1,1-.787.011A.558.558,0,0,1,4233.836,2760.748Z" transform="translate(1535.709 3440.092)"/>
    </g>
    <ellipse id="椭圆_226" data-name="椭圆 226" class="cls-27" cx="5.371" cy="5.371" rx="5.371" ry="5.371" transform="translate(383.361 100.25)"/>
    <path id="路径_2904" data-name="路径 2904" class="cls-6" d="M636.425,202.43h-1.1l.5-16.986Z" transform="translate(-247.233 -80.544)"/>
    <path id="路径_2914" data-name="路径 2914" class="cls-6" d="M637.376,193.747l1.181-1.634-1.2,2.038-.13-.227Z" transform="translate(-248.394 -85.688)"/>
    <path id="路径_2911" data-name="路径 2911" class="cls-6" d="M633.512,200.688l-1.181-1.634,1.2,2.038.13-.226Z" transform="translate(-245.211 -90.961)"/>
  </g>
</svg>
