<svg xmlns="http://www.w3.org/2000/svg" xmlns:xlink="http://www.w3.org/1999/xlink" width="131.515" height="17.56" viewBox="0 0 131.515 17.56">
  <defs>
    <style>
      .cls-1 {
        fill: url(#radial-gradient);
      }

      .cls-2 {
        filter: url(#减去_25);
      }

      .cls-3 {
        filter: url(#交叉_2);
      }
    </style>
    <radialGradient id="radial-gradient" cx="0.5" cy="0.5" r="0.557" gradientTransform="translate(0 -0.131) scale(1 1.261)" gradientUnits="objectBoundingBox">
      <stop offset="0" stop-color="#fff"/>
      <stop offset="1" stop-color="#e9e9e9"/>
    </radialGradient>
    <filter id="交叉_2" x="0" y="0" width="62.261" height="17.56" filterUnits="userSpaceOnUse">
      <feOffset dy="1" input="SourceAlpha"/>
      <feGaussianBlur result="blur"/>
      <feFlood flood-opacity="0.11"/>
      <feComposite operator="in" in2="blur"/>
      <feComposite in="SourceGraphic"/>
    </filter>
    <filter id="减去_25" x="64.54" y="5.606" width="66.975" height="11.2" filterUnits="userSpaceOnUse">
      <feOffset dy="1" input="SourceAlpha"/>
      <feGaussianBlur result="blur-2"/>
      <feFlood flood-opacity="0.11"/>
      <feComposite operator="in" in2="blur-2"/>
      <feComposite in="SourceGraphic"/>
    </filter>
  </defs>
  <g id="logo" transform="translate(-24.46 -39.647)">
    <g class="cls-3" transform="matrix(1, 0, 0, 1, 24.46, 39.65)">
      <path id="交叉_2-2" data-name="交叉 2" class="cls-1" d="M33.8,23.207l.736-5.268-3.749,4.876h-4.37l5.036-6.555H27.586l.3-2.185h7.177l.575-3.933H29.081L29.4,7.958h6.532L36,7.521l-.735-.874h5.243l-.184,1.31h6.555l-.322,2.185H40.006l-.552,3.933h7.2l-.3,2.185H42.49l3.151,6.555H41.271l-2.37-4.9-.735,5.29Zm-14.375,0-.529-3.013-3.657,1.748.414-2.852,2.806-1.334-.76-4.324H12.935l-.322,2.346,3.174-.828-.345,2.415-3.174.828-.483,3.5a1.812,1.812,0,0,1-1.794,1.518H5.644l2.048-2.117.253-1.748-2.484.644.345-2.416,2.484-.643.483-3.5H6.38L6.7,11.247H9.094l.184-1.427-2,.322L7.6,7.958l8.051-1.31-.322,2.184-1.771.3-.3,2.116h4.071l-.689-3.956-.553-.643h4.37l.8,4.6H25.7l-.322,2.184H21.629l.46,2.6,3.151-1.517-.414,2.851-2.323,1.1.392,2.162h.828l1.012-.874-.506,3.451Zm35.167-.047.644-4.668H52.5l-.529,3.864H47.711l.806-5.865h6.992l.068-.436h4.37l-.069.436h7.015l-.6,4.325a1.7,1.7,0,0,1-.609,1.1,1.754,1.754,0,0,1-1.162.437H61.051L62.293,21l.346-2.507H59.6l-.643,4.668Zm-5.91-7.5,1.31-1.149H48.769l.23-1.7h2.9l.139-.92H49.16l.23-1.771h2.875l.092-.689H49.505L49.735,7.7H52.61l.046-.345-.782-.69h4.554L56.29,7.7h2.669l-.23,1.725H56.037l-.092.689h2.622l-.229,1.771H55.715l-.139.92H58.2l-.23,1.7H53.645l-1.335,1.149Zm10.028-.092L59.74,8.142,59.3,7.084h8.349L67.4,8.878l-.967,1.472h1.289L67.537,12.1,66.456,14.95h-2.99l.229-1.7h.943l.345-1.15H63.6l.253-1.748.9-1.4H63.167l-.943,6.624ZM40.42,13.432l1.012-2.622H45.8L44.79,13.432Zm-10.258,0-.506-2.622h4.37l.506,2.622ZM21.7,10.143l-.437-3.059h3.933l.437,3.059Z" transform="translate(-5.46 -6.65)"/>
    </g>
    <g class="cls-2" transform="matrix(1, 0, 0, 1, 24.46, 39.65)">
      <path id="减去_25-2" data-name="减去 25" class="cls-1" d="M64.3,11.453H1.786A1.848,1.848,0,0,1,0,9.552l.893-6.4a1.849,1.849,0,0,1,1.786-1.9h62.51a1.849,1.849,0,0,1,1.786,1.9l-.893,6.4A1.849,1.849,0,0,1,64.3,11.453ZM59.263,4.366h0l-.6,4.491a.46.46,0,0,0-.009.239.419.419,0,0,0,.1.193.522.522,0,0,0,.184.126.6.6,0,0,0,.234.045h4.842L64.357,6.7H62.026l.522.864L62.458,8.6h-2.07L60.82,5.23h2.07l-.081.6h1.728l.171-1.467Zm-6.21,1.98v0L54.781,9.46h1.728L57.2,4.366H55.726l-.432,3.195L53.485,4.366H51.406l.351.342L51.064,9.46h1.557l.432-3.111Zm-7.3,1.728h2.16l.18,1.386h1.548l-.684-5.094H45.412l.261.252L43.684,9.46h1.467l.6-1.385ZM36.466,4.366l.261.342-.6,4.752h4.842a.62.62,0,0,0,.441-.171.87.87,0,0,0,.243-.432l.261-1.728-.432-.351L42,6.436l.261-2.07Zm-3.906,0,.261.342-.6,4.752h1.638l.783-5.094Zm-5.7,3.708h2.16L29.2,9.46h1.548l-.684-5.094H26.521l.261.252L24.793,9.46H26.26l.6-1.385Zm-8.19-3.708.261.342-.522,4.149a.694.694,0,0,0,.131.432.461.461,0,0,0,.392.171h4.491l.081-.864H20.14l.6-4.23Zm-7.074,0h0L11,8.857a.46.46,0,0,0-.009.239.419.419,0,0,0,.1.193.522.522,0,0,0,.184.126.6.6,0,0,0,.234.045h4.842l.6-4.491a.493.493,0,0,0,.009-.243.426.426,0,0,0-.1-.189.533.533,0,0,0-.184-.126.61.61,0,0,0-.234-.045H11.6ZM5.605,6.958v0l.35,2.5H7.513l2.07-5.094H8.116L6.9,7.471,6.649,4.537H5.263L4.138,7.471,3.877,4.366H2.239l.171.171.6,4.923H4.57L5.6,6.961ZM40.012,8.6h-2.07l.171-1.386h2.07L40.012,8.6Zm-25.3,0H12.724l.432-3.366h2.07L14.713,8.6ZM47.833,7.21H46.105l.864-1.98h.6l.261,1.979Zm-18.891,0H27.214l.864-1.98h.6l.261,1.979Zm11.331-.864H38.284l.09-1.116h2.07l-.171,1.115Z" transform="translate(64.54 4.35)"/>
    </g>
  </g>
</svg>
