<svg xmlns="http://www.w3.org/2000/svg" width="16" height="16" viewBox="0 0 16 16">
  <defs>
    <style>
      .cls-1 {
        fill: #555770;
      }
    </style>
  </defs>
  <path id="路径_1537" data-name="路径 1537" class="cls-1" d="M146.373,138.373h-.767a6.551,6.551,0,0,0-5.78-5.78v-.767a.727.727,0,1,0-1.453,0v.767a6.551,6.551,0,0,0-5.78,5.78h-.767a.727.727,0,1,0,0,1.453h.767a6.551,6.551,0,0,0,5.78,5.78v.767a.727.727,0,1,0,1.453,0v-.767a6.551,6.551,0,0,0,5.78-5.78h.767a.727.727,0,0,0,0-1.453Zm-7.273,5.763a5.036,5.036,0,1,1,5.036-5.036A5.036,5.036,0,0,1,139.1,144.136Zm0-5.036-3.153,0a3.153,3.153,0,1,0,3.153-3.153A3.153,3.153,0,0,0,135.947,139.1Z" transform="translate(-131.1 -131.1)"/>
</svg>
