<svg xmlns="http://www.w3.org/2000/svg" xmlns:xlink="http://www.w3.org/1999/xlink" width="86" height="86" viewBox="0 0 86 86">
  <defs>
    <style>
      .cls-1 {
        fill: url(#linear-gradient);
      }

      .cls-2 {
        fill: url(#linear-gradient-2);
      }

      .cls-3 {
        filter: url(#路径_2666);
      }

      .cls-4 {
        filter: url(#椭圆_10);
      }
    </style>
    <linearGradient id="linear-gradient" x1="0.929" y1="0.965" x2="0.235" y2="0.091" gradientUnits="objectBoundingBox">
      <stop offset="0" stop-color="#f59301"/>
      <stop offset="1" stop-color="#fddd09"/>
    </linearGradient>
    <filter id="椭圆_10" x="0" y="0" width="86" height="86" filterUnits="userSpaceOnUse">
      <feOffset dy="6" input="SourceAlpha"/>
      <feGaussianBlur stdDeviation="6" result="blur"/>
      <feFlood flood-color="#f69802" flood-opacity="0.6"/>
      <feComposite operator="in" in2="blur"/>
      <feComposite in="SourceGraphic"/>
    </filter>
    <linearGradient id="linear-gradient-2" x1="0.188" x2="0.733" y2="1" gradientUnits="objectBoundingBox">
      <stop offset="0" stop-color="#fff"/>
      <stop offset="1" stop-color="#fff" stop-opacity="0.502"/>
    </linearGradient>
    <filter id="路径_2666" x="24" y="21" width="37.497" height="37.703" filterUnits="userSpaceOnUse">
      <feOffset dy="3" input="SourceAlpha"/>
      <feGaussianBlur stdDeviation="3" result="blur-2"/>
      <feFlood flood-color="#f67402" flood-opacity="0.671"/>
      <feComposite operator="in" in2="blur-2"/>
      <feComposite in="SourceGraphic"/>
    </filter>
  </defs>
  <g id="组件_39_1" data-name="组件 39 – 1" transform="translate(18 12)">
    <g class="cls-4" transform="matrix(1, 0, 0, 1, -18, -12)">
      <circle id="椭圆_10-2" data-name="椭圆 10" class="cls-1" cx="25" cy="25" r="25" transform="translate(18 12)"/>
    </g>
    <g id="组_1073" data-name="组 1073" transform="translate(15 15)">
      <g class="cls-3" transform="matrix(1, 0, 0, 1, -33, -27)">
        <path id="路径_2666-2" data-name="路径 2666" class="cls-2" d="M244.993,235.594a1.44,1.44,0,0,1-1.44,1.44h-9.664a1.44,1.44,0,0,1,0-2.881h9.664A1.444,1.444,0,0,1,244.993,235.594Zm0-4.075a1.44,1.44,0,0,1-1.44,1.44h-5.484a1.44,1.44,0,1,1,0-2.881h5.484A1.444,1.444,0,0,1,244.993,231.519Zm-5.751-7.237-9.4,10.574-3.977.822a.3.3,0,0,1-.362-.344l.58-4.008,9.313-10.465a.554.554,0,0,1,.776-.088l3.074,2.733A.548.548,0,0,1,239.242,224.283Zm2.712-3.046-1.44,1.619a.316.316,0,0,1-.446.025l-3.383-3a.316.316,0,0,1-.025-.446l1.444-1.623a1.423,1.423,0,0,1,2.009-.116l1.728,1.535A1.426,1.426,0,0,1,241.954,221.237Z" transform="translate(-192.5 -190.33)"/>
      </g>
    </g>
  </g>
</svg>
