<svg xmlns="http://www.w3.org/2000/svg" xmlns:xlink="http://www.w3.org/1999/xlink" width="375" height="100" viewBox="0 0 375 100">
  <defs>
    <style>
      .cls-1, .cls-23, .cls-25 {
        fill: none;
      }

      .cls-2, .cls-3 {
        fill: #e63535;
      }

      .cls-2 {
        opacity: 0.45;
      }

      .cls-4 {
        fill: #ff8f24;
      }

      .cls-5 {
        fill: #ef7500;
      }

      .cls-6 {
        fill: #fecc9d;
      }

      .cls-7 {
        fill: #ffa61d;
      }

      .cls-8 {
        fill: #d91b1b;
      }

      .cls-9 {
        fill: #c52f2f;
      }

      .cls-10 {
        fill: #faa174;
      }

      .cls-11 {
        fill: #e8753c;
      }

      .cls-12 {
        fill: #e63cc4;
      }

      .cls-13 {
        fill: #d801ad;
      }

      .cls-14 {
        fill: #a875c5;
      }

      .cls-15 {
        fill: #7c0dbc;
      }

      .cls-16 {
        fill: #fccdcd;
      }

      .cls-17 {
        fill: #e87200;
      }

      .cls-18 {
        fill: #f8c80e;
      }

      .cls-19 {
        fill: #f7b90a;
      }

      .cls-20 {
        mix-blend-mode: multiply;
        isolation: isolate;
        fill: url(#linear-gradient);
      }

      .cls-21 {
        fill: #2d2a6f;
      }

      .cls-22 {
        fill: #fdb0b0;
      }

      .cls-23 {
        stroke: #e87200;
      }

      .cls-23, .cls-25 {
        stroke-miterlimit: 10;
      }

      .cls-24 {
        fill: #4a4a7c;
      }

      .cls-25 {
        stroke: #2d2a6f;
      }
    </style>
    <linearGradient id="linear-gradient" x1="1.019" y1="0.719" x2="1.106" y2="1.103" gradientUnits="objectBoundingBox">
      <stop offset="0" stop-color="#fff" stop-opacity="0"/>
      <stop offset="0.14" stop-color="#f9f7f5" stop-opacity="0.047"/>
      <stop offset="0.332" stop-color="#e8e1da" stop-opacity="0.18"/>
      <stop offset="0.553" stop-color="#cdbead" stop-opacity="0.4"/>
      <stop offset="0.795" stop-color="#a88d6f" stop-opacity="0.702"/>
      <stop offset="1" stop-color="#845d32"/>
    </linearGradient>
  </defs>
  <g id="组_1264" data-name="组 1264" transform="translate(-1540 499)">
    <rect id="矩形_985" data-name="矩形 985" class="cls-1" width="375" height="100" transform="translate(1540 -499)"/>
    <g id="组_730" data-name="组 730" transform="translate(1540 -496.19)">
      <path id="路径_1776" data-name="路径 1776" class="cls-2" d="M179.91,686.711c2.971,1.07,6.084,2,9.155,2.917,11.346,3.349,22.863,6.726,35.052,7.876,45.711-8.3,171.308,68.139,258.393-6.849C281.735,689.575,297.837,635.333,179.91,686.711Z" transform="translate(-107.51 -628.628)"/>
      <path id="路径_1429" data-name="路径 1429" class="cls-1" d="M772.572,333.707a6.892,6.892,0,0,1,1.437-1.356h-3A5.02,5.02,0,0,1,772.572,333.707Z" transform="translate(-543.857 -306.296)"/>
      <path id="路径_1430" data-name="路径 1430" class="cls-1" d="M817.2,332.352h-.517c.111.078.223.156.329.24C817.067,332.51,817.132,332.432,817.2,332.352Z" transform="translate(-574.367 -306.299)"/>
      <ellipse id="椭圆_133" data-name="椭圆 133" class="cls-3" cx="23.013" cy="2.121" rx="23.013" ry="2.121" transform="translate(135.538 81.811)"/>
      <path id="路径_1697" data-name="路径 1697" class="cls-4" d="M224.2,643.185c0,5.948-3.536,8.025-7.9,8.025q-.152,0-.3,0c-.2,0-.4-.014-.6-.027-3.936-.279-6.995-2.462-6.995-7.994,0-5.724,7.315-12.948,7.865-13.482h0l.032-.031S224.2,637.237,224.2,643.185Z" transform="translate(-55.863 -567.778)"/>
      <path id="路径_1698" data-name="路径 1698" class="cls-5" d="M231.868,650.3l2.888-4.036-2.9,4.479-.008.463c-.2,0-.4-.014-.6-.027l.311-5.951,0-.046.005-.009.029-.562-2.9-4.49,2.912,4.069.007.119.235-4.5-2.485-4.64,2.516,3.851.245-9.321v0l-.041,7.35,2.474-2.914-2.484,3.547-.065,4.025,2.31-3.863L232,642.3l-.037,2.238,3.354-5.377-3.366,6.158Z" transform="translate(-71.713 -567.778)"/>
      <ellipse id="椭圆_131" data-name="椭圆 131" class="cls-3" cx="12.336" cy="1.137" rx="12.336" ry="1.137" transform="translate(185.989 53.977)"/>
      <path id="路径_1695" data-name="路径 1695" class="cls-6" d="M978.615,503.547c0,3.188-1.9,4.3-4.233,4.3l-.162,0c-.108,0-.216-.007-.322-.015-2.11-.149-3.749-1.32-3.749-4.285,0-3.069,3.921-6.94,4.216-7.227h0l.017-.016S978.615,500.359,978.615,503.547Z" transform="translate(-775.044 -453.067)"/>
      <path id="路径_1696" data-name="路径 1696" class="cls-7" d="M982.727,507.361l1.548-2.163-1.552,2.4,0,.248c-.108,0-.216-.007-.322-.015l.167-3.19v-.025l0,0,.016-.3-1.556-2.407,1.561,2.181,0,.064.126-2.41-1.332-2.487,1.348,2.064.131-5v0l-.022,3.94,1.326-1.562-1.332,1.9-.035,2.158,1.238-2.071-1.243,2.388-.02,1.2,1.8-2.882-1.8,3.3Z" transform="translate(-783.542 -453.067)"/>
      <path id="路径_1691" data-name="路径 1691" class="cls-8" d="M39.639,59.936V57.2H50.161v2.736h2.1V21.425H74.783V86.031H33.747V59.936Z" transform="translate(260.547 -10.968)"/>
      <path id="路径_1693" data-name="路径 1693" class="cls-9" d="M366.306,160.063v-3.845H378.09v3.845h5.471V144.854h5.261v-5.892h11.785v5.892h5.472V168.73a32.522,32.522,0,0,1,2.548-2.832l.026.025v0c.434.422,6.334,6.244,6.334,10.857,0,4.454-2.463,6.212-5.633,6.437l.23,4.394h-.642l-.071-4.371c-.081,0-.162,0-.243,0a8.444,8.444,0,0,1-2.548-.36v5.743H361.044V160.063Z" transform="translate(-121.044 -113.018)"/>
      <ellipse id="椭圆_130" data-name="椭圆 130" class="cls-3" cx="26.621" cy="2.454" rx="26.621" ry="2.454" transform="translate(283.667 79.429)"/>
      <ellipse id="椭圆_132" data-name="椭圆 132" class="cls-3" cx="11.872" cy="1.094" rx="11.872" ry="1.094" transform="translate(258.897 81.722)"/>
      <path id="路径_1699" data-name="路径 1699" class="cls-10" d="M274.373,169.846c0,12.085,7.184,16.3,16.046,16.3s16.046-4.219,16.046-16.3-16.046-27.458-16.046-27.458S274.373,157.761,274.373,169.846Z" transform="translate(-20.284 -114.752)"/>
      <path id="路径_1700" data-name="路径 1700" class="cls-11" d="M193.577,137.763l-.164-10.114-6.839-12.512,6.814,10.926-.074-4.548-4.714-9.052,4.694,7.849h0l-.133-8.179-5.047-7.207,5.027,5.921-.083-15,.522,19.854-.043-.819,5.132-7.855-5.05,9.427.478,9.134.014-.242,5.916-8.266-5.9,9.123.06,1.142.011.017,0,.094,1.213,23.175h-1.621l-.194-11.97-5.884-9.1Z" transform="translate(77.143 -67.73)"/>
      <path id="路径_1701" data-name="路径 1701" class="cls-12" d="M140.656,152.417c0,4.414,2.624,5.955,5.861,5.955s5.861-1.541,5.861-5.955-5.861-10.029-5.861-10.029S140.656,148,140.656,152.417Z" transform="translate(181.573 -80.736)"/>
      <path id="路径_1702" data-name="路径 1702" class="cls-13" d="M55.414,111.158l-.06-3.694-2.5-4.57,2.489,3.991-.027-1.661L53.6,101.917l1.715,2.867h0l-.049-2.987-1.844-2.632,1.836,2.162-.03-5.478.191,7.252-.016-.3,1.874-2.869-1.844,3.443.175,3.336.005-.089L57.77,103.6l-2.154,3.332.022.417,0,.006,0,.034.443,8.465H55.49l-.071-4.372-2.149-3.324Z" transform="translate(272.889 -34.157)"/>
      <path id="路径_1703" data-name="路径 1703" class="cls-14" d="M189.657,83.668c0,16.341,9.715,22.047,21.7,22.047s21.7-5.706,21.7-22.047-21.7-37.13-21.7-37.13S189.657,67.326,189.657,83.668Z" transform="translate(96.956 -40.59)"/>
      <path id="路径_1704" data-name="路径 1704" class="cls-15" d="M126.412,56.677,126.189,43l-9.248-16.92,9.213,14.774-.1-6.149-6.374-12.241,6.348,10.614h0l-.18-11.06-6.825-9.745,6.8,8.006L125.708,0l.705,26.847-.058-1.108,6.939-10.622-6.828,12.748.647,12.352.019-.328,8-11.178-7.976,12.336.081,1.545.015.023-.007.127,1.64,31.338h-2.192l-.263-16.187-7.956-12.306Z" transform="translate(182.69 5.948)"/>
      <g id="组_729" data-name="组 729" transform="translate(0 0)">
        <g id="组_728" data-name="组 728">
          <path id="路径_1836" data-name="路径 1836" class="cls-16" d="M673.253,914.237s-16.223,3.046-21.658-1.282v14.268s20.472,4.633,34.291.954S673.253,914.237,673.253,914.237Z" transform="translate(-651.595 -867.275)"/>
          <path id="路径_1837" data-name="路径 1837" class="cls-17" d="M741.21,930.47a4.071,4.071,0,0,1-5.29,0c-2.725-2.256-8.395-6.118-9.728-13.726,0,0-.051-1.837,2.514-.394S741.21,930.47,741.21,930.47Z" transform="translate(-707.048 -869.386)"/>
          <path id="路径_1838" data-name="路径 1838" class="cls-18" d="M767.57,861s-.42-2.726-3.977-3.046-14.3,7.374-18.146,10.581a29.938,29.938,0,0,1-9.459,4.809s5.063,14.589,14.956,14.108S770.616,875.749,767.57,861Z" transform="translate(-714.33 -826.484)"/>
          <path id="路径_1839" data-name="路径 1839" class="cls-16" d="M1030.332,854.984l.072,1.056s1.5,1.561,2.247,2.261,9.329-33.857,8.843-42.255-.657-14.884,6.814-11.379c6.158,2.889,5.539,7.5,3.993,10.915a30.563,30.563,0,0,0-1.533,5.35c-.122,1.6-2.165,67.044-15.184,60.1-12.5-6.666-17.261-13.291-17.261-13.291Z" transform="translate(-924.21 -785.622)"/>
          <path id="路径_1840" data-name="路径 1840" class="cls-17" d="M1035.578,998.363l2.557-1.187s3.063,2.806,2.475,5.182-1.561,11.354-6.881,14.465c0,0-3.029,1.452-3.609-3.832S1035.578,998.363,1035.578,998.363Z" transform="translate(-932.951 -929.45)"/>
          <path id="路径_1841" data-name="路径 1841" class="cls-18" d="M976.969,921s12.217,14.23,15.328,19.55c0,0,.185,15.457-7.5,18.5,0,0-10.265-5.861-15.21-12.57S976.969,921,976.969,921Z" transform="translate(-887.112 -872.819)"/>
          <path id="路径_1842" data-name="路径 1842" class="cls-19" d="M857.5,875.836c-1.684-2.337-30.794-17.212-43.169-17.854,0,0-3.4,4.767-4.68,17.854s-6.142,41.936-8.59,47.234c0,0,32.021.189,35.278,0S847,904.153,849.728,898.061,859.073,878.02,857.5,875.836Z" transform="translate(-765.066 -825.977)"/>
          <path id="路径_1843" data-name="路径 1843" class="cls-20" d="M857.513,875.836c-1.684-2.337-30.794-17.212-43.169-17.854,0,0-3.4,4.767-4.68,17.854s37.353,28.317,40.078,22.225S859.088,878.02,857.513,875.836Z" transform="translate(-765.082 -826.411)"/>
          <path id="路径_1844" data-name="路径 1844" class="cls-21" d="M875.6,776.264s-3.792-2.039-6.733-8.336-5.771-11.084-.8-15.8,16.855-10.42,20.771,2.82S875.6,776.264,875.6,776.264Z" transform="translate(-810.495 -744.298)"/>
          <path id="路径_1845" data-name="路径 1845" class="cls-22" d="M903.936,771.488s4.669,16.673,2.255,19.719-8.13,1.282-9.039,4.168-7,8.336-8.605,4.008,0-8.016-1.122-11.7c0,0-4.008-1.283-4.008-5.29s4.81-2.565,5.771-1.282,1.924.641,1.6,0a20.774,20.774,0,0,1-2.886-10.26C887.9,765.235,899.768,759.624,903.936,771.488Z" transform="translate(-823.924 -757.476)"/>
          <path id="路径_1846" data-name="路径 1846" class="cls-17" d="M892.641,871.983a47.812,47.812,0,0,1,2.974,8.745c.62,3.52.816,5.924-.966,5.283S886.162,869.658,892.641,871.983Z" transform="translate(-828.727 -836.788)"/>
          <path id="路径_1847" data-name="路径 1847" class="cls-17" d="M917.688,887.343s-4.844,3.061-5.789,4.977-1.1,7.094.5,5.387S922.338,887.664,917.688,887.343Z" transform="translate(-844.57 -848.352)"/>
          <path id="路径_1848" data-name="路径 1848" class="cls-23" d="M904.565,929.051s.336,11.1-2.648,14.466" transform="translate(-837.677 -879.205)"/>
          <path id="路径_1849" data-name="路径 1849" class="cls-18" d="M861.389,755.192s5.742-5.366,8.823-6.4,13.142-4.614,13.142-4.614-3.18-8.19-10.908-6.867S853.491,746.863,861.389,755.192Z" transform="translate(-805.547 -737.166)"/>
          <path id="路径_1850" data-name="路径 1850" class="cls-17" d="M911.674,757.792s19.275-7.89,12.709-8.879c-9.188-1.384-20.251,5.586-18.648,4.678,3.607-2.044-10.772,4.93-10.772,4.93S910.316,752.774,911.674,757.792Z" transform="translate(-832.508 -745.763)"/>
          <g id="组_727" data-name="组 727" transform="translate(103.31 8.102)">
            <path id="路径_1851" data-name="路径 1851" class="cls-21" d="M1063.012,773.572l22.561,8.1s3.3,2.068,2.116,4.831-4.84,1.2-4.84,1.2l-21.257-10.811s-2.447,1.437-4.1.727-3.584-2.321-3.3-2.984,4.152,1.91,5.178-.789-1.8-4.042-2.858-4.626,3.395-.9,4.942.679A5.818,5.818,0,0,1,1063.012,773.572Z" transform="translate(-1054.159 -768.737)"/>
            <path id="路径_1852" data-name="路径 1852" class="cls-24" d="M1117.3,807.541a.962.962,0,0,0,1.263-.505h0a.962.962,0,0,0-.505-1.263l-17.13-7.341a.962.962,0,0,0-1.263.505h0a.962.962,0,0,0,.505,1.263Z" transform="translate(-1087.926 -790.753)"/>
          </g>
          <path id="路径_1853" data-name="路径 1853" class="cls-16" d="M1158.138,807.592s1.106-1.892,1.747-1.035,1.683,4.865.481,4.945-1.923-3.366-1.923-3.366Z" transform="translate(-1028.144 -788.389)"/>
          <path id="路径_1854" data-name="路径 1854" class="cls-16" d="M1150.954,803.477s1.106-1.892,1.747-1.035,1.683,4.865.481,4.945-1.924-3.366-1.924-3.366Z" transform="translate(-1022.804 -785.341)"/>
          <path id="路径_1855" data-name="路径 1855" class="cls-16" d="M1142.5,798.732s1.158-1.98,1.829-1.083,1.762,5.091.5,5.175-2.013-3.523-2.013-3.523Z" transform="translate(-1016.521 -781.784)"/>
          <path id="路径_1856" data-name="路径 1856" class="cls-16" d="M1131.835,793.164s1.305-2.232,2.062-1.221,1.986,5.74.567,5.835-2.27-3.973-2.27-3.973Z" transform="translate(-1008.592 -777.69)"/>
          <path id="路径_1857" data-name="路径 1857" class="cls-16" d="M1109.057,805.86a2.457,2.457,0,0,1,1.571-2.012c1.552-.737,3.234-.735,4.382-1.37s2.69-.114.828,1.691a15.975,15.975,0,0,1-2.956,2.4s3.33,1.042,3.824,3.126S1109.533,810.151,1109.057,805.86Z" transform="translate(-991.659 -785.334)"/>
          <path id="路径_1858" data-name="路径 1858" class="cls-25" d="M954.94,822.362s3.126,5.509,0,5.642" transform="translate(-877.093 -800.257)"/>
          <path id="路径_1859" data-name="路径 1859" class="cls-25" d="M941.311,854.5s-1.695,3.561-5.274,0" transform="translate(-863.04 -824.067)"/>
        </g>
      </g>
    </g>
  </g>
</svg>
