<svg xmlns="http://www.w3.org/2000/svg" xmlns:xlink="http://www.w3.org/1999/xlink" width="34.143" height="29" viewBox="0 0 34.143 29">
  <defs>
    <style>
      .cls-1 {
        fill: url(#linear-gradient);
      }
    </style>
    <linearGradient id="linear-gradient" y1="0.5" x2="1" y2="0.5" gradientUnits="objectBoundingBox">
      <stop offset="0" stop-color="#ff1656"/>
      <stop offset="1" stop-color="#fe6959"/>
    </linearGradient>
  </defs>
  <path id="_2222" data-name="2222" class="cls-1" d="M109.22,226.235h-4.045a3.483,3.483,0,0,0,3.381-3.558v-.816h.783a2.992,2.992,0,0,0,2.916-3.057V216.61a3.129,3.129,0,0,0-.965-2.268,1.072,1.072,0,0,0-.159-.468l-8.4-13.1a.979.979,0,0,0-.823-.459H96.023a1.014,1.014,0,0,0-.991,1.039V211.79L89.27,200.88a2.915,2.915,0,0,0-1.589-1.489,1.77,1.77,0,0,0-1.483.241,2.179,2.179,0,0,0-.965,1.378,1.016,1.016,0,0,0-.345.362l-2.443,4.4a1.078,1.078,0,0,0,.031,1.095,2.118,2.118,0,0,1,.283,1.4c-.035.125-.137.5-.85.849a.638.638,0,0,1-.562.037,3.429,3.429,0,0,1-1.332-1.633.97.97,0,0,0-1.306-.538,1.058,1.058,0,0,0-.513,1.368,5.359,5.359,0,0,0,2.443,2.746,2.493,2.493,0,0,0,.943.186,2.689,2.689,0,0,0,1.16-.274,3.383,3.383,0,0,0,1.925-2.166,3.94,3.94,0,0,0-.235-2.514l1.257-2.268,2.142,9.5H82.707a3,3,0,0,0-2.916,3.057v2.2a2.992,2.992,0,0,0,2.916,3.057h1.2v.816a3.483,3.483,0,0,0,3.381,3.558H81.463a1.04,1.04,0,0,0,0,2.078H109.22a1.045,1.045,0,0,0,0-2.087Zm-2.651-3.558a1.448,1.448,0,0,1-1.412,1.48h-1.6a1.448,1.448,0,0,1-1.412-1.48V221a1.448,1.448,0,0,1,1.412-1.48h1.6a1.448,1.448,0,0,1,1.412,1.48Zm-9.555-16.156h7.006l4.51,7.032H97.015Zm4.359-4.128,1.314,2.05H97.015v-2.05Zm-14.1-.371a1.063,1.063,0,0,0-.08-.227.327.327,0,0,1,.013-.362,1.7,1.7,0,0,1,.314.422l6.174,11.694H89.867l-2.6-11.527Zm-5.5,16.783V216.61a.957.957,0,0,1,.934-.979h26.629a.96.96,0,0,1,.934.979v2.2a.96.96,0,0,1-.934.979h-.991a3.413,3.413,0,0,0-3.186-2.347h-1.6a3.407,3.407,0,0,0-3.186,2.347H92.093a3.413,3.413,0,0,0-3.186-2.347h-1.6a3.407,3.407,0,0,0-3.186,2.347H82.711a.968.968,0,0,1-.938-.983Zm4.116,3.873V221a1.448,1.448,0,0,1,1.412-1.48h1.6A1.448,1.448,0,0,1,90.314,221v1.679a1.448,1.448,0,0,1-1.412,1.48H87.3A1.448,1.448,0,0,1,85.889,222.677Zm6.413,0v-.816h7.86v.816a3.483,3.483,0,0,0,3.381,3.558H88.92A3.483,3.483,0,0,0,92.3,222.677Z" transform="translate(-78.114 -199.323)"/>
</svg>
