<svg xmlns="http://www.w3.org/2000/svg" xmlns:xlink="http://www.w3.org/1999/xlink" width="27.277" height="28.368" viewBox="0 0 27.277 28.368">
  <defs>
    <style>
      .cls-1 {
        fill: url(#linear-gradient);
      }
    </style>
    <linearGradient id="linear-gradient" y1="0.5" x2="1" y2="0.5" gradientUnits="objectBoundingBox">
      <stop offset="0" stop-color="#ff1656"/>
      <stop offset="1" stop-color="#fe6959"/>
    </linearGradient>
  </defs>
  <path id="_3333" data-name="3333" class="cls-1" d="M122.911,113.457h-4.364a1.091,1.091,0,1,0,0,2.182h4.364a1.091,1.091,0,1,0,0-2.182ZM128.366,108h-9.82a1.091,1.091,0,0,0,0,2.182h9.82a1.091,1.091,0,1,0,0-2.182Zm0-5.455h-9.82a1.091,1.091,0,0,0,0,2.182h9.82a1.091,1.091,0,1,0,0-2.182Zm6.546-1.091v-1.091A4.377,4.377,0,0,0,130.548,96H116.364A4.377,4.377,0,0,0,112,100.364V120a4.377,4.377,0,0,0,4.364,4.364h18.548A4.377,4.377,0,0,0,139.277,120V105.82A4.377,4.377,0,0,0,134.912,101.455ZM137.095,120a2.189,2.189,0,0,1-2.182,2.182H116.364A2.189,2.189,0,0,1,114.182,120V100.364a2.189,2.189,0,0,1,2.182-2.182h14.184a2.189,2.189,0,0,1,2.182,2.182V116.73a1.091,1.091,0,1,0,2.182,0V103.637a2.189,2.189,0,0,1,2.182,2.182Z" transform="translate(-112 -96)"/>
</svg>
