<svg xmlns="http://www.w3.org/2000/svg" width="95" height="95" viewBox="0 0 95 95">
  <defs>
    <style>
      .cls-1 {
        fill: #fafafc;
      }

      .cls-2 {
        fill: rgba(211,211,211,0.47);
      }

      .cls-3 {
        fill: #dadada;
      }
    </style>
  </defs>
  <g id="组_1259" data-name="组 1259" transform="translate(-797 -922)">
    <g id="组_1258" data-name="组 1258" transform="translate(768 786)">
      <path id="路径_2827" data-name="路径 2827" class="cls-1" d="M0,0H95V95H0Z" transform="translate(29 136)"/>
    </g>
    <g id="组_1257" data-name="组 1257" transform="translate(750.6 789)">
      <path id="路径_2828" data-name="路径 2828" class="cls-2" d="M143.581,420.839v7.841a3.564,3.564,0,0,1-3.562,3.562H90.162A3.564,3.564,0,0,1,86.6,428.68v-7.009l7.942-7.908a1.547,1.547,0,0,1,2.388.161l9.545,11.792a1.559,1.559,0,0,0,2.535-.007l17.9-22.417a1.572,1.572,0,0,1,2.549-.007Z" transform="translate(-21.644 -229.161)"/>
      <path id="路径_2829" data-name="路径 2829" class="cls-3" d="M118.375,412.119H68.518A5.121,5.121,0,0,1,63.4,407v-7.653l8.4-8.371a3.118,3.118,0,0,1,2.381-.939,3.187,3.187,0,0,1,2.314,1.221l9.552,11.8a.2.2,0,0,0,.054.054.4.4,0,0,0,.054-.054l17.9-22.417a3.2,3.2,0,0,1,2.489-1.241h.007a3.2,3.2,0,0,1,2.489,1.234l14.468,17.983v8.391A5.14,5.14,0,0,1,118.375,412.119ZM66.512,400.643V407a2.007,2.007,0,0,0,2.006,2.006h49.857A2.007,2.007,0,0,0,120.381,407V399.71L106.6,382.586a.172.172,0,0,0-.067-.06c0,.013-.027.034-.054.067L88.587,405a3.182,3.182,0,0,1-2.482,1.241H86.1a3.208,3.208,0,0,1-2.482-1.227l-9.538-11.785a.547.547,0,0,0-.054-.06.093.093,0,0,1-.027.02Z" transform="translate(0 -207.482)"/>
      <path id="路径_2830" data-name="路径 2830" class="cls-3" d="M86.1,198.761a3.208,3.208,0,0,1-2.482-1.227l-9.538-11.792a.549.549,0,0,0-.054-.06.093.093,0,0,1-.027.02L63.4,196.259V162.118A5.121,5.121,0,0,1,68.518,157h49.857a5.121,5.121,0,0,1,5.118,5.118V196.1L106.6,175.1a.172.172,0,0,0-.067-.06c0,.013-.027.034-.054.067l-17.9,22.4a3.182,3.182,0,0,1-2.482,1.241A.007.007,0,0,1,86.1,198.761ZM74.011,182.556a1.457,1.457,0,0,1,.168.007,3.187,3.187,0,0,1,2.314,1.221l9.552,11.792a.2.2,0,0,0,.054.054.4.4,0,0,0,.054-.054l17.9-22.417a3.2,3.2,0,0,1,2.489-1.241h.007a3.2,3.2,0,0,1,2.489,1.234l11.349,14.106V162.125a2.007,2.007,0,0,0-2.006-2.006H68.518a2.007,2.007,0,0,0-2.006,2.006V188.76l5.286-5.265A3.117,3.117,0,0,1,74.011,182.556Z" transform="translate(0)"/>
      <path id="路径_2831" data-name="路径 2831" class="cls-2" d="M204.739,278.539m-5.339,0a5.339,5.339,0,1,0,5.339-5.339A5.339,5.339,0,0,0,199.4,278.539Z" transform="translate(-126.878 -108.406)"/>
      <path id="路径_2832" data-name="路径 2832" class="cls-3" d="M183,263.8a6.9,6.9,0,1,1,6.9-6.9A6.909,6.909,0,0,1,183,263.8Zm0-10.685a3.783,3.783,0,1,0,3.783,3.783A3.787,3.787,0,0,0,183,253.112Z" transform="translate(-105.141 -86.762)"/>
    </g>
  </g>
</svg>
