<svg xmlns="http://www.w3.org/2000/svg" xmlns:xlink="http://www.w3.org/1999/xlink" width="51.318" height="48.07" viewBox="0 0 51.318 48.07">
  <defs>
    <style>
      .cls-1 {
        fill: url(#linear-gradient);
      }

      .cls-2 {
        filter: url(#路径_2939);
      }
    </style>
    <linearGradient id="linear-gradient" x1="0.188" x2="0.733" y2="1" gradientUnits="objectBoundingBox">
      <stop offset="0" stop-color="#fff"/>
      <stop offset="1" stop-color="#fff" stop-opacity="0.502"/>
    </linearGradient>
    <filter id="路径_2939" x="0" y="0" width="51.318" height="48.07" filterUnits="userSpaceOnUse">
      <feOffset dy="3" input="SourceAlpha"/>
      <feGaussianBlur stdDeviation="3" result="blur"/>
      <feFlood flood-color="#d6451e" flood-opacity="0.812"/>
      <feComposite operator="in" in2="blur"/>
      <feComposite in="SourceGraphic"/>
    </filter>
  </defs>
  <g class="cls-2" transform="matrix(1, 0, 0, 1, 0, 0)">
    <path id="路径_2939-2" data-name="路径 2939" class="cls-1" d="M6.487,30.07V25.79H2.915A2.915,2.915,0,0,1,0,22.906V12.2A2.926,2.926,0,0,1,2.915,9.288H7.288V11.37H2.915a.833.833,0,0,0-.833.833v10.7a.833.833,0,0,0,.833.833H8.569v2.582l4.082-2.582h5.268v2.082H13.254Zm20.855-3.332-8.6-5.414H9.777a3.54,3.54,0,0,1-3.53-3.54V3.54A3.54,3.54,0,0,1,9.777,0H29.789a3.551,3.551,0,0,1,3.53,3.54V17.784a3.551,3.551,0,0,1-3.54,3.54H27.342ZM9.777,2.082A1.458,1.458,0,0,0,8.33,3.54V17.784a1.458,1.458,0,0,0,1.458,1.458h9.579l5.893,3.717V19.241h4.529a1.458,1.458,0,0,0,1.458-1.458V3.54a1.458,1.458,0,0,0-1.458-1.458ZM28.685,14.608H26.6v-.469L25,10.006l-1.614,4.134v.469H21.3v-.854l2.9-7.476H25.78l2.9,7.476Zm-13.067-.031a4.165,4.165,0,1,1,4.165-4.165,4.165,4.165,0,0,1-4.165,4.165Zm0-6.247A2.082,2.082,0,1,0,17.7,10.412,2.082,2.082,0,0,0,15.618,8.33Zm1.457,5.034,1.471-1.473,1.591,1.59-1.472,1.473Z" transform="translate(9 6)"/>
  </g>
</svg>
