<svg xmlns="http://www.w3.org/2000/svg" width="14.777" height="14.777" viewBox="0 0 14.777 14.777">
  <defs>
    <style>
      .cls-1 {
        fill: none;
      }

      .cls-2 {
        fill: #555770;
      }
    </style>
  </defs>
  <g id="tabbar-moments" transform="translate(0.01 -0.008)">
    <path id="路径_1" data-name="路径 1" class="cls-1" d="M10.394,7.29l3.655-1.916a.5.5,0,0,0,.231-.619A7.41,7.41,0,0,0,10.374.643a.5.5,0,0,0-.7.447V6.853a.493.493,0,0,0,.721.436ZM8.688,4.642V.552A.5.5,0,0,0,8.252.061,7.349,7.349,0,0,0,3.089,1.383a.494.494,0,0,0,.033.828L7.945,5.065a.492.492,0,0,0,.743-.424ZM12.6,12a.5.5,0,0,0,.645-.126A7.35,7.35,0,0,0,14.75,6.9a.494.494,0,0,0-.722-.4L9.122,9.069a.492.492,0,0,0-.022.86ZM6.076,10.148v4.094a.5.5,0,0,0,.437.491,7.364,7.364,0,0,0,5.162-1.327.494.494,0,0,0-.033-.828L6.82,9.724a.493.493,0,0,0-.743.424ZM4.37,7.5.708,9.42a.5.5,0,0,0-.231.619A7.411,7.411,0,0,0,4.39,14.154a.5.5,0,0,0,.7-.447V7.936A.492.492,0,0,0,4.37,7.5ZM2.156,2.784a.5.5,0,0,0-.645.125,7.351,7.351,0,0,0-1.5,4.983.494.494,0,0,0,.722.4L5.642,5.72a.492.492,0,0,0,.022-.86Z"/>
    <path id="路径_2" data-name="路径 2" class="cls-2" d="M7.369.808a6.506,6.506,0,0,0-3.419.963L7.888,4.1V.828C7.715.815,7.541.808,7.369.808m3.1.773V6.345l2.959-1.551A6.555,6.555,0,0,0,10.473,1.58M1.986,3.613A6.545,6.545,0,0,0,.79,7.361L4.782,5.268l-2.8-1.655M13.967,7.432,9.982,9.521l2.792,1.653a6.545,6.545,0,0,0,1.192-3.742M4.291,8.444,1.325,10a6.555,6.555,0,0,0,2.966,3.217V8.444m2.585,2.243v3.278c.168.013.336.02.5.02a6.535,6.535,0,0,0,3.436-.967L6.876,10.687M7.369.008a7.349,7.349,0,0,1,.883.053.5.5,0,0,1,.436.491v4.09a.493.493,0,0,1-.493.493.488.488,0,0,1-.25-.069L3.122,2.211a.494.494,0,0,1-.033-.828A7.349,7.349,0,0,1,7.369.008Zm2.8.591a.507.507,0,0,1,.206.044A7.411,7.411,0,0,1,14.28,4.755a.5.5,0,0,1-.231.619L10.394,7.29h0a.492.492,0,0,1-.721-.436V1.09A.492.492,0,0,1,10.168.6ZM1.9,2.715a.493.493,0,0,1,.251.069L5.664,4.86a.492.492,0,0,1-.022.86L.729,8.3a.493.493,0,0,1-.722-.4,7.351,7.351,0,0,1,1.5-4.983A.5.5,0,0,1,1.9,2.715ZM14.256,6.44a.5.5,0,0,1,.493.461,7.35,7.35,0,0,1-1.5,4.977.495.495,0,0,1-.645.126h0L9.1,9.929a.492.492,0,0,1,.022-.86L14.028,6.5A.49.49,0,0,1,14.256,6.44Zm-9.658,1a.493.493,0,0,1,.493.493v5.77A.492.492,0,0,1,4.6,14.2a.507.507,0,0,1-.206-.044A7.411,7.411,0,0,1,.477,10.038.5.5,0,0,1,.708,9.42L4.37,7.5A.49.49,0,0,1,4.6,7.443ZM6.57,9.654a.489.489,0,0,1,.25.069l4.822,2.854a.494.494,0,0,1,.033.828,7.362,7.362,0,0,1-5.162,1.327.5.5,0,0,1-.437-.491V10.148A.493.493,0,0,1,6.57,9.654Z"/>
  </g>
</svg>
