<svg xmlns="http://www.w3.org/2000/svg" width="18" height="18" viewBox="0 0 18 18">
  <defs>
    <style>
      .cls-1 {
        fill: none;
      }

      .cls-2 {
        fill: #555770;
      }
    </style>
  </defs>
  <g id="组_605" data-name="组 605" transform="translate(-1215 -1106)">
    <rect id="矩形_647" data-name="矩形 647" class="cls-1" width="18" height="18" transform="translate(1215 1106)"/>
    <g id="组_591" data-name="组 591" transform="translate(1216 1108)">
      <path id="路径_1206" data-name="路径 1206" class="cls-2" d="M370.859,148.224a.506.506,0,0,1-.358-.865l1.809-1.809c.407-.407.089-.9-.258-1.252l-3.727-3.727a1.228,1.228,0,0,0-.626-.4.445.445,0,0,0-.4.169l-3.607,3.607a1.255,1.255,0,0,0,1.5.05c.646-.566,1.57-1.57,1.58-1.58a.506.506,0,0,1,.745.686c-.04.04-.974,1.053-1.66,1.66a2.377,2.377,0,0,1-3.289-.437.5.5,0,0,1,.01-.706l3.995-3.995c.7-.7,1.62-.616,2.464.229l3.727,3.727c.9.9,1,1.938.258,2.683l-1.809,1.809A.5.5,0,0,1,370.859,148.224Z" transform="translate(-357.148 -139.158)"/>
      <path id="路径_1207" data-name="路径 1207" class="cls-2" d="M98.459,182.552a1.608,1.608,0,0,1-.219-.01,2.078,2.078,0,0,1-1.183-.6l-4.045-4.055a8.07,8.07,0,0,1-1.282-1.679,7.884,7.884,0,0,0-.547-.825c-.06-.08-.129-.159-.2-.239-.417-.507-.676-.835-.7-1.173a.126.126,0,0,0-.01-.06,1.831,1.831,0,0,1,.616-1.64l3.23-3.23a1.7,1.7,0,0,1,2.147-.02l.089.04c.089.04.189.089.278.139a8.435,8.435,0,0,1,1.9,1.153.507.507,0,1,1-.666.765,7.5,7.5,0,0,0-1.679-1c-.1-.05-.2-.1-.3-.139l-.089-.05c-.636-.318-.8-.348-.984-.169l-3.21,3.23a.844.844,0,0,0-.328.815.09.09,0,0,0,.01.05,4.21,4.21,0,0,0,.477.636c.07.089.149.179.209.258a8.069,8.069,0,0,1,.626.934,6.61,6.61,0,0,0,1.123,1.491l4.045,4.045a1.084,1.084,0,0,0,.6.308.459.459,0,0,0,.348-.07c.2-.2,1.212-1.093,2.624-2.335.8-.7,1.689-1.481,1.779-1.58.01-.01.527-.676.05-1.153l-3.737-3.736a.506.506,0,0,1,.716-.716l3.737,3.737a1.672,1.672,0,0,1,.457,1.56,2.19,2.19,0,0,1-.507,1.024c-.109.109-.735.656-1.829,1.62-1.063.934-2.385,2.1-2.574,2.286A1.333,1.333,0,0,1,98.459,182.552ZM91.284,173.847Z" transform="translate(-90.263 -168.071)"/>
      <path id="路径_1208" data-name="路径 1208" class="cls-2" d="M478.067,544.528a.5.5,0,0,1-.358-.149l-1.819-1.819a.506.506,0,1,1,.716-.715l1.819,1.819a.5.5,0,0,1,0,.715A.472.472,0,0,1,478.067,544.528Zm-1.272,1.282a.5.5,0,0,1-.358-.149l-1.819-1.819a.506.506,0,1,1,.716-.715l1.819,1.819a.507.507,0,0,1-.358.865Zm-1.381,1.381a.5.5,0,0,1-.358-.149l-1.819-1.819a.506.506,0,1,1,.716-.716l1.819,1.819a.507.507,0,0,1-.358.865Z" transform="translate(-465.658 -533.883)"/>
    </g>
  </g>
</svg>
