<svg xmlns="http://www.w3.org/2000/svg" width="12.755" height="14.721" viewBox="0 0 12.755 14.721">
  <defs>
    <style>
      .cls-1 {
        fill: #55576f;
      }
    </style>
  </defs>
  <path id="路径_2931" data-name="路径 2931" class="cls-1" d="M160.352,105.173a3.753,3.753,0,0,0,1.59-3.05,3.867,3.867,0,0,0-7.731,0,3.748,3.748,0,0,0,1.59,3.05,6.244,6.244,0,0,0-4.1,5.817,2.1,2.1,0,0,0,2.129,2.074h8.5a2.1,2.1,0,0,0,2.129-2.074A6.253,6.253,0,0,0,160.352,105.173Zm-4.985-3.049a2.709,2.709,0,1,1,2.775,2.639h-.067A2.678,2.678,0,0,1,155.368,102.125Zm6.956,9.809h-8.5a.955.955,0,0,1-.971-.94v0a5.222,5.222,0,0,1,10.439,0,.955.955,0,0,1-.967.942Z" transform="translate(-151.7 -98.344)"/>
</svg>
