<svg xmlns="http://www.w3.org/2000/svg" xmlns:xlink="http://www.w3.org/1999/xlink" width="98" height="98" viewBox="0 0 98 98">
  <defs>
    <style>
      .cls-1 {
        fill: url(#linear-gradient);
      }

      .cls-2 {
        fill: #fff;
        stroke: rgba(0,0,0,0);
        font-size: 13px;
        font-family: PingFangSC-Medium, PingFang SC;
        font-weight: 500;
      }

      .cls-3 {
        fill: url(#linear-gradient-2);
      }

      .cls-4 {
        filter: url(#路径_1212);
      }

      .cls-5 {
        filter: url(#矩形_976);
      }
    </style>
    <linearGradient id="linear-gradient" x1="0.929" y1="0.965" x2="-0.075" y2="-0.051" gradientUnits="objectBoundingBox">
      <stop offset="0" stop-color="#ff1656"/>
      <stop offset="1" stop-color="#ffba50"/>
    </linearGradient>
    <filter id="矩形_976" x="0" y="0" width="98" height="98" filterUnits="userSpaceOnUse">
      <feOffset dy="3" input="SourceAlpha"/>
      <feGaussianBlur stdDeviation="3" result="blur"/>
      <feFlood flood-color="#ff3655" flood-opacity="0.259"/>
      <feComposite operator="in" in2="blur"/>
      <feComposite in="SourceGraphic"/>
    </filter>
    <linearGradient id="linear-gradient-2" x1="0.5" x2="0.5" y2="1" gradientUnits="objectBoundingBox">
      <stop offset="0" stop-color="#fff"/>
      <stop offset="1" stop-color="#fff" stop-opacity="0.502"/>
    </linearGradient>
    <filter id="路径_1212" x="24" y="15.986" width="49.574" height="45.183" filterUnits="userSpaceOnUse">
      <feOffset dy="3" input="SourceAlpha"/>
      <feGaussianBlur stdDeviation="3" result="blur-2"/>
      <feFlood flood-color="#ee1439"/>
      <feComposite operator="in" in2="blur-2"/>
      <feComposite in="SourceGraphic"/>
    </filter>
  </defs>
  <g id="组_1194" data-name="组 1194" transform="translate(-83 -549.014)">
    <g class="cls-5" transform="matrix(1, 0, 0, 1, 83, 549.01)">
      <rect id="矩形_976-2" data-name="矩形 976" class="cls-1" width="80" height="80" rx="5" transform="translate(9 6)"/>
    </g>
    <text id="救援" class="cls-2" transform="translate(132 619.375)"><tspan x="-13" y="0">救援</tspan></text>
    <g id="组件_45_18" data-name="组件 45 – 18" transform="translate(116 571)">
      <g class="cls-4" transform="matrix(1, 0, 0, 1, -33, -21.99)">
        <path id="路径_1212-2" data-name="路径 1212" class="cls-3" d="M24.287,116.593a1.284,1.284,0,0,0-1.215,1.287,1.256,1.256,0,0,0,1.215,1.286,1.289,1.289,0,0,0,0-2.573ZM8.015,119.166a1.289,1.289,0,0,0,0-2.573A1.313,1.313,0,0,0,6.8,117.88a1.256,1.256,0,0,0,1.215,1.286Zm23.072-10.89-3.481-7.332a1.2,1.2,0,0,0-1.134-.814H19.754a1.229,1.229,0,0,0-1.215,1.286v10.376l-7.083-7.546h-.041L3.765,96.1a1.129,1.129,0,0,0-1.7,0,1.294,1.294,0,0,0,0,1.8l.122.129v8.532a2.4,2.4,0,0,0,.931,2.187.531.531,0,0,1,.243.472.5.5,0,0,1-.122.343H3.2c-.04.085-.2.129-.324.129a.446.446,0,0,1-.324-.129.5.5,0,0,1-.122-.343.748.748,0,0,0-.728-.772.716.716,0,0,0-.687.772,2.109,2.109,0,0,0,.566,1.458,1.958,1.958,0,0,0,1.336.6,1.878,1.878,0,0,0,1.335-.6l.041-.086a2.046,2.046,0,0,0,.526-1.373,1.9,1.9,0,0,0-.769-1.672,1.045,1.045,0,0,1-.4-.986V99.572l5.748,6.089v6.473H.85a1.256,1.256,0,0,0-1.215,1.287v4.46A1.229,1.229,0,0,0,.85,119.166H3.482a5.389,5.389,0,0,0,1.254,2.272A4.575,4.575,0,0,0,8.1,122.9a4.646,4.646,0,0,0,3.36-1.458,5.589,5.589,0,0,0,1.254-2.272h7.083a5.324,5.324,0,0,0,1.215,2.272,4.575,4.575,0,0,0,3.36,1.458,4.5,4.5,0,0,0,3.238-1.415l.081-.085a5.085,5.085,0,0,0,1.215-2.273h1.093a1.255,1.255,0,0,0,1.215-1.286v-9a1.386,1.386,0,0,0-.121-.557Zm-19.308-.043,3.684,3.9H11.78v-3.9Zm6.759,8.361h-7a1.23,1.23,0,0,0-1.215,1.287v.042a2.5,2.5,0,0,1-.688,1.715,2.253,2.253,0,0,1-3.238,0,2.579,2.579,0,0,1-.689-1.715,1.229,1.229,0,0,0-1.215-1.286H2.065V114.75H18.539v1.843ZM20.968,102.7h2.347v-.042h2.347l1.943,4.159H20.968V102.7Zm7.772,13.892h-.932a1.23,1.23,0,0,0-1.215,1.287v.042a2.465,2.465,0,0,1-.648,1.715l-.04.043a2.135,2.135,0,0,1-1.579.643,2.194,2.194,0,0,1-1.619-.686,2.5,2.5,0,0,1-.688-1.715,1.272,1.272,0,0,0-1.052-1.286v-7.7h7.407l.365.73v6.932Z" transform="translate(33.36 -73.73)"/>
      </g>
    </g>
  </g>
</svg>
