<svg xmlns="http://www.w3.org/2000/svg" width="14.921" height="14.924" viewBox="0 0 14.921 14.924">
  <defs>
    <style>
      .cls-1 {
        fill: none;
        stroke: #555770;
      }
    </style>
  </defs>
  <path id="tabbar-index" class="cls-1" d="M77.839,64.044a.2.2,0,0,0-.225-.033l-13.5,7.171a.215.215,0,0,0,0,.384l3.82,1.913a.2.2,0,0,0,.216-.021l3.713-3.606-2.4,4.015a.237.237,0,0,0-.046.157l.227,3.691a.2.2,0,0,0,.111.177.132.132,0,0,0,.051.01.148.148,0,0,0,.122-.071l1.644-2.4,2.506,1.222a.2.2,0,0,0,.173,0,.21.21,0,0,0,.115-.131L77.9,64.266A.215.215,0,0,0,77.839,64.044Z" transform="translate(-63.496 -63.478)"/>
</svg>
