<svg xmlns="http://www.w3.org/2000/svg" xmlns:xlink="http://www.w3.org/1999/xlink" width="78" height="78" viewBox="0 0 78 78">
  <defs>
    <style>
      .cls-1 {
        fill: url(#linear-gradient);
      }

      .cls-2 {
        fill: url(#linear-gradient-2);
      }

      .cls-3 {
        fill: #fff;
        font-size: 10px;
        font-family: PingFangSC-Regular, PingFang SC;
      }

      .cls-4 {
        filter: url(#路径_1210);
      }

      .cls-5 {
        filter: url(#路径_2669);
      }
    </style>
    <linearGradient id="linear-gradient" x1="0.049" y1="-0.078" x2="0.922" y2="1.089" gradientUnits="objectBoundingBox">
      <stop offset="0" stop-color="#ff1656"/>
      <stop offset="1" stop-color="#ffba50"/>
    </linearGradient>
    <filter id="路径_2669" x="0" y="0" width="78" height="78" filterUnits="userSpaceOnUse">
      <feOffset dy="3" input="SourceAlpha"/>
      <feGaussianBlur stdDeviation="3" result="blur"/>
      <feFlood flood-color="#ffa61d" flood-opacity="0.322"/>
      <feComposite operator="in" in2="blur"/>
      <feComposite in="SourceGraphic"/>
    </filter>
    <linearGradient id="linear-gradient-2" x1="0.188" x2="0.733" y2="1" gradientUnits="objectBoundingBox">
      <stop offset="0" stop-color="#fff"/>
      <stop offset="1" stop-color="#fff" stop-opacity="0.502"/>
    </linearGradient>
    <filter id="路径_1210" x="19" y="8.567" width="39.435" height="39.431" filterUnits="userSpaceOnUse">
      <feOffset dy="3" input="SourceAlpha"/>
      <feGaussianBlur stdDeviation="3" result="blur-2"/>
      <feFlood flood-color="#da3a0f" flood-opacity="0.941"/>
      <feComposite operator="in" in2="blur-2"/>
      <feComposite in="SourceGraphic"/>
    </filter>
  </defs>
  <g id="组_1196" data-name="组 1196" transform="translate(-3785 -3024)">
    <g id="组_1088" data-name="组 1088" transform="translate(3717 2568)">
      <g class="cls-5" transform="matrix(1, 0, 0, 1, 68, 456)">
        <path id="路径_2669-2" data-name="路径 2669" class="cls-1" d="M30,0A30,30,0,1,1,0,30,30,30,0,0,1,30,0Z" transform="translate(9 6)"/>
      </g>
      <g class="cls-4" transform="matrix(1, 0, 0, 1, 68, 456)">
        <path id="路径_1210-2" data-name="路径 1210" class="cls-2" d="M80.524,64.554a5.553,5.553,0,0,1-1.157,5.962,5.253,5.253,0,0,1-6.4.876l-1.475,1.646,1.052,1.079.629-.643a.812.812,0,0,1,1.165,0l5.1,5.265a.854.854,0,0,1,0,1.19l-2.33,2.38a.811.811,0,0,1-1.165,0l-5.1-5.265a.854.854,0,0,1,0-1.19l.574-.587-1-1.028L63.36,82.115a1.622,1.622,0,0,1-2.329,0l-.582-.6a1.708,1.708,0,0,1,0-2.38l8.039-6.878-5.34-5.469H61.454l-1.954-3.2,1.571-1.607,3.209,2.006.022,1.687,5.4,5.539,1.572-1.345a5.542,5.542,0,0,1,.518-7.086,5.271,5.271,0,0,1,5.809-1.2L74.14,65.067l2.911,2.974ZM62.374,79.98a.812.812,0,0,0-1.165,0,.855.855,0,0,0,0,1.19.812.812,0,0,0,1.165,0,.855.855,0,0,0,0-1.19Z" transform="translate(-31.5 -46.61)"/>
      </g>
    </g>
    <text id="修车救援" class="cls-3" transform="translate(3824 3075)"><tspan x="-20" y="0">修车救援</tspan></text>
  </g>
</svg>
