<svg xmlns="http://www.w3.org/2000/svg" width="18" height="18" viewBox="0 0 18 18">
  <defs>
    <style>
      .cls-1, .cls-2 {
        fill: none;
      }

      .cls-2 {
        stroke: #555770;
      }
    </style>
  </defs>
  <g id="组_610" data-name="组 610" transform="translate(-1087 -1129)">
    <rect id="矩形_647" data-name="矩形 647" class="cls-1" width="18" height="18" transform="translate(1087 1129)"/>
    <path id="路径_1188" data-name="路径 1188" class="cls-2" d="M77.839,64.044a.2.2,0,0,0-.225-.033l-13.5,7.171a.215.215,0,0,0,0,.384l3.82,1.913a.2.2,0,0,0,.216-.021l3.713-3.606-2.4,4.015a.237.237,0,0,0-.046.157l.227,3.691a.2.2,0,0,0,.111.177.132.132,0,0,0,.051.01.148.148,0,0,0,.122-.071l1.644-2.4,2.506,1.222a.2.2,0,0,0,.173,0,.21.21,0,0,0,.115-.131L77.9,64.266A.215.215,0,0,0,77.839,64.044Z" transform="translate(1025.501 1067.509)"/>
  </g>
</svg>
