<svg xmlns="http://www.w3.org/2000/svg" width="14.171" height="12.769" viewBox="0 0 14.171 12.769">
  <defs>
    <style>
      .cls-1 {
        fill: #555770;
      }
    </style>
  </defs>
  <g id="tabbar-bike" transform="translate(-161.3 -169)">
    <path id="路径_3" data-name="路径 3" class="cls-1" d="M174.8,169H161.969a.668.668,0,0,0-.669.669v9.886a.668.668,0,0,0,.669.669H167l1.716,1.545,1.776-1.545H174.8a.668.668,0,0,0,.669-.669v-9.884A.672.672,0,0,0,174.8,169Zm-.241,10.3H170.14l-1.423,1.233-1.356-1.233h-5.175v-9.375h12.375Zm0,0" transform="translate(0 0)"/>
    <path id="路径_4" data-name="路径 4" class="cls-1" d="M261.4,310.2h9.839v.806H261.4Zm0,2.343h6.867v.806H261.4Zm0,2.274h3.883v.806H261.4Zm0,0" transform="translate(-97.92 -138.573)"/>
  </g>
</svg>
