<svg xmlns="http://www.w3.org/2000/svg" xmlns:xlink="http://www.w3.org/1999/xlink" width="18" height="18" viewBox="0 0 18 18">
  <defs>
    <style>
      .cls-1 {
        fill: none;
      }

      .cls-2 {
        fill: url(#linear-gradient);
      }
    </style>
    <linearGradient id="linear-gradient" y1="0.5" x2="1" y2="0.5" gradientUnits="objectBoundingBox">
      <stop offset="0" stop-color="#ff1656"/>
      <stop offset="1" stop-color="#fe6959"/>
    </linearGradient>
  </defs>
  <g id="组_612" data-name="组 612" transform="translate(-1355 -1048)">
    <g id="组_609" data-name="组 609">
      <rect id="矩形_647" data-name="矩形 647" class="cls-1" width="18" height="18" transform="translate(1355 1048)"/>
      <path id="路径_1195" data-name="路径 1195" class="cls-2" d="M10.394,7.29l3.655-1.916a.5.5,0,0,0,.231-.619A7.41,7.41,0,0,0,10.374.643a.5.5,0,0,0-.7.447V6.853a.493.493,0,0,0,.721.436ZM8.688,4.642V.552A.5.5,0,0,0,8.252.061,7.349,7.349,0,0,0,3.089,1.383a.494.494,0,0,0,.033.828L7.945,5.065a.492.492,0,0,0,.743-.424ZM12.605,12a.5.5,0,0,0,.645-.126A7.35,7.35,0,0,0,14.75,6.9a.494.494,0,0,0-.722-.4L9.122,9.069a.492.492,0,0,0-.022.86L12.605,12ZM6.076,10.148v4.094a.5.5,0,0,0,.437.491,7.364,7.364,0,0,0,5.162-1.327.494.494,0,0,0-.033-.828L6.82,9.724a.493.493,0,0,0-.743.424ZM4.37,7.5.708,9.42a.5.5,0,0,0-.231.619,7.411,7.411,0,0,0,3.913,4.115.5.5,0,0,0,.7-.447V7.936A.492.492,0,0,0,4.37,7.5ZM2.156,2.784a.5.5,0,0,0-.645.125,7.351,7.351,0,0,0-1.5,4.983.494.494,0,0,0,.722.4L5.642,5.72a.492.492,0,0,0,.022-.86Z" transform="translate(1357.01 1049.992)"/>
    </g>
  </g>
</svg>
