<svg xmlns="http://www.w3.org/2000/svg" xmlns:xlink="http://www.w3.org/1999/xlink" width="18" height="18" viewBox="0 0 18 18">
  <defs>
    <style>
      .cls-1 {
        fill: none;
      }

      .cls-2 {
        fill: url(#linear-gradient);
      }
    </style>
    <linearGradient id="linear-gradient" y1="0.5" x2="1" y2="0.5" gradientUnits="objectBoundingBox">
      <stop offset="0" stop-color="#ff1656"/>
      <stop offset="1" stop-color="#fe6959"/>
    </linearGradient>
  </defs>
  <g id="组_613" data-name="组 613" transform="translate(-1393 -1086)">
    <rect id="矩形_647" data-name="矩形 647" class="cls-1" width="18" height="18" transform="translate(1393 1086)"/>
    <path id="路径_1198" data-name="路径 1198" class="cls-2" d="M49.034,200.067a3.449,3.449,0,0,0-1.118-.747,3.376,3.376,0,0,0-1.314-.263l-2.14-2.818a1.682,1.682,0,0,0,.343.035c.04,0,.081,0,.129,0a.364.364,0,0,0,.338-.363v-1.839a.364.364,0,0,0-.338-.363c-.048,0-.089-.005-.129-.005a1.626,1.626,0,0,0-1.022.348H42.266a.363.363,0,0,0-.364.364v.273l-.429-.429a.37.37,0,0,0-.258-.106H40.189a.364.364,0,1,0,0,.729h.875l.858.858.845,2.736-.568,2.819a.006.006,0,0,0,0,0,.346.346,0,0,1-.34.282H40.471a.339.339,0,0,1-.265-.124.336.336,0,0,1-.075-.282l.5-2.453a.751.751,0,0,0,.378-.651v-.459a.751.751,0,0,0-.75-.75H36.972a1.211,1.211,0,0,0-1.209,1.209.757.757,0,0,0,.038.239,3.456,3.456,0,0,0-1.8,1.065,5.352,5.352,0,0,0-1.017,2.715.365.365,0,0,0,.359.426h.712a2.417,2.417,0,0,0,4.461,1.232h5.093a.367.367,0,0,0,.366-.364v-.124a.332.332,0,0,0-.012-.089,2.763,2.763,0,0,1-.083-.669,2.726,2.726,0,0,1,2.713-2.713,2.73,2.73,0,0,1,1.92.8.364.364,0,1,0,.515-.515Zm-2.435-.027a2.417,2.417,0,1,0,2.417,2.417A2.418,2.418,0,0,0,46.6,200.041Z" transform="translate(1361.016 895.3)"/>
  </g>
</svg>
