<svg xmlns="http://www.w3.org/2000/svg" xmlns:xlink="http://www.w3.org/1999/xlink" width="14.171" height="12.77" viewBox="0 0 14.171 12.77">
  <defs>
    <style>
      .cls-1 {
        fill: url(#linear-gradient);
      }
    </style>
    <linearGradient id="linear-gradient" y1="0.5" x2="1" y2="0.5" gradientUnits="objectBoundingBox">
      <stop offset="0" stop-color="#ff1656"/>
      <stop offset="1" stop-color="#fe6959"/>
    </linearGradient>
  </defs>
  <g id="组_4" data-name="组 4" transform="translate(-161.3 -169)">
    <path id="减去_2" data-name="减去 2" class="cls-1" d="M-113.02-209.577h0l-1.715-1.545h-5.033a.67.67,0,0,1-.67-.67v-9.886a.67.67,0,0,1,.67-.67h12.833a.674.674,0,0,1,.669.671v9.884a.67.67,0,0,1-.669.67h-4.309l-1.775,1.545Zm-5.237-5.526h0v.806h3.883v-.806Zm0-2.273h0v.806h6.867v-.806Zm0-2.343v.806h9.839v-.806Z" transform="translate(281.738 391.346)"/>
  </g>
</svg>
