<svg xmlns="http://www.w3.org/2000/svg" width="18" height="18" viewBox="0 0 18 18">
  <defs>
    <style>
      .cls-1 {
        fill: none;
      }

      .cls-2 {
        fill: #555770;
      }
    </style>
  </defs>
  <g id="组_607" data-name="组 607" transform="translate(-1175 -1136)">
    <rect id="矩形_647" data-name="矩形 647" class="cls-1" width="18" height="18" transform="translate(1175 1136)"/>
    <path id="路径_1197" data-name="路径 1197" class="cls-2" d="M49.034,200.067a3.449,3.449,0,0,0-1.118-.747,3.376,3.376,0,0,0-1.314-.263l-2.14-2.818a1.682,1.682,0,0,0,.343.035c.04,0,.081,0,.129,0a.364.364,0,0,0,.338-.363v-1.839a.364.364,0,0,0-.338-.363c-.048,0-.089-.005-.129-.005a1.626,1.626,0,0,0-1.022.348H42.266a.363.363,0,0,0-.364.364v.273l-.429-.429a.37.37,0,0,0-.258-.106H40.189a.364.364,0,1,0,0,.729h.875l.858.858.845,2.736-.568,2.819a.006.006,0,0,0,0,0,.346.346,0,0,1-.34.282H40.471a.339.339,0,0,1-.265-.124.336.336,0,0,1-.075-.282l.5-2.453a.751.751,0,0,0,.378-.651v-.459a.751.751,0,0,0-.75-.75H36.972a1.211,1.211,0,0,0-1.209,1.209.757.757,0,0,0,.038.239,3.456,3.456,0,0,0-1.8,1.065,5.352,5.352,0,0,0-1.017,2.715.365.365,0,0,0,.359.426h.712a2.417,2.417,0,0,0,4.461,1.232h5.093a.367.367,0,0,0,.366-.364v-.124a.332.332,0,0,0-.012-.089,2.763,2.763,0,0,1-.083-.669,2.726,2.726,0,0,1,2.713-2.713,2.73,2.73,0,0,1,1.92.8.364.364,0,1,0,.515-.515Zm-4.49-4.558a.823.823,0,0,1-.345-.187.39.39,0,0,0-.05-.055.443.443,0,0,1-.108-.282.609.609,0,0,1,.5-.523Zm-1.211-.732a1.118,1.118,0,0,0-.02.21,1.009,1.009,0,0,0,.017.187h-.7v-.4Zm-6.818,3.314a.022.022,0,0,1-.022-.022.481.481,0,0,1,.48-.48h3.285a.022.022,0,0,1,.022.021v.459a.022.022,0,0,1-.022.022Zm-.038,6.054a1.69,1.69,0,0,1-1.686-1.632h3.372A1.69,1.69,0,0,1,36.477,204.145Zm7.691-4.076a3.42,3.42,0,0,0-.972,2.948H38.829a2.464,2.464,0,0,0,.038-.921.367.367,0,0,0-.361-.31H33.784a4.074,4.074,0,0,1,.775-1.938,2.542,2.542,0,0,1,1.1-.732,6.019,6.019,0,0,1,2.032-.295h2.178l-.449,2.211a.006.006,0,0,0,0,0,1.073,1.073,0,0,0,1.055,1.272h1.386a1.075,1.075,0,0,0,1.055-.873l.583-2.9a.394.394,0,0,0-.012-.205l-.749-2.43h.557l2.473,3.255A3.431,3.431,0,0,0,44.168,200.069Zm2.432-.028a2.417,2.417,0,1,0,2.417,2.417A2.418,2.418,0,0,0,46.6,200.041Zm0,4.1a1.688,1.688,0,1,1,1.688-1.688A1.69,1.69,0,0,1,46.6,204.145Z" transform="translate(1143.017 945.3)"/>
  </g>
</svg>
