<svg xmlns="http://www.w3.org/2000/svg" xmlns:xlink="http://www.w3.org/1999/xlink" width="18" height="18" viewBox="0 0 18 18">
  <defs>
    <style>
      .cls-1 {
        fill: none;
      }

      .cls-2 {
        fill: url(#linear-gradient);
      }
    </style>
    <linearGradient id="linear-gradient" y1="0.5" x2="1" y2="0.5" gradientUnits="objectBoundingBox">
      <stop offset="0" stop-color="#ff1656"/>
      <stop offset="1" stop-color="#fe6959"/>
    </linearGradient>
  </defs>
  <g id="组_614" data-name="组 614" transform="translate(-1431 -1086)">
    <g id="组_606" data-name="组 606">
      <rect id="矩形_647" data-name="矩形 647" class="cls-1" width="18" height="18" transform="translate(1431 1086)"/>
      <g id="组_590" data-name="组 590" transform="translate(1432 1088)">
        <path id="路径_1204" data-name="路径 1204" class="cls-2" d="M117.942,189.238l-3.468-3.468a.223.223,0,0,0-.219,0c-.467.477-.845.855-1.153,1.123a2.109,2.109,0,0,1-1.093.477,1.424,1.424,0,0,1-1.352-.437.226.226,0,0,1-.06-.159.2.2,0,0,1,.06-.149l2.335-2.325c-.2-.189-.328-.318-.388-.368a8.232,8.232,0,0,0-1.749-1.073l-.1-.05a2.089,2.089,0,0,0-.258-.129l-.089-.04-.01-.01a2.541,2.541,0,0,0-1.083-.358,1.034,1.034,0,0,0-.735.318l-3.23,3.25a1.547,1.547,0,0,0-.537,1.381.535.535,0,0,1,.01.109,2.31,2.31,0,0,0,.626.994c.07.079.149.169.209.248a7,7,0,0,1,.537.8l.07.119a7.32,7.32,0,0,0,1.2,1.56l4.045,4.064a1.808,1.808,0,0,0,1.024.517,1.022,1.022,0,0,0,.179.01,1.056,1.056,0,0,0,.775-.308l.089-.089c.358-.358-.139-.884-.139-.884l-1.65-1.65a.234.234,0,0,1-.07-.159.2.2,0,0,1,.07-.159.235.235,0,0,1,.159-.07.2.2,0,0,1,.159.07l1.65,1.65s.6.527,1.063.229l.308-.278c.378-.427-.07-.974-.07-.974l-1.789-1.789a.235.235,0,0,1-.07-.159.2.2,0,0,1,.07-.159.234.234,0,0,1,.159-.07.2.2,0,0,1,.159.07l1.888,1.878s.457.487.884.268l.119-.1.358-.318a.387.387,0,0,1,.04-.05.846.846,0,0,0-.06-.994l-1.968-1.968a.235.235,0,0,1-.07-.159.2.2,0,0,1,.07-.159.235.235,0,0,1,.159-.07.2.2,0,0,1,.159.07l1.57,1.57a1.069,1.069,0,0,0,1.262.159.974.974,0,0,0,.338-.547A1.279,1.279,0,0,0,117.942,189.238Z" transform="translate(-104.802 -181.435)"/>
        <path id="路径_1205" data-name="路径 1205" class="cls-2" d="M372.767,143.583l-3.727-3.727c-.845-.845-1.769-.924-2.464-.229l-1.441,1.441-2.554,2.554a.5.5,0,0,0-.01.706,3.653,3.653,0,0,0,1.371.735,1.427,1.427,0,0,1-.646-.407.226.226,0,0,1-.06-.159.2.2,0,0,1,.06-.149l.4-.4,2.146-2.147,1.461-1.461a.445.445,0,0,1,.4-.169,1.229,1.229,0,0,1,.626.4l3.727,3.727c.348.348.666.845.258,1.252l-.765.765a.506.506,0,1,0,.716.716l.765-.765C373.771,145.521,373.671,144.487,372.767,143.583Z" transform="translate(-357.43 -139.158)"/>
      </g>
    </g>
  </g>
</svg>
