<svg xmlns="http://www.w3.org/2000/svg" width="12.758" height="14.701" viewBox="0 0 12.758 14.701">
  <defs>
    <style>
      .cls-1 {
        fill: #55576f;
      }
    </style>
  </defs>
  <path id="tabbar-user" class="cls-1" d="M160.352,105.173a3.753,3.753,0,0,0,1.59-3.05,3.867,3.867,0,0,0-7.731,0,3.748,3.748,0,0,0,1.59,3.05,6.244,6.244,0,0,0-4.1,5.817,2.1,2.1,0,0,0,2.129,2.074h8.5a2.1,2.1,0,0,0,2.129-2.074,6.253,6.253,0,0,0-4.107-5.817Zm-5.264-3.05a3.021,3.021,0,0,1,2.9-2.875,2.855,2.855,0,1,1,.067,5.7h-.067a3.015,3.015,0,0,1-2.9-2.829Zm7.345,10.008h-8.753a1.109,1.109,0,0,1-.962-1.138h0a5.169,5.169,0,0,1,5.333-5.278,5.27,5.27,0,0,1,5.358,5.278c-.007.527-.449,1.147-.976,1.14Z" transform="translate(-151.701 -98.364)"/>
</svg>
