<svg xmlns="http://www.w3.org/2000/svg" xmlns:xlink="http://www.w3.org/1999/xlink" width="18" height="18" viewBox="0 0 18 18">
  <defs>
    <style>
      .cls-1 {
        fill: none;
      }

      .cls-2 {
        fill: url(#linear-gradient);
      }
    </style>
    <linearGradient id="linear-gradient" x1="0.5" x2="0.5" y2="1" gradientUnits="objectBoundingBox">
      <stop offset="0" stop-color="#ff1656"/>
      <stop offset="1" stop-color="#fe6959"/>
    </linearGradient>
  </defs>
  <g id="组_1093" data-name="组 1093" transform="translate(-404 -299)">
    <rect id="矩形_952" data-name="矩形 952" class="cls-1" width="18" height="18" transform="translate(404 299)"/>
    <path id="路径_2682" data-name="路径 2682" class="cls-2" d="M102.035,137.162a1.1,1.1,0,0,1-.709-.25c-.17-.14-4.317-3.348-5.976-5.956a6.571,6.571,0,0,1-1.309-3.687,4.829,4.829,0,0,1,4.6-5.016,4.477,4.477,0,0,1,3.4,1.619,4.394,4.394,0,0,1,3.387-1.619,4.822,4.822,0,0,1,4.6,5.016,6.472,6.472,0,0,1-1.289,3.657l-.02.03c-1.659,2.608-5.806,5.826-5.976,5.956a1.109,1.109,0,0,1-.7.25Z" transform="translate(310.959 178.747)"/>
  </g>
</svg>
