<svg xmlns="http://www.w3.org/2000/svg" xmlns:xlink="http://www.w3.org/1999/xlink" width="18" height="18" viewBox="0 0 18 18">
  <defs>
    <style>
      .cls-1 {
        fill: none;
      }

      .cls-2 {
        fill: url(#linear-gradient);
      }
    </style>
    <linearGradient id="linear-gradient" x1="0.5" x2="0.5" y2="1" gradientUnits="objectBoundingBox">
      <stop offset="0" stop-color="#ff1656"/>
      <stop offset="1" stop-color="#fe6959"/>
    </linearGradient>
  </defs>
  <g id="组_1092" data-name="组 1092" transform="translate(-438 -300)">
    <rect id="矩形_951" data-name="矩形 951" class="cls-1" width="18" height="18" transform="translate(438 300)"/>
    <path id="路径_2681" data-name="路径 2681" class="cls-2" d="M102.035,137.162a1.1,1.1,0,0,1-.709-.25c-.17-.14-4.317-3.348-5.976-5.956a6.571,6.571,0,0,1-1.309-3.687,4.829,4.829,0,0,1,4.6-5.016,4.477,4.477,0,0,1,3.4,1.619,4.394,4.394,0,0,1,3.387-1.619,4.822,4.822,0,0,1,4.6,5.016,6.472,6.472,0,0,1-1.289,3.657l-.02.03c-1.659,2.608-5.806,5.826-5.976,5.956a1.109,1.109,0,0,1-.7.25Zm-3.4-14.109a4.023,4.023,0,0,0-3.8,4.217,5.793,5.793,0,0,0,1.179,3.258c1.589,2.488,5.626,5.626,5.8,5.756a.342.342,0,0,0,.44,0c.17-.13,4.207-3.268,5.8-5.756l.02-.03a5.782,5.782,0,0,0,1.159-3.228,4.036,4.036,0,0,0-3.8-4.217,3.619,3.619,0,0,0-2.938,1.549l-.12.17a.417.417,0,0,1-.32.16.4.4,0,0,1-.32-.16l-.12-.17A3.791,3.791,0,0,0,98.637,123.052Z" transform="translate(344.959 179.747)"/>
  </g>
</svg>
